G04 EAGLE Gerber RS-274X export*
G75*
%MOMM*%
%FSLAX34Y34*%
%LPD*%
%INTop Copper*%
%IPPOS*%
%AMOC8*
5,1,8,0,0,1.08239X$1,22.5*%
G01*
%ADD10P,1.732040X8X22.500000*%
%ADD11C,1.600200*%
%ADD12C,0.300000*%
%ADD13P,1.649562X8X112.500000*%
%ADD14R,1.100000X1.000000*%
%ADD15C,1.408000*%
%ADD16C,0.304800*%
%ADD17C,0.914400*%

G36*
X696998Y10164D02*
X696998Y10164D01*
X697017Y10162D01*
X697119Y10184D01*
X697221Y10200D01*
X697238Y10210D01*
X697258Y10214D01*
X697347Y10267D01*
X697438Y10316D01*
X697452Y10330D01*
X697469Y10340D01*
X697536Y10419D01*
X697608Y10494D01*
X697616Y10512D01*
X697629Y10527D01*
X697668Y10623D01*
X697711Y10717D01*
X697713Y10737D01*
X697721Y10755D01*
X697739Y10922D01*
X697739Y408078D01*
X697736Y408098D01*
X697738Y408117D01*
X697716Y408219D01*
X697700Y408321D01*
X697690Y408338D01*
X697686Y408358D01*
X697633Y408447D01*
X697584Y408538D01*
X697570Y408552D01*
X697560Y408569D01*
X697481Y408636D01*
X697406Y408708D01*
X697388Y408716D01*
X697373Y408729D01*
X697277Y408768D01*
X697183Y408811D01*
X697163Y408813D01*
X697145Y408821D01*
X696978Y408839D01*
X10922Y408839D01*
X10902Y408836D01*
X10883Y408838D01*
X10781Y408816D01*
X10679Y408800D01*
X10662Y408790D01*
X10642Y408786D01*
X10553Y408733D01*
X10462Y408684D01*
X10448Y408670D01*
X10431Y408660D01*
X10364Y408581D01*
X10292Y408506D01*
X10284Y408488D01*
X10271Y408473D01*
X10232Y408377D01*
X10189Y408283D01*
X10187Y408263D01*
X10179Y408245D01*
X10161Y408078D01*
X10161Y10922D01*
X10164Y10902D01*
X10162Y10883D01*
X10184Y10781D01*
X10200Y10679D01*
X10210Y10662D01*
X10214Y10642D01*
X10267Y10553D01*
X10316Y10462D01*
X10330Y10448D01*
X10340Y10431D01*
X10419Y10364D01*
X10494Y10292D01*
X10512Y10284D01*
X10527Y10271D01*
X10623Y10232D01*
X10717Y10189D01*
X10737Y10187D01*
X10755Y10179D01*
X10922Y10161D01*
X696978Y10161D01*
X696998Y10164D01*
G37*
%LPC*%
G36*
X163416Y46735D02*
X163416Y46735D01*
X148335Y61816D01*
X148335Y98065D01*
X148316Y98180D01*
X148299Y98296D01*
X148297Y98301D01*
X148296Y98308D01*
X148241Y98410D01*
X148188Y98515D01*
X148183Y98520D01*
X148180Y98525D01*
X148096Y98605D01*
X148012Y98687D01*
X148006Y98691D01*
X148002Y98694D01*
X147985Y98702D01*
X147865Y98768D01*
X146973Y99138D01*
X144278Y101833D01*
X142819Y105354D01*
X142819Y123246D01*
X144278Y126767D01*
X146973Y129462D01*
X150494Y130921D01*
X154306Y130921D01*
X157827Y129462D01*
X160522Y126767D01*
X161981Y123246D01*
X161981Y105354D01*
X160522Y101833D01*
X157827Y99138D01*
X156935Y98768D01*
X156835Y98707D01*
X156735Y98647D01*
X156731Y98642D01*
X156726Y98639D01*
X156651Y98549D01*
X156575Y98460D01*
X156573Y98454D01*
X156569Y98449D01*
X156527Y98341D01*
X156483Y98232D01*
X156482Y98224D01*
X156481Y98219D01*
X156480Y98201D01*
X156465Y98065D01*
X156465Y65499D01*
X156479Y65409D01*
X156487Y65318D01*
X156499Y65288D01*
X156504Y65256D01*
X156547Y65176D01*
X156583Y65092D01*
X156609Y65060D01*
X156620Y65039D01*
X156643Y65017D01*
X156688Y64961D01*
X166561Y55088D01*
X166635Y55035D01*
X166704Y54975D01*
X166734Y54963D01*
X166760Y54944D01*
X166847Y54917D01*
X166932Y54883D01*
X166973Y54879D01*
X166996Y54872D01*
X167028Y54873D01*
X167099Y54865D01*
X619204Y54865D01*
X619275Y54876D01*
X619347Y54878D01*
X619396Y54896D01*
X619447Y54904D01*
X619510Y54938D01*
X619578Y54963D01*
X619618Y54995D01*
X619664Y55020D01*
X619714Y55072D01*
X619770Y55116D01*
X619798Y55160D01*
X619834Y55198D01*
X619864Y55263D01*
X619903Y55323D01*
X619916Y55374D01*
X619937Y55421D01*
X619945Y55492D01*
X619963Y55562D01*
X619959Y55614D01*
X619965Y55665D01*
X619949Y55736D01*
X619944Y55807D01*
X619923Y55855D01*
X619912Y55906D01*
X619875Y55967D01*
X619847Y56033D01*
X619803Y56089D01*
X619786Y56117D01*
X619768Y56132D01*
X619743Y56164D01*
X618459Y57448D01*
X618459Y58674D01*
X618456Y58694D01*
X618458Y58713D01*
X618436Y58815D01*
X618420Y58917D01*
X618410Y58934D01*
X618406Y58954D01*
X618353Y59043D01*
X618304Y59134D01*
X618290Y59148D01*
X618280Y59165D01*
X618201Y59232D01*
X618126Y59304D01*
X618108Y59312D01*
X618093Y59325D01*
X617997Y59364D01*
X617903Y59407D01*
X617883Y59409D01*
X617865Y59417D01*
X617698Y59435D01*
X315816Y59435D01*
X313212Y62039D01*
X300735Y74516D01*
X300735Y98065D01*
X300716Y98180D01*
X300699Y98296D01*
X300697Y98302D01*
X300696Y98308D01*
X300641Y98410D01*
X300588Y98515D01*
X300583Y98520D01*
X300580Y98525D01*
X300496Y98605D01*
X300412Y98687D01*
X300406Y98691D01*
X300402Y98694D01*
X300385Y98702D01*
X300265Y98768D01*
X299373Y99138D01*
X296678Y101833D01*
X295219Y105354D01*
X295219Y123246D01*
X296678Y126767D01*
X299373Y129462D01*
X302894Y130921D01*
X306706Y130921D01*
X310227Y129462D01*
X312922Y126767D01*
X314381Y123246D01*
X314381Y105354D01*
X312922Y101833D01*
X310227Y99138D01*
X309335Y98768D01*
X309235Y98706D01*
X309135Y98647D01*
X309131Y98642D01*
X309126Y98639D01*
X309051Y98548D01*
X308975Y98460D01*
X308973Y98454D01*
X308969Y98449D01*
X308927Y98341D01*
X308883Y98232D01*
X308882Y98224D01*
X308881Y98220D01*
X308880Y98201D01*
X308865Y98065D01*
X308865Y78199D01*
X308879Y78109D01*
X308887Y78018D01*
X308899Y77988D01*
X308904Y77956D01*
X308947Y77876D01*
X308983Y77792D01*
X309009Y77760D01*
X309020Y77739D01*
X309043Y77717D01*
X309088Y77661D01*
X318961Y67788D01*
X319035Y67735D01*
X319104Y67675D01*
X319134Y67663D01*
X319160Y67644D01*
X319247Y67617D01*
X319332Y67583D01*
X319373Y67579D01*
X319395Y67572D01*
X319428Y67573D01*
X319499Y67565D01*
X617698Y67565D01*
X617718Y67568D01*
X617737Y67566D01*
X617839Y67588D01*
X617941Y67604D01*
X617958Y67614D01*
X617978Y67618D01*
X618067Y67671D01*
X618158Y67720D01*
X618172Y67734D01*
X618189Y67744D01*
X618256Y67823D01*
X618328Y67898D01*
X618336Y67916D01*
X618349Y67931D01*
X618388Y68027D01*
X618431Y68121D01*
X618433Y68141D01*
X618441Y68159D01*
X618459Y68326D01*
X618459Y69552D01*
X619948Y71041D01*
X621674Y71041D01*
X621694Y71044D01*
X621713Y71042D01*
X621815Y71064D01*
X621917Y71080D01*
X621934Y71090D01*
X621954Y71094D01*
X622043Y71147D01*
X622134Y71196D01*
X622148Y71210D01*
X622165Y71220D01*
X622232Y71299D01*
X622304Y71374D01*
X622312Y71392D01*
X622325Y71407D01*
X622364Y71503D01*
X622407Y71597D01*
X622409Y71617D01*
X622417Y71635D01*
X622435Y71802D01*
X622435Y116078D01*
X622432Y116098D01*
X622434Y116117D01*
X622412Y116219D01*
X622396Y116321D01*
X622386Y116338D01*
X622382Y116358D01*
X622329Y116447D01*
X622280Y116538D01*
X622266Y116552D01*
X622256Y116569D01*
X622177Y116636D01*
X622102Y116708D01*
X622084Y116716D01*
X622069Y116729D01*
X621973Y116768D01*
X621879Y116811D01*
X621859Y116813D01*
X621841Y116821D01*
X621674Y116839D01*
X618091Y116839D01*
X612139Y122791D01*
X612139Y131097D01*
X612125Y131187D01*
X612117Y131278D01*
X612105Y131308D01*
X612100Y131340D01*
X612057Y131420D01*
X612021Y131504D01*
X611995Y131536D01*
X611984Y131557D01*
X611961Y131579D01*
X611916Y131635D01*
X567435Y176116D01*
X567435Y204884D01*
X612188Y249637D01*
X612257Y249732D01*
X612326Y249825D01*
X612328Y249831D01*
X612332Y249837D01*
X612366Y249948D01*
X612403Y250059D01*
X612402Y250066D01*
X612404Y250072D01*
X612401Y250188D01*
X612400Y250305D01*
X612398Y250312D01*
X612398Y250317D01*
X612392Y250335D01*
X612353Y250466D01*
X611758Y251903D01*
X611758Y256097D01*
X613363Y259971D01*
X616329Y262937D01*
X617765Y263532D01*
X617865Y263593D01*
X617965Y263653D01*
X617969Y263658D01*
X617974Y263662D01*
X618049Y263752D01*
X618125Y263840D01*
X618127Y263846D01*
X618131Y263851D01*
X618173Y263959D01*
X618217Y264069D01*
X618218Y264076D01*
X618219Y264081D01*
X618220Y264099D01*
X618235Y264235D01*
X618235Y310684D01*
X620839Y313288D01*
X628911Y321360D01*
X628953Y321418D01*
X629003Y321470D01*
X629025Y321517D01*
X629055Y321559D01*
X629076Y321628D01*
X629106Y321693D01*
X629112Y321745D01*
X629127Y321795D01*
X629125Y321866D01*
X629133Y321937D01*
X629122Y321988D01*
X629121Y322040D01*
X629096Y322108D01*
X629081Y322178D01*
X629054Y322222D01*
X629036Y322271D01*
X628992Y322327D01*
X628955Y322389D01*
X628915Y322423D01*
X628883Y322463D01*
X628822Y322502D01*
X628768Y322549D01*
X628720Y322568D01*
X628676Y322596D01*
X628606Y322614D01*
X628540Y322641D01*
X628468Y322649D01*
X628437Y322657D01*
X628414Y322655D01*
X628373Y322659D01*
X619948Y322659D01*
X618459Y324148D01*
X618459Y336252D01*
X619948Y337741D01*
X621404Y337741D01*
X621424Y337744D01*
X621443Y337742D01*
X621545Y337764D01*
X621647Y337780D01*
X621664Y337790D01*
X621684Y337794D01*
X621773Y337847D01*
X621864Y337896D01*
X621878Y337910D01*
X621895Y337920D01*
X621962Y337999D01*
X622034Y338074D01*
X622042Y338092D01*
X622055Y338107D01*
X622094Y338203D01*
X622137Y338297D01*
X622139Y338317D01*
X622147Y338335D01*
X622165Y338502D01*
X622165Y347298D01*
X622162Y347318D01*
X622164Y347337D01*
X622142Y347439D01*
X622126Y347541D01*
X622116Y347558D01*
X622112Y347578D01*
X622059Y347667D01*
X622010Y347758D01*
X621996Y347772D01*
X621986Y347789D01*
X621907Y347856D01*
X621832Y347928D01*
X621814Y347936D01*
X621799Y347949D01*
X621703Y347988D01*
X621609Y348031D01*
X621589Y348033D01*
X621571Y348041D01*
X621404Y348059D01*
X621056Y348059D01*
X618689Y350426D01*
X618689Y360774D01*
X621056Y363141D01*
X631404Y363141D01*
X633771Y360774D01*
X633771Y350426D01*
X631404Y348059D01*
X631056Y348059D01*
X631036Y348056D01*
X631017Y348058D01*
X630915Y348036D01*
X630813Y348020D01*
X630796Y348010D01*
X630776Y348006D01*
X630687Y347953D01*
X630596Y347904D01*
X630582Y347890D01*
X630565Y347880D01*
X630498Y347801D01*
X630426Y347726D01*
X630418Y347708D01*
X630405Y347693D01*
X630366Y347597D01*
X630323Y347503D01*
X630321Y347483D01*
X630313Y347465D01*
X630295Y347298D01*
X630295Y338502D01*
X630298Y338482D01*
X630296Y338463D01*
X630318Y338361D01*
X630334Y338259D01*
X630344Y338242D01*
X630348Y338222D01*
X630401Y338133D01*
X630450Y338042D01*
X630464Y338028D01*
X630474Y338011D01*
X630553Y337944D01*
X630628Y337872D01*
X630646Y337864D01*
X630661Y337851D01*
X630757Y337812D01*
X630851Y337769D01*
X630871Y337767D01*
X630889Y337759D01*
X631056Y337741D01*
X633052Y337741D01*
X634462Y336331D01*
X634478Y336320D01*
X634490Y336304D01*
X634578Y336248D01*
X634661Y336188D01*
X634680Y336182D01*
X634697Y336171D01*
X634798Y336146D01*
X634897Y336116D01*
X634916Y336116D01*
X634936Y336111D01*
X635039Y336119D01*
X635142Y336122D01*
X635161Y336129D01*
X635181Y336130D01*
X635276Y336171D01*
X635373Y336206D01*
X635389Y336219D01*
X635407Y336227D01*
X635538Y336331D01*
X636948Y337741D01*
X650052Y337741D01*
X651541Y336252D01*
X651541Y324148D01*
X650052Y322659D01*
X642023Y322659D01*
X641933Y322645D01*
X641842Y322637D01*
X641812Y322625D01*
X641780Y322620D01*
X641700Y322577D01*
X641616Y322541D01*
X641584Y322515D01*
X641563Y322504D01*
X641541Y322481D01*
X641485Y322436D01*
X626588Y307539D01*
X626535Y307465D01*
X626475Y307396D01*
X626463Y307366D01*
X626444Y307340D01*
X626417Y307253D01*
X626383Y307168D01*
X626379Y307127D01*
X626372Y307105D01*
X626373Y307072D01*
X626365Y307001D01*
X626365Y264235D01*
X626384Y264120D01*
X626401Y264004D01*
X626403Y263999D01*
X626404Y263993D01*
X626459Y263890D01*
X626512Y263785D01*
X626517Y263781D01*
X626520Y263775D01*
X626604Y263695D01*
X626688Y263613D01*
X626694Y263609D01*
X626698Y263606D01*
X626715Y263598D01*
X626835Y263532D01*
X628271Y262937D01*
X631237Y259971D01*
X632842Y256097D01*
X632842Y251903D01*
X631237Y248029D01*
X628271Y245063D01*
X624397Y243458D01*
X620203Y243458D01*
X618766Y244053D01*
X618652Y244080D01*
X618539Y244109D01*
X618533Y244108D01*
X618527Y244110D01*
X618410Y244099D01*
X618294Y244090D01*
X618288Y244087D01*
X618282Y244086D01*
X618175Y244039D01*
X618068Y243993D01*
X618062Y243989D01*
X618057Y243986D01*
X618044Y243974D01*
X617937Y243888D01*
X575788Y201739D01*
X575741Y201674D01*
X575730Y201663D01*
X575727Y201657D01*
X575675Y201596D01*
X575663Y201566D01*
X575644Y201540D01*
X575617Y201453D01*
X575583Y201368D01*
X575579Y201327D01*
X575572Y201304D01*
X575573Y201272D01*
X575565Y201201D01*
X575565Y179799D01*
X575579Y179709D01*
X575587Y179618D01*
X575599Y179588D01*
X575604Y179556D01*
X575647Y179476D01*
X575683Y179392D01*
X575709Y179360D01*
X575720Y179339D01*
X575743Y179317D01*
X575788Y179261D01*
X617665Y137384D01*
X617739Y137331D01*
X617808Y137271D01*
X617838Y137259D01*
X617864Y137240D01*
X617951Y137213D01*
X618036Y137179D01*
X618077Y137175D01*
X618099Y137168D01*
X618132Y137169D01*
X618203Y137161D01*
X626509Y137161D01*
X630652Y133018D01*
X630710Y132976D01*
X630762Y132926D01*
X630809Y132905D01*
X630851Y132874D01*
X630920Y132853D01*
X630985Y132823D01*
X631037Y132817D01*
X631087Y132802D01*
X631158Y132804D01*
X631229Y132796D01*
X631280Y132807D01*
X631332Y132808D01*
X631400Y132833D01*
X631470Y132848D01*
X631515Y132875D01*
X631563Y132893D01*
X631619Y132937D01*
X631681Y132974D01*
X631715Y133014D01*
X631755Y133046D01*
X631794Y133107D01*
X631841Y133161D01*
X631860Y133209D01*
X631888Y133253D01*
X631906Y133323D01*
X631933Y133389D01*
X631941Y133461D01*
X631949Y133492D01*
X631947Y133515D01*
X631951Y133556D01*
X631951Y145844D01*
X631940Y145915D01*
X631938Y145986D01*
X631920Y146035D01*
X631912Y146087D01*
X631878Y146150D01*
X631853Y146217D01*
X631821Y146258D01*
X631796Y146304D01*
X631744Y146354D01*
X631700Y146410D01*
X631656Y146438D01*
X631618Y146474D01*
X631553Y146504D01*
X631493Y146543D01*
X631442Y146555D01*
X631395Y146577D01*
X631324Y146585D01*
X631254Y146603D01*
X631202Y146599D01*
X631151Y146604D01*
X631080Y146589D01*
X631009Y146583D01*
X630961Y146563D01*
X630910Y146552D01*
X630849Y146515D01*
X630783Y146487D01*
X630727Y146442D01*
X630699Y146426D01*
X630684Y146408D01*
X630652Y146382D01*
X626509Y142239D01*
X618091Y142239D01*
X612139Y148191D01*
X612139Y156497D01*
X612125Y156587D01*
X612117Y156678D01*
X612105Y156708D01*
X612100Y156740D01*
X612057Y156820D01*
X612021Y156904D01*
X611995Y156936D01*
X611984Y156957D01*
X611961Y156979D01*
X611916Y157035D01*
X585787Y183164D01*
X585713Y183217D01*
X585644Y183277D01*
X585614Y183289D01*
X585588Y183308D01*
X585501Y183335D01*
X585416Y183369D01*
X585375Y183373D01*
X585352Y183380D01*
X585320Y183379D01*
X585249Y183387D01*
X582785Y183387D01*
X580171Y184470D01*
X578170Y186471D01*
X577087Y189085D01*
X577087Y191915D01*
X578170Y194529D01*
X580171Y196530D01*
X582785Y197613D01*
X585615Y197613D01*
X588229Y196530D01*
X590230Y194529D01*
X591313Y191915D01*
X591313Y189451D01*
X591327Y189361D01*
X591335Y189270D01*
X591347Y189240D01*
X591352Y189208D01*
X591395Y189128D01*
X591431Y189044D01*
X591457Y189012D01*
X591468Y188991D01*
X591491Y188969D01*
X591536Y188913D01*
X617665Y162784D01*
X617739Y162731D01*
X617808Y162671D01*
X617838Y162659D01*
X617864Y162640D01*
X617951Y162613D01*
X618036Y162579D01*
X618077Y162575D01*
X618100Y162568D01*
X618132Y162569D01*
X618203Y162561D01*
X626509Y162561D01*
X630652Y158418D01*
X630710Y158376D01*
X630762Y158326D01*
X630809Y158305D01*
X630851Y158274D01*
X630920Y158253D01*
X630985Y158223D01*
X631037Y158217D01*
X631087Y158202D01*
X631158Y158204D01*
X631229Y158196D01*
X631280Y158207D01*
X631332Y158208D01*
X631400Y158233D01*
X631470Y158248D01*
X631515Y158275D01*
X631563Y158293D01*
X631619Y158337D01*
X631681Y158374D01*
X631715Y158414D01*
X631755Y158446D01*
X631794Y158507D01*
X631841Y158561D01*
X631860Y158609D01*
X631888Y158653D01*
X631906Y158723D01*
X631933Y158789D01*
X631941Y158861D01*
X631949Y158892D01*
X631947Y158915D01*
X631951Y158956D01*
X631951Y162085D01*
X631937Y162175D01*
X631929Y162266D01*
X631917Y162296D01*
X631912Y162328D01*
X631869Y162408D01*
X631833Y162492D01*
X631807Y162524D01*
X631796Y162545D01*
X631773Y162567D01*
X631728Y162623D01*
X630935Y163416D01*
X630935Y166784D01*
X637316Y173165D01*
X637369Y173239D01*
X637429Y173308D01*
X637441Y173338D01*
X637460Y173364D01*
X637487Y173451D01*
X637521Y173536D01*
X637525Y173577D01*
X637532Y173600D01*
X637531Y173632D01*
X637539Y173703D01*
X637539Y182009D01*
X643491Y187961D01*
X651909Y187961D01*
X657861Y182009D01*
X657861Y173591D01*
X651909Y167639D01*
X643603Y167639D01*
X643513Y167625D01*
X643422Y167617D01*
X643392Y167605D01*
X643360Y167600D01*
X643280Y167557D01*
X643196Y167521D01*
X643164Y167495D01*
X643143Y167484D01*
X643121Y167461D01*
X643065Y167416D01*
X640304Y164655D01*
X640251Y164581D01*
X640191Y164512D01*
X640179Y164482D01*
X640160Y164456D01*
X640133Y164369D01*
X640099Y164284D01*
X640095Y164243D01*
X640088Y164220D01*
X640089Y164188D01*
X640081Y164117D01*
X640081Y160988D01*
X640092Y160917D01*
X640094Y160846D01*
X640112Y160797D01*
X640120Y160745D01*
X640154Y160682D01*
X640179Y160615D01*
X640211Y160574D01*
X640236Y160528D01*
X640288Y160478D01*
X640332Y160422D01*
X640376Y160394D01*
X640414Y160358D01*
X640479Y160328D01*
X640539Y160289D01*
X640590Y160277D01*
X640637Y160255D01*
X640708Y160247D01*
X640778Y160229D01*
X640830Y160233D01*
X640881Y160228D01*
X640952Y160243D01*
X641023Y160249D01*
X641071Y160269D01*
X641122Y160280D01*
X641183Y160317D01*
X641249Y160345D01*
X641305Y160390D01*
X641333Y160406D01*
X641348Y160424D01*
X641380Y160450D01*
X643491Y162561D01*
X651909Y162561D01*
X657782Y156688D01*
X657856Y156635D01*
X657925Y156575D01*
X657955Y156563D01*
X657981Y156544D01*
X658068Y156517D01*
X658153Y156483D01*
X658194Y156479D01*
X658217Y156472D01*
X658249Y156473D01*
X658320Y156465D01*
X679490Y156465D01*
X679581Y156479D01*
X679671Y156487D01*
X679701Y156499D01*
X679733Y156504D01*
X679814Y156547D01*
X679898Y156583D01*
X679930Y156609D01*
X679951Y156620D01*
X679973Y156643D01*
X680029Y156688D01*
X681771Y158430D01*
X684385Y159513D01*
X687215Y159513D01*
X689829Y158430D01*
X691830Y156429D01*
X692913Y153815D01*
X692913Y150985D01*
X691830Y148371D01*
X689829Y146370D01*
X687215Y145287D01*
X684385Y145287D01*
X681771Y146370D01*
X680029Y148112D01*
X679955Y148165D01*
X679885Y148225D01*
X679855Y148237D01*
X679829Y148256D01*
X679742Y148283D01*
X679657Y148317D01*
X679616Y148321D01*
X679594Y148328D01*
X679562Y148327D01*
X679490Y148335D01*
X658320Y148335D01*
X658230Y148321D01*
X658139Y148313D01*
X658109Y148301D01*
X658077Y148296D01*
X657997Y148253D01*
X657913Y148217D01*
X657881Y148191D01*
X657860Y148180D01*
X657838Y148157D01*
X657782Y148112D01*
X651909Y142239D01*
X643491Y142239D01*
X641380Y144350D01*
X641322Y144392D01*
X641270Y144442D01*
X641223Y144463D01*
X641181Y144494D01*
X641112Y144515D01*
X641047Y144545D01*
X640995Y144551D01*
X640945Y144566D01*
X640874Y144564D01*
X640803Y144572D01*
X640752Y144561D01*
X640700Y144560D01*
X640632Y144535D01*
X640562Y144520D01*
X640517Y144493D01*
X640469Y144475D01*
X640413Y144431D01*
X640351Y144394D01*
X640317Y144354D01*
X640277Y144322D01*
X640238Y144261D01*
X640191Y144207D01*
X640172Y144159D01*
X640144Y144115D01*
X640126Y144045D01*
X640099Y143979D01*
X640091Y143907D01*
X640083Y143876D01*
X640085Y143853D01*
X640081Y143812D01*
X640081Y135588D01*
X640092Y135517D01*
X640094Y135446D01*
X640112Y135397D01*
X640120Y135345D01*
X640154Y135282D01*
X640179Y135215D01*
X640211Y135174D01*
X640236Y135128D01*
X640288Y135078D01*
X640332Y135022D01*
X640376Y134994D01*
X640414Y134958D01*
X640479Y134928D01*
X640539Y134889D01*
X640590Y134877D01*
X640637Y134855D01*
X640708Y134847D01*
X640778Y134829D01*
X640830Y134833D01*
X640881Y134828D01*
X640952Y134843D01*
X641023Y134849D01*
X641071Y134869D01*
X641122Y134880D01*
X641183Y134917D01*
X641249Y134945D01*
X641305Y134990D01*
X641333Y135006D01*
X641348Y135024D01*
X641380Y135050D01*
X643491Y137161D01*
X651909Y137161D01*
X657782Y131288D01*
X657856Y131235D01*
X657925Y131175D01*
X657955Y131163D01*
X657981Y131144D01*
X658068Y131117D01*
X658153Y131083D01*
X658194Y131079D01*
X658217Y131072D01*
X658249Y131073D01*
X658320Y131065D01*
X679490Y131065D01*
X679581Y131079D01*
X679671Y131087D01*
X679701Y131099D01*
X679733Y131104D01*
X679814Y131147D01*
X679898Y131183D01*
X679930Y131209D01*
X679951Y131220D01*
X679973Y131243D01*
X680029Y131288D01*
X681771Y133030D01*
X684385Y134113D01*
X687215Y134113D01*
X689829Y133030D01*
X691830Y131029D01*
X692913Y128415D01*
X692913Y125585D01*
X691830Y122971D01*
X689829Y120970D01*
X687215Y119887D01*
X684385Y119887D01*
X681771Y120970D01*
X680029Y122712D01*
X679955Y122765D01*
X679885Y122825D01*
X679855Y122837D01*
X679829Y122856D01*
X679742Y122883D01*
X679657Y122917D01*
X679616Y122921D01*
X679594Y122928D01*
X679562Y122927D01*
X679490Y122935D01*
X658320Y122935D01*
X658230Y122921D01*
X658139Y122913D01*
X658109Y122901D01*
X658077Y122896D01*
X657997Y122853D01*
X657913Y122817D01*
X657881Y122791D01*
X657860Y122780D01*
X657838Y122757D01*
X657782Y122712D01*
X651909Y116839D01*
X648326Y116839D01*
X648306Y116836D01*
X648287Y116838D01*
X648185Y116816D01*
X648083Y116800D01*
X648066Y116790D01*
X648046Y116786D01*
X647957Y116733D01*
X647866Y116684D01*
X647852Y116670D01*
X647835Y116660D01*
X647768Y116581D01*
X647696Y116506D01*
X647688Y116488D01*
X647675Y116473D01*
X647636Y116377D01*
X647593Y116283D01*
X647591Y116263D01*
X647583Y116245D01*
X647565Y116078D01*
X647565Y71802D01*
X647567Y71790D01*
X647566Y71783D01*
X647567Y71776D01*
X647566Y71763D01*
X647588Y71661D01*
X647604Y71559D01*
X647614Y71542D01*
X647618Y71522D01*
X647671Y71433D01*
X647720Y71342D01*
X647734Y71328D01*
X647744Y71311D01*
X647823Y71244D01*
X647898Y71172D01*
X647916Y71164D01*
X647931Y71151D01*
X648027Y71112D01*
X648121Y71069D01*
X648141Y71067D01*
X648159Y71059D01*
X648326Y71041D01*
X650052Y71041D01*
X651541Y69552D01*
X651541Y57448D01*
X650052Y55959D01*
X642023Y55959D01*
X641933Y55945D01*
X641842Y55937D01*
X641812Y55925D01*
X641780Y55920D01*
X641700Y55877D01*
X641616Y55841D01*
X641584Y55815D01*
X641563Y55804D01*
X641541Y55781D01*
X641485Y55736D01*
X632484Y46735D01*
X163416Y46735D01*
G37*
%LPD*%
%LPC*%
G36*
X404494Y250079D02*
X404494Y250079D01*
X400973Y251538D01*
X398278Y254233D01*
X396819Y257754D01*
X396819Y275646D01*
X398278Y279167D01*
X400973Y281862D01*
X404494Y283321D01*
X408306Y283321D01*
X411827Y281862D01*
X413282Y280407D01*
X413298Y280395D01*
X413311Y280380D01*
X413398Y280324D01*
X413482Y280264D01*
X413501Y280258D01*
X413518Y280247D01*
X413618Y280222D01*
X413717Y280191D01*
X413737Y280192D01*
X413756Y280187D01*
X413859Y280195D01*
X413963Y280198D01*
X413982Y280204D01*
X414001Y280206D01*
X414096Y280246D01*
X414194Y280282D01*
X414209Y280294D01*
X414228Y280302D01*
X414359Y280407D01*
X414812Y280861D01*
X414866Y280935D01*
X414925Y281004D01*
X414937Y281034D01*
X414956Y281060D01*
X414983Y281148D01*
X415017Y281232D01*
X415021Y281273D01*
X415028Y281296D01*
X415027Y281328D01*
X415035Y281399D01*
X415035Y285790D01*
X415021Y285881D01*
X415013Y285971D01*
X415001Y286001D01*
X414996Y286033D01*
X414953Y286114D01*
X414917Y286198D01*
X414891Y286230D01*
X414880Y286251D01*
X414857Y286273D01*
X414812Y286329D01*
X413070Y288071D01*
X411987Y290685D01*
X411987Y293515D01*
X413070Y296129D01*
X415071Y298130D01*
X417685Y299213D01*
X420515Y299213D01*
X423129Y298130D01*
X425130Y296129D01*
X426213Y293515D01*
X426213Y290685D01*
X425130Y288071D01*
X423388Y286329D01*
X423335Y286255D01*
X423275Y286185D01*
X423263Y286155D01*
X423244Y286129D01*
X423217Y286042D01*
X423183Y285957D01*
X423179Y285916D01*
X423172Y285894D01*
X423173Y285862D01*
X423165Y285790D01*
X423165Y280492D01*
X423176Y280421D01*
X423178Y280349D01*
X423196Y280300D01*
X423204Y280249D01*
X423238Y280186D01*
X423263Y280118D01*
X423295Y280078D01*
X423320Y280032D01*
X423372Y279982D01*
X423416Y279926D01*
X423460Y279898D01*
X423498Y279862D01*
X423563Y279832D01*
X423623Y279793D01*
X423674Y279781D01*
X423721Y279759D01*
X423792Y279751D01*
X423862Y279733D01*
X423914Y279737D01*
X423965Y279732D01*
X424036Y279747D01*
X424107Y279752D01*
X424155Y279773D01*
X424206Y279784D01*
X424267Y279821D01*
X424333Y279849D01*
X424389Y279893D01*
X424417Y279910D01*
X424432Y279928D01*
X424464Y279953D01*
X426373Y281862D01*
X429894Y283321D01*
X433706Y283321D01*
X437227Y281862D01*
X438682Y280407D01*
X438698Y280395D01*
X438711Y280380D01*
X438798Y280324D01*
X438882Y280264D01*
X438901Y280258D01*
X438918Y280247D01*
X439018Y280222D01*
X439117Y280191D01*
X439137Y280192D01*
X439156Y280187D01*
X439259Y280195D01*
X439363Y280198D01*
X439382Y280204D01*
X439401Y280206D01*
X439496Y280246D01*
X439594Y280282D01*
X439609Y280295D01*
X439628Y280302D01*
X439759Y280407D01*
X452912Y293561D01*
X452965Y293635D01*
X453001Y293677D01*
X453004Y293679D01*
X453025Y293704D01*
X453037Y293734D01*
X453056Y293760D01*
X453083Y293847D01*
X453088Y293861D01*
X453107Y293902D01*
X453108Y293911D01*
X453117Y293932D01*
X453121Y293973D01*
X453128Y293996D01*
X453127Y294028D01*
X453135Y294099D01*
X453135Y311190D01*
X453121Y311281D01*
X453113Y311371D01*
X453101Y311401D01*
X453096Y311433D01*
X453053Y311514D01*
X453017Y311598D01*
X452991Y311630D01*
X452980Y311651D01*
X452957Y311673D01*
X452912Y311729D01*
X451170Y313471D01*
X450087Y316085D01*
X450087Y318915D01*
X451170Y321529D01*
X453171Y323530D01*
X455785Y324613D01*
X458615Y324613D01*
X461229Y323530D01*
X463230Y321529D01*
X464313Y318915D01*
X464313Y316085D01*
X463230Y313471D01*
X461488Y311729D01*
X461435Y311655D01*
X461375Y311585D01*
X461363Y311555D01*
X461344Y311529D01*
X461317Y311442D01*
X461283Y311357D01*
X461279Y311316D01*
X461272Y311294D01*
X461273Y311262D01*
X461265Y311190D01*
X461265Y290416D01*
X455469Y284620D01*
X455427Y284562D01*
X455377Y284510D01*
X455355Y284463D01*
X455325Y284421D01*
X455304Y284352D01*
X455274Y284287D01*
X455268Y284235D01*
X455253Y284185D01*
X455255Y284114D01*
X455247Y284043D01*
X455258Y283992D01*
X455259Y283940D01*
X455284Y283872D01*
X455299Y283802D01*
X455326Y283757D01*
X455344Y283709D01*
X455388Y283653D01*
X455425Y283591D01*
X455465Y283557D01*
X455497Y283517D01*
X455558Y283478D01*
X455612Y283431D01*
X455660Y283412D01*
X455704Y283384D01*
X455774Y283366D01*
X455840Y283339D01*
X455912Y283331D01*
X455943Y283323D01*
X455966Y283325D01*
X456007Y283321D01*
X459106Y283321D01*
X462627Y281862D01*
X465322Y279167D01*
X466781Y275646D01*
X466781Y257754D01*
X465322Y254233D01*
X462627Y251538D01*
X459106Y250079D01*
X455294Y250079D01*
X451773Y251538D01*
X449078Y254233D01*
X447619Y257754D01*
X447619Y274933D01*
X447608Y275004D01*
X447606Y275076D01*
X447588Y275124D01*
X447580Y275176D01*
X447546Y275239D01*
X447521Y275307D01*
X447489Y275347D01*
X447464Y275393D01*
X447412Y275443D01*
X447368Y275499D01*
X447324Y275527D01*
X447286Y275563D01*
X447221Y275593D01*
X447161Y275632D01*
X447110Y275644D01*
X447063Y275666D01*
X446992Y275674D01*
X446922Y275692D01*
X446870Y275688D01*
X446819Y275693D01*
X446748Y275678D01*
X446677Y275672D01*
X446629Y275652D01*
X446578Y275641D01*
X446517Y275604D01*
X446451Y275576D01*
X446395Y275531D01*
X446367Y275515D01*
X446352Y275497D01*
X446320Y275471D01*
X441604Y270755D01*
X441551Y270681D01*
X441491Y270612D01*
X441479Y270582D01*
X441460Y270556D01*
X441433Y270468D01*
X441399Y270384D01*
X441395Y270343D01*
X441388Y270320D01*
X441389Y270288D01*
X441381Y270217D01*
X441381Y257754D01*
X439922Y254233D01*
X437227Y251538D01*
X433706Y250079D01*
X429894Y250079D01*
X426373Y251538D01*
X423678Y254233D01*
X422219Y257754D01*
X422219Y274933D01*
X422208Y275004D01*
X422206Y275076D01*
X422188Y275124D01*
X422180Y275176D01*
X422146Y275239D01*
X422121Y275307D01*
X422089Y275347D01*
X422064Y275393D01*
X422012Y275443D01*
X421968Y275499D01*
X421924Y275527D01*
X421886Y275563D01*
X421821Y275593D01*
X421761Y275632D01*
X421710Y275644D01*
X421663Y275666D01*
X421592Y275674D01*
X421522Y275692D01*
X421470Y275688D01*
X421419Y275693D01*
X421348Y275678D01*
X421277Y275672D01*
X421229Y275652D01*
X421178Y275641D01*
X421117Y275604D01*
X421051Y275576D01*
X420995Y275531D01*
X420967Y275515D01*
X420952Y275497D01*
X420920Y275471D01*
X416204Y270755D01*
X416151Y270681D01*
X416091Y270612D01*
X416079Y270582D01*
X416060Y270556D01*
X416033Y270468D01*
X415999Y270384D01*
X415995Y270343D01*
X415988Y270320D01*
X415989Y270288D01*
X415981Y270217D01*
X415981Y257754D01*
X414522Y254233D01*
X411827Y251538D01*
X408306Y250079D01*
X404494Y250079D01*
G37*
%LPD*%
%LPC*%
G36*
X66090Y170339D02*
X66090Y170339D01*
X58680Y173409D01*
X53009Y179080D01*
X49939Y186490D01*
X49939Y194510D01*
X53009Y201920D01*
X58680Y207591D01*
X66090Y210661D01*
X74110Y210661D01*
X81520Y207591D01*
X87191Y201920D01*
X90261Y194510D01*
X90261Y186490D01*
X87191Y179080D01*
X81520Y173409D01*
X74110Y170339D01*
X66090Y170339D01*
G37*
%LPD*%
%LPC*%
G36*
X525890Y170339D02*
X525890Y170339D01*
X518480Y173409D01*
X512809Y179080D01*
X509739Y186490D01*
X509739Y194510D01*
X512809Y201920D01*
X518480Y207591D01*
X525890Y210661D01*
X533910Y210661D01*
X541320Y207591D01*
X546991Y201920D01*
X550061Y194510D01*
X550061Y186490D01*
X546991Y179080D01*
X541320Y173409D01*
X533910Y170339D01*
X525890Y170339D01*
G37*
%LPD*%
%LPC*%
G36*
X379094Y250079D02*
X379094Y250079D01*
X375573Y251538D01*
X372878Y254233D01*
X371419Y257754D01*
X371419Y275646D01*
X372878Y279167D01*
X375573Y281862D01*
X379088Y283318D01*
X379143Y283353D01*
X379204Y283378D01*
X379269Y283430D01*
X379297Y283448D01*
X379309Y283463D01*
X379335Y283483D01*
X379539Y283688D01*
X399064Y303213D01*
X399117Y303287D01*
X399177Y303356D01*
X399189Y303386D01*
X399208Y303412D01*
X399235Y303499D01*
X399269Y303584D01*
X399273Y303625D01*
X399280Y303648D01*
X399279Y303680D01*
X399287Y303751D01*
X399287Y306215D01*
X400370Y308829D01*
X402371Y310830D01*
X404985Y311913D01*
X407815Y311913D01*
X410429Y310830D01*
X412430Y308829D01*
X413513Y306215D01*
X413513Y303385D01*
X412430Y300771D01*
X410429Y298770D01*
X407815Y297687D01*
X405351Y297687D01*
X405261Y297673D01*
X405170Y297665D01*
X405140Y297653D01*
X405108Y297648D01*
X405028Y297605D01*
X404944Y297569D01*
X404912Y297543D01*
X404891Y297532D01*
X404869Y297509D01*
X404813Y297464D01*
X388357Y281009D01*
X388345Y280993D01*
X388330Y280980D01*
X388274Y280893D01*
X388214Y280809D01*
X388208Y280790D01*
X388197Y280773D01*
X388172Y280673D01*
X388141Y280574D01*
X388142Y280554D01*
X388137Y280535D01*
X388145Y280432D01*
X388148Y280328D01*
X388154Y280309D01*
X388156Y280289D01*
X388196Y280195D01*
X388232Y280097D01*
X388245Y280081D01*
X388252Y280063D01*
X388357Y279932D01*
X389122Y279167D01*
X390581Y275646D01*
X390581Y257754D01*
X389122Y254233D01*
X386427Y251538D01*
X382906Y250079D01*
X379094Y250079D01*
G37*
%LPD*%
%LPC*%
G36*
X670084Y365839D02*
X670084Y365839D01*
X664512Y368147D01*
X660247Y372412D01*
X657939Y377984D01*
X657939Y384016D01*
X660247Y389588D01*
X664512Y393853D01*
X670084Y396161D01*
X676116Y396161D01*
X681688Y393853D01*
X685953Y389588D01*
X688261Y384016D01*
X688261Y377984D01*
X685953Y372412D01*
X681688Y368147D01*
X676116Y365839D01*
X670084Y365839D01*
G37*
%LPD*%
%LPC*%
G36*
X47784Y365839D02*
X47784Y365839D01*
X42212Y368147D01*
X37947Y372412D01*
X35639Y377984D01*
X35639Y384016D01*
X37947Y389588D01*
X42212Y393853D01*
X47784Y396161D01*
X53816Y396161D01*
X59388Y393853D01*
X63653Y389588D01*
X65961Y384016D01*
X65961Y377984D01*
X63653Y372412D01*
X59388Y368147D01*
X53816Y365839D01*
X47784Y365839D01*
G37*
%LPD*%
%LPC*%
G36*
X670084Y22939D02*
X670084Y22939D01*
X664512Y25247D01*
X660247Y29512D01*
X657939Y35084D01*
X657939Y41116D01*
X660247Y46688D01*
X664512Y50953D01*
X670084Y53261D01*
X676116Y53261D01*
X681688Y50953D01*
X685953Y46688D01*
X688261Y41116D01*
X688261Y35084D01*
X685953Y29512D01*
X681688Y25247D01*
X676116Y22939D01*
X670084Y22939D01*
G37*
%LPD*%
%LPC*%
G36*
X123984Y22939D02*
X123984Y22939D01*
X118412Y25247D01*
X114147Y29512D01*
X111839Y35084D01*
X111839Y41116D01*
X114147Y46688D01*
X118412Y50953D01*
X123984Y53261D01*
X130016Y53261D01*
X135588Y50953D01*
X139853Y46688D01*
X142161Y41116D01*
X142161Y35084D01*
X139853Y29512D01*
X135588Y25247D01*
X130016Y22939D01*
X123984Y22939D01*
G37*
%LPD*%
%LPC*%
G36*
X429894Y97679D02*
X429894Y97679D01*
X426373Y99138D01*
X423678Y101833D01*
X422219Y105354D01*
X422219Y123246D01*
X423678Y126767D01*
X426373Y129462D01*
X429894Y130921D01*
X433706Y130921D01*
X437227Y129462D01*
X439922Y126767D01*
X441381Y123246D01*
X441381Y105354D01*
X439922Y101833D01*
X437227Y99138D01*
X433706Y97679D01*
X429894Y97679D01*
G37*
%LPD*%
%LPC*%
G36*
X404494Y97679D02*
X404494Y97679D01*
X400973Y99138D01*
X398278Y101833D01*
X396819Y105354D01*
X396819Y123246D01*
X398278Y126767D01*
X400973Y129462D01*
X404494Y130921D01*
X408306Y130921D01*
X411827Y129462D01*
X414522Y126767D01*
X415981Y123246D01*
X415981Y105354D01*
X414522Y101833D01*
X411827Y99138D01*
X408306Y97679D01*
X404494Y97679D01*
G37*
%LPD*%
%LPC*%
G36*
X353694Y250079D02*
X353694Y250079D01*
X350173Y251538D01*
X347478Y254233D01*
X346019Y257754D01*
X346019Y275646D01*
X347478Y279167D01*
X350173Y281862D01*
X353694Y283321D01*
X357506Y283321D01*
X361027Y281862D01*
X363722Y279167D01*
X365181Y275646D01*
X365181Y257754D01*
X363722Y254233D01*
X361027Y251538D01*
X357506Y250079D01*
X353694Y250079D01*
G37*
%LPD*%
%LPC*%
G36*
X379094Y97679D02*
X379094Y97679D01*
X375573Y99138D01*
X372878Y101833D01*
X371419Y105354D01*
X371419Y123246D01*
X372878Y126767D01*
X375573Y129462D01*
X379094Y130921D01*
X382906Y130921D01*
X386427Y129462D01*
X389122Y126767D01*
X390581Y123246D01*
X390581Y105354D01*
X389122Y101833D01*
X386427Y99138D01*
X382906Y97679D01*
X379094Y97679D01*
G37*
%LPD*%
%LPC*%
G36*
X277494Y97679D02*
X277494Y97679D01*
X273973Y99138D01*
X271278Y101833D01*
X269819Y105354D01*
X269819Y123246D01*
X271278Y126767D01*
X273973Y129462D01*
X277494Y130921D01*
X281306Y130921D01*
X284827Y129462D01*
X287522Y126767D01*
X288981Y123246D01*
X288981Y105354D01*
X287522Y101833D01*
X284827Y99138D01*
X281306Y97679D01*
X277494Y97679D01*
G37*
%LPD*%
%LPC*%
G36*
X480694Y250079D02*
X480694Y250079D01*
X477173Y251538D01*
X474478Y254233D01*
X473019Y257754D01*
X473019Y275646D01*
X474478Y279167D01*
X477173Y281862D01*
X480694Y283321D01*
X484506Y283321D01*
X488027Y281862D01*
X490722Y279167D01*
X492181Y275646D01*
X492181Y257754D01*
X490722Y254233D01*
X488027Y251538D01*
X484506Y250079D01*
X480694Y250079D01*
G37*
%LPD*%
%LPC*%
G36*
X252094Y97679D02*
X252094Y97679D01*
X248573Y99138D01*
X245878Y101833D01*
X244419Y105354D01*
X244419Y123246D01*
X245878Y126767D01*
X248573Y129462D01*
X252094Y130921D01*
X255906Y130921D01*
X259427Y129462D01*
X262122Y126767D01*
X263581Y123246D01*
X263581Y105354D01*
X262122Y101833D01*
X259427Y99138D01*
X255906Y97679D01*
X252094Y97679D01*
G37*
%LPD*%
%LPC*%
G36*
X328294Y250079D02*
X328294Y250079D01*
X324773Y251538D01*
X322078Y254233D01*
X320619Y257754D01*
X320619Y275646D01*
X322078Y279167D01*
X324773Y281862D01*
X328294Y283321D01*
X332106Y283321D01*
X335627Y281862D01*
X338322Y279167D01*
X339781Y275646D01*
X339781Y257754D01*
X338322Y254233D01*
X335627Y251538D01*
X332106Y250079D01*
X328294Y250079D01*
G37*
%LPD*%
%LPC*%
G36*
X277494Y250079D02*
X277494Y250079D01*
X273973Y251538D01*
X271278Y254233D01*
X269819Y257754D01*
X269819Y275646D01*
X271278Y279167D01*
X273973Y281862D01*
X277494Y283321D01*
X281306Y283321D01*
X284827Y281862D01*
X287522Y279167D01*
X288981Y275646D01*
X288981Y257754D01*
X287522Y254233D01*
X284827Y251538D01*
X281306Y250079D01*
X277494Y250079D01*
G37*
%LPD*%
%LPC*%
G36*
X252094Y250079D02*
X252094Y250079D01*
X248573Y251538D01*
X245878Y254233D01*
X244419Y257754D01*
X244419Y275646D01*
X245878Y279167D01*
X248573Y281862D01*
X252094Y283321D01*
X255906Y283321D01*
X259427Y281862D01*
X262122Y279167D01*
X263581Y275646D01*
X263581Y257754D01*
X262122Y254233D01*
X259427Y251538D01*
X255906Y250079D01*
X252094Y250079D01*
G37*
%LPD*%
%LPC*%
G36*
X226694Y250079D02*
X226694Y250079D01*
X223173Y251538D01*
X220478Y254233D01*
X219019Y257754D01*
X219019Y275646D01*
X220478Y279167D01*
X223173Y281862D01*
X226694Y283321D01*
X230506Y283321D01*
X234027Y281862D01*
X236722Y279167D01*
X238181Y275646D01*
X238181Y257754D01*
X236722Y254233D01*
X234027Y251538D01*
X230506Y250079D01*
X226694Y250079D01*
G37*
%LPD*%
%LPC*%
G36*
X201294Y250079D02*
X201294Y250079D01*
X197773Y251538D01*
X195078Y254233D01*
X193619Y257754D01*
X193619Y275646D01*
X195078Y279167D01*
X197773Y281862D01*
X201294Y283321D01*
X205106Y283321D01*
X208627Y281862D01*
X211322Y279167D01*
X212781Y275646D01*
X212781Y257754D01*
X211322Y254233D01*
X208627Y251538D01*
X205106Y250079D01*
X201294Y250079D01*
G37*
%LPD*%
%LPC*%
G36*
X175894Y250079D02*
X175894Y250079D01*
X172373Y251538D01*
X169678Y254233D01*
X168219Y257754D01*
X168219Y275646D01*
X169678Y279167D01*
X172373Y281862D01*
X175894Y283321D01*
X179706Y283321D01*
X183227Y281862D01*
X185922Y279167D01*
X187381Y275646D01*
X187381Y257754D01*
X185922Y254233D01*
X183227Y251538D01*
X179706Y250079D01*
X175894Y250079D01*
G37*
%LPD*%
%LPC*%
G36*
X150494Y250079D02*
X150494Y250079D01*
X146973Y251538D01*
X144278Y254233D01*
X142819Y257754D01*
X142819Y275646D01*
X144278Y279167D01*
X146973Y281862D01*
X150494Y283321D01*
X154306Y283321D01*
X157827Y281862D01*
X160522Y279167D01*
X161981Y275646D01*
X161981Y257754D01*
X160522Y254233D01*
X157827Y251538D01*
X154306Y250079D01*
X150494Y250079D01*
G37*
%LPD*%
%LPC*%
G36*
X226694Y97679D02*
X226694Y97679D01*
X223173Y99138D01*
X220478Y101833D01*
X219019Y105354D01*
X219019Y123246D01*
X220478Y126767D01*
X223173Y129462D01*
X226694Y130921D01*
X230506Y130921D01*
X234027Y129462D01*
X236722Y126767D01*
X238181Y123246D01*
X238181Y105354D01*
X236722Y101833D01*
X234027Y99138D01*
X230506Y97679D01*
X226694Y97679D01*
G37*
%LPD*%
%LPC*%
G36*
X201294Y97679D02*
X201294Y97679D01*
X197773Y99138D01*
X195078Y101833D01*
X193619Y105354D01*
X193619Y123246D01*
X195078Y126767D01*
X197773Y129462D01*
X201294Y130921D01*
X205106Y130921D01*
X208627Y129462D01*
X211322Y126767D01*
X212781Y123246D01*
X212781Y105354D01*
X211322Y101833D01*
X208627Y99138D01*
X205106Y97679D01*
X201294Y97679D01*
G37*
%LPD*%
%LPC*%
G36*
X175894Y97679D02*
X175894Y97679D01*
X172373Y99138D01*
X169678Y101833D01*
X168219Y105354D01*
X168219Y123246D01*
X169678Y126767D01*
X172373Y129462D01*
X175894Y130921D01*
X179706Y130921D01*
X183227Y129462D01*
X185922Y126767D01*
X187381Y123246D01*
X187381Y105354D01*
X185922Y101833D01*
X183227Y99138D01*
X179706Y97679D01*
X175894Y97679D01*
G37*
%LPD*%
%LPC*%
G36*
X353694Y97679D02*
X353694Y97679D01*
X350173Y99138D01*
X347478Y101833D01*
X346019Y105354D01*
X346019Y123246D01*
X347478Y126767D01*
X350173Y129462D01*
X353694Y130921D01*
X357506Y130921D01*
X361027Y129462D01*
X363722Y126767D01*
X365181Y123246D01*
X365181Y105354D01*
X363722Y101833D01*
X361027Y99138D01*
X357506Y97679D01*
X353694Y97679D01*
G37*
%LPD*%
%LPC*%
G36*
X480694Y97679D02*
X480694Y97679D01*
X477173Y99138D01*
X474478Y101833D01*
X473019Y105354D01*
X473019Y123246D01*
X474478Y126767D01*
X477173Y129462D01*
X480694Y130921D01*
X484506Y130921D01*
X488027Y129462D01*
X490722Y126767D01*
X492181Y123246D01*
X492181Y105354D01*
X490722Y101833D01*
X488027Y99138D01*
X484506Y97679D01*
X480694Y97679D01*
G37*
%LPD*%
%LPC*%
G36*
X455294Y97679D02*
X455294Y97679D01*
X451773Y99138D01*
X449078Y101833D01*
X447619Y105354D01*
X447619Y123246D01*
X449078Y126767D01*
X451773Y129462D01*
X455294Y130921D01*
X459106Y130921D01*
X462627Y129462D01*
X465322Y126767D01*
X466781Y123246D01*
X466781Y105354D01*
X465322Y101833D01*
X462627Y99138D01*
X459106Y97679D01*
X455294Y97679D01*
G37*
%LPD*%
%LPC*%
G36*
X306323Y268223D02*
X306323Y268223D01*
X306323Y283199D01*
X307043Y283085D01*
X308478Y282619D01*
X309821Y281934D01*
X311042Y281048D01*
X312108Y279982D01*
X312994Y278761D01*
X313679Y277418D01*
X314145Y275983D01*
X314381Y274494D01*
X314381Y268223D01*
X306323Y268223D01*
G37*
%LPD*%
%LPC*%
G36*
X331723Y115823D02*
X331723Y115823D01*
X331723Y130799D01*
X332443Y130685D01*
X333878Y130219D01*
X335221Y129534D01*
X336442Y128648D01*
X337508Y127582D01*
X338394Y126361D01*
X339079Y125018D01*
X339545Y123583D01*
X339781Y122094D01*
X339781Y115823D01*
X331723Y115823D01*
G37*
%LPD*%
%LPC*%
G36*
X331723Y112777D02*
X331723Y112777D01*
X339781Y112777D01*
X339781Y106506D01*
X339545Y105017D01*
X339079Y103582D01*
X338394Y102239D01*
X337508Y101018D01*
X336442Y99952D01*
X335221Y99066D01*
X333878Y98381D01*
X332443Y97915D01*
X331723Y97801D01*
X331723Y112777D01*
G37*
%LPD*%
%LPC*%
G36*
X306323Y265177D02*
X306323Y265177D01*
X314381Y265177D01*
X314381Y258906D01*
X314145Y257417D01*
X313679Y255982D01*
X312994Y254639D01*
X312108Y253418D01*
X311042Y252352D01*
X309821Y251466D01*
X308478Y250781D01*
X307043Y250315D01*
X306323Y250201D01*
X306323Y265177D01*
G37*
%LPD*%
%LPC*%
G36*
X295219Y268223D02*
X295219Y268223D01*
X295219Y274494D01*
X295455Y275983D01*
X295921Y277418D01*
X296606Y278761D01*
X297492Y279982D01*
X298558Y281048D01*
X299779Y281934D01*
X301122Y282619D01*
X302557Y283085D01*
X303277Y283199D01*
X303277Y268223D01*
X295219Y268223D01*
G37*
%LPD*%
%LPC*%
G36*
X320619Y115823D02*
X320619Y115823D01*
X320619Y122094D01*
X320855Y123583D01*
X321321Y125018D01*
X322006Y126361D01*
X322892Y127582D01*
X323958Y128648D01*
X325179Y129534D01*
X326522Y130219D01*
X327957Y130685D01*
X328677Y130799D01*
X328677Y115823D01*
X320619Y115823D01*
G37*
%LPD*%
%LPC*%
G36*
X302557Y250315D02*
X302557Y250315D01*
X301122Y250781D01*
X299779Y251466D01*
X298558Y252352D01*
X297492Y253418D01*
X296606Y254639D01*
X295921Y255982D01*
X295455Y257417D01*
X295219Y258906D01*
X295219Y265177D01*
X303277Y265177D01*
X303277Y250201D01*
X302557Y250315D01*
G37*
%LPD*%
%LPC*%
G36*
X327957Y97915D02*
X327957Y97915D01*
X326522Y98381D01*
X325179Y99066D01*
X323958Y99952D01*
X322892Y101018D01*
X322006Y102239D01*
X321321Y103582D01*
X320855Y105017D01*
X320619Y106506D01*
X320619Y112777D01*
X328677Y112777D01*
X328677Y97801D01*
X327957Y97915D01*
G37*
%LPD*%
%LPC*%
G36*
X649223Y255523D02*
X649223Y255523D01*
X649223Y264542D01*
X652067Y264542D01*
X658242Y258367D01*
X658242Y255523D01*
X649223Y255523D01*
G37*
%LPD*%
%LPC*%
G36*
X637158Y255523D02*
X637158Y255523D01*
X637158Y258367D01*
X643333Y264542D01*
X646177Y264542D01*
X646177Y255523D01*
X637158Y255523D01*
G37*
%LPD*%
%LPC*%
G36*
X649223Y243458D02*
X649223Y243458D01*
X649223Y252477D01*
X658242Y252477D01*
X658242Y249633D01*
X652067Y243458D01*
X649223Y243458D01*
G37*
%LPD*%
%LPC*%
G36*
X643333Y243458D02*
X643333Y243458D01*
X637158Y249633D01*
X637158Y252477D01*
X646177Y252477D01*
X646177Y243458D01*
X643333Y243458D01*
G37*
%LPD*%
%LPC*%
G36*
X623823Y179323D02*
X623823Y179323D01*
X623823Y187961D01*
X626509Y187961D01*
X632461Y182009D01*
X632461Y179323D01*
X623823Y179323D01*
G37*
%LPD*%
%LPC*%
G36*
X623823Y176277D02*
X623823Y176277D01*
X632461Y176277D01*
X632461Y173591D01*
X626509Y167639D01*
X623823Y167639D01*
X623823Y176277D01*
G37*
%LPD*%
%LPC*%
G36*
X612139Y179323D02*
X612139Y179323D01*
X612139Y182009D01*
X618091Y187961D01*
X620777Y187961D01*
X620777Y179323D01*
X612139Y179323D01*
G37*
%LPD*%
%LPC*%
G36*
X618091Y167639D02*
X618091Y167639D01*
X612139Y173591D01*
X612139Y176277D01*
X620777Y176277D01*
X620777Y167639D01*
X618091Y167639D01*
G37*
%LPD*%
%LPC*%
G36*
X645293Y357123D02*
X645293Y357123D01*
X645293Y363141D01*
X647802Y363141D01*
X648830Y362865D01*
X649751Y362333D01*
X650503Y361581D01*
X651035Y360660D01*
X651311Y359632D01*
X651311Y357123D01*
X645293Y357123D01*
G37*
%LPD*%
%LPC*%
G36*
X636229Y357123D02*
X636229Y357123D01*
X636229Y359632D01*
X636505Y360660D01*
X637037Y361581D01*
X637789Y362333D01*
X638710Y362865D01*
X639738Y363141D01*
X642247Y363141D01*
X642247Y357123D01*
X636229Y357123D01*
G37*
%LPD*%
%LPC*%
G36*
X645293Y348059D02*
X645293Y348059D01*
X645293Y354077D01*
X651311Y354077D01*
X651311Y351568D01*
X651035Y350540D01*
X650503Y349619D01*
X649751Y348867D01*
X648830Y348335D01*
X647802Y348059D01*
X645293Y348059D01*
G37*
%LPD*%
%LPC*%
G36*
X639738Y348059D02*
X639738Y348059D01*
X638710Y348335D01*
X637789Y348867D01*
X637037Y349619D01*
X636505Y350540D01*
X636229Y351568D01*
X636229Y354077D01*
X642247Y354077D01*
X642247Y348059D01*
X639738Y348059D01*
G37*
%LPD*%
%LPC*%
G36*
X304799Y266699D02*
X304799Y266699D01*
X304799Y266701D01*
X304801Y266701D01*
X304801Y266699D01*
X304799Y266699D01*
G37*
%LPD*%
%LPC*%
G36*
X647699Y253999D02*
X647699Y253999D01*
X647699Y254001D01*
X647701Y254001D01*
X647701Y253999D01*
X647699Y253999D01*
G37*
%LPD*%
%LPC*%
G36*
X622299Y177799D02*
X622299Y177799D01*
X622299Y177801D01*
X622301Y177801D01*
X622301Y177799D01*
X622299Y177799D01*
G37*
%LPD*%
%LPC*%
G36*
X330199Y114299D02*
X330199Y114299D01*
X330199Y114301D01*
X330201Y114301D01*
X330201Y114299D01*
X330199Y114299D01*
G37*
%LPD*%
%LPC*%
G36*
X643769Y355599D02*
X643769Y355599D01*
X643769Y355601D01*
X643771Y355601D01*
X643771Y355599D01*
X643769Y355599D01*
G37*
%LPD*%
D10*
X647700Y254000D03*
D11*
X622300Y254000D03*
D12*
X640270Y352100D02*
X640270Y359100D01*
X647270Y359100D01*
X647270Y352100D01*
X640270Y352100D01*
X640270Y354950D02*
X647270Y354950D01*
X647270Y357800D02*
X640270Y357800D01*
X622730Y359100D02*
X622730Y352100D01*
X622730Y359100D02*
X629730Y359100D01*
X629730Y352100D01*
X622730Y352100D01*
X622730Y354950D02*
X629730Y354950D01*
X629730Y357800D02*
X622730Y357800D01*
D13*
X647700Y127000D03*
X622300Y127000D03*
X647700Y152400D03*
X622300Y152400D03*
X647700Y177800D03*
X622300Y177800D03*
D14*
X626500Y63500D03*
X643500Y63500D03*
X626500Y330200D03*
X643500Y330200D03*
D15*
X152400Y121340D02*
X152400Y107260D01*
X177800Y107260D02*
X177800Y121340D01*
X203200Y121340D02*
X203200Y107260D01*
X228600Y107260D02*
X228600Y121340D01*
X254000Y121340D02*
X254000Y107260D01*
X279400Y107260D02*
X279400Y121340D01*
X304800Y121340D02*
X304800Y107260D01*
X330200Y107260D02*
X330200Y121340D01*
X355600Y121340D02*
X355600Y107260D01*
X381000Y107260D02*
X381000Y121340D01*
X406400Y121340D02*
X406400Y107260D01*
X431800Y107260D02*
X431800Y121340D01*
X457200Y121340D02*
X457200Y107260D01*
X482600Y107260D02*
X482600Y121340D01*
X482600Y259660D02*
X482600Y273740D01*
X457200Y273740D02*
X457200Y259660D01*
X431800Y259660D02*
X431800Y273740D01*
X406400Y273740D02*
X406400Y259660D01*
X381000Y259660D02*
X381000Y273740D01*
X355600Y273740D02*
X355600Y259660D01*
X330200Y259660D02*
X330200Y273740D01*
X304800Y273740D02*
X304800Y259660D01*
X279400Y259660D02*
X279400Y273740D01*
X254000Y273740D02*
X254000Y259660D01*
X228600Y259660D02*
X228600Y273740D01*
X203200Y273740D02*
X203200Y259660D01*
X177800Y259660D02*
X177800Y273740D01*
X152400Y273740D02*
X152400Y259660D01*
D16*
X622300Y254000D02*
X622300Y309000D01*
X643500Y330200D01*
X304800Y114300D02*
X304800Y76200D01*
X317500Y63500D01*
X571500Y177800D02*
X571500Y203200D01*
X571500Y177800D02*
X622300Y127000D01*
X571500Y203200D02*
X622300Y254000D01*
X622300Y127000D02*
X626500Y122800D01*
X626500Y63500D01*
X317500Y63500D01*
X647700Y152400D02*
X685800Y152400D01*
D17*
X685800Y152400D03*
X406400Y304800D03*
D16*
X381000Y279400D01*
X381000Y266700D01*
X647700Y127000D02*
X685800Y127000D01*
D17*
X685800Y127000D03*
X419100Y292100D03*
D16*
X419100Y279400D01*
X406400Y266700D01*
X584200Y190500D02*
X622300Y152400D01*
D17*
X584200Y190500D03*
X457200Y317500D03*
D16*
X457200Y292100D01*
X431800Y266700D01*
X635000Y165100D02*
X647700Y177800D01*
X152400Y114300D02*
X152400Y63500D01*
X165100Y50800D01*
X643500Y63500D02*
X643500Y114676D01*
X636016Y164084D02*
X635000Y165100D01*
X636016Y122160D02*
X643500Y114676D01*
X636016Y122160D02*
X636016Y164084D01*
X630800Y50800D02*
X165100Y50800D01*
X630800Y50800D02*
X643500Y63500D01*
X626500Y330200D02*
X626230Y330470D01*
X626230Y355600D01*
M02*
