G04 EAGLE Gerber RS-274X export*
G75*
%MOMM*%
%FSLAX34Y34*%
%LPD*%
%INBottom Copper*%
%IPPOS*%
%AMOC8*
5,1,8,0,0,1.08239X$1,22.5*%
G01*
%ADD10P,1.732040X8X22.500000*%
%ADD11C,1.600200*%
%ADD12P,1.649562X8X112.500000*%
%ADD13C,1.408000*%
%ADD14C,0.914400*%
%ADD15C,0.304800*%


D10*
X647700Y254000D03*
D11*
X622300Y254000D03*
D12*
X647700Y127000D03*
X622300Y127000D03*
X647700Y152400D03*
X622300Y152400D03*
X647700Y177800D03*
X622300Y177800D03*
D13*
X152400Y121340D02*
X152400Y107260D01*
X177800Y107260D02*
X177800Y121340D01*
X203200Y121340D02*
X203200Y107260D01*
X228600Y107260D02*
X228600Y121340D01*
X254000Y121340D02*
X254000Y107260D01*
X279400Y107260D02*
X279400Y121340D01*
X304800Y121340D02*
X304800Y107260D01*
X330200Y107260D02*
X330200Y121340D01*
X355600Y121340D02*
X355600Y107260D01*
X381000Y107260D02*
X381000Y121340D01*
X406400Y121340D02*
X406400Y107260D01*
X431800Y107260D02*
X431800Y121340D01*
X457200Y121340D02*
X457200Y107260D01*
X482600Y107260D02*
X482600Y121340D01*
X482600Y259660D02*
X482600Y273740D01*
X457200Y273740D02*
X457200Y259660D01*
X431800Y259660D02*
X431800Y273740D01*
X406400Y273740D02*
X406400Y259660D01*
X381000Y259660D02*
X381000Y273740D01*
X355600Y273740D02*
X355600Y259660D01*
X330200Y259660D02*
X330200Y273740D01*
X304800Y273740D02*
X304800Y259660D01*
X279400Y259660D02*
X279400Y273740D01*
X254000Y273740D02*
X254000Y259660D01*
X228600Y259660D02*
X228600Y273740D01*
X203200Y273740D02*
X203200Y259660D01*
X177800Y259660D02*
X177800Y273740D01*
X152400Y273740D02*
X152400Y259660D01*
D14*
X685800Y152400D03*
D15*
X673100Y165100D01*
X584200Y165100D01*
X508000Y304800D02*
X406400Y304800D01*
D14*
X406400Y304800D03*
D15*
X508000Y304800D02*
X558800Y254000D01*
X558800Y190500D01*
X584200Y165100D01*
D14*
X685800Y127000D03*
D15*
X673100Y139700D01*
X508000Y292100D02*
X419100Y292100D01*
D14*
X419100Y292100D03*
D15*
X553212Y246888D02*
X553212Y188185D01*
X558800Y182597D02*
X558800Y165100D01*
X558800Y182597D02*
X553212Y188185D01*
X558800Y165100D02*
X584200Y139700D01*
X553212Y246888D02*
X508000Y292100D01*
X584200Y139700D02*
X673100Y139700D01*
D14*
X584200Y190500D03*
D15*
X520700Y317500D02*
X457200Y317500D01*
D14*
X457200Y317500D03*
D15*
X571500Y203200D02*
X584200Y190500D01*
X571500Y203200D02*
X571500Y266700D01*
X520700Y317500D01*
M02*
