G04 EAGLE Gerber RS-274X export*
G75*
%MOMM*%
%FSLAX34Y34*%
%LPD*%
%IN*%
%IPPOS*%
%AMOC8*
5,1,8,0,0,1.08239X$1,22.5*%
G01*
%ADD10C,0.254000*%


D10*
X0Y0D02*
X707900Y0D01*
X707900Y419000D01*
X0Y419000D01*
X0Y0D01*
X55800Y380719D02*
X55737Y380161D01*
X55612Y379614D01*
X55427Y379084D01*
X55183Y378578D01*
X54884Y378102D01*
X54534Y377663D01*
X54137Y377266D01*
X53698Y376916D01*
X53222Y376617D01*
X52716Y376373D01*
X52186Y376188D01*
X51639Y376063D01*
X51081Y376000D01*
X50519Y376000D01*
X49961Y376063D01*
X49414Y376188D01*
X48884Y376373D01*
X48378Y376617D01*
X47902Y376916D01*
X47463Y377266D01*
X47066Y377663D01*
X46716Y378102D01*
X46417Y378578D01*
X46173Y379084D01*
X45988Y379614D01*
X45863Y380161D01*
X45800Y380719D01*
X45800Y381281D01*
X45863Y381839D01*
X45988Y382386D01*
X46173Y382916D01*
X46417Y383422D01*
X46716Y383898D01*
X47066Y384337D01*
X47463Y384734D01*
X47902Y385084D01*
X48378Y385383D01*
X48884Y385627D01*
X49414Y385812D01*
X49961Y385937D01*
X50519Y386000D01*
X51081Y386000D01*
X51639Y385937D01*
X52186Y385812D01*
X52716Y385627D01*
X53222Y385383D01*
X53698Y385084D01*
X54137Y384734D01*
X54534Y384337D01*
X54884Y383898D01*
X55183Y383422D01*
X55427Y382916D01*
X55612Y382386D01*
X55737Y381839D01*
X55800Y381281D01*
X55800Y380719D01*
X132000Y37819D02*
X131937Y37261D01*
X131812Y36714D01*
X131627Y36184D01*
X131383Y35678D01*
X131084Y35202D01*
X130734Y34763D01*
X130337Y34366D01*
X129898Y34016D01*
X129422Y33717D01*
X128916Y33473D01*
X128386Y33288D01*
X127839Y33163D01*
X127281Y33100D01*
X126719Y33100D01*
X126161Y33163D01*
X125614Y33288D01*
X125084Y33473D01*
X124578Y33717D01*
X124102Y34016D01*
X123663Y34366D01*
X123266Y34763D01*
X122916Y35202D01*
X122617Y35678D01*
X122373Y36184D01*
X122188Y36714D01*
X122063Y37261D01*
X122000Y37819D01*
X122000Y38381D01*
X122063Y38939D01*
X122188Y39486D01*
X122373Y40016D01*
X122617Y40522D01*
X122916Y40998D01*
X123266Y41437D01*
X123663Y41834D01*
X124102Y42184D01*
X124578Y42483D01*
X125084Y42727D01*
X125614Y42912D01*
X126161Y43037D01*
X126719Y43100D01*
X127281Y43100D01*
X127839Y43037D01*
X128386Y42912D01*
X128916Y42727D01*
X129422Y42483D01*
X129898Y42184D01*
X130337Y41834D01*
X130734Y41437D01*
X131084Y40998D01*
X131383Y40522D01*
X131627Y40016D01*
X131812Y39486D01*
X131937Y38939D01*
X132000Y38381D01*
X132000Y37819D01*
X678100Y37819D02*
X678037Y37261D01*
X677912Y36714D01*
X677727Y36184D01*
X677483Y35678D01*
X677184Y35202D01*
X676834Y34763D01*
X676437Y34366D01*
X675998Y34016D01*
X675522Y33717D01*
X675016Y33473D01*
X674486Y33288D01*
X673939Y33163D01*
X673381Y33100D01*
X672819Y33100D01*
X672261Y33163D01*
X671714Y33288D01*
X671184Y33473D01*
X670678Y33717D01*
X670202Y34016D01*
X669763Y34366D01*
X669366Y34763D01*
X669016Y35202D01*
X668717Y35678D01*
X668473Y36184D01*
X668288Y36714D01*
X668163Y37261D01*
X668100Y37819D01*
X668100Y38381D01*
X668163Y38939D01*
X668288Y39486D01*
X668473Y40016D01*
X668717Y40522D01*
X669016Y40998D01*
X669366Y41437D01*
X669763Y41834D01*
X670202Y42184D01*
X670678Y42483D01*
X671184Y42727D01*
X671714Y42912D01*
X672261Y43037D01*
X672819Y43100D01*
X673381Y43100D01*
X673939Y43037D01*
X674486Y42912D01*
X675016Y42727D01*
X675522Y42483D01*
X675998Y42184D01*
X676437Y41834D01*
X676834Y41437D01*
X677184Y40998D01*
X677483Y40522D01*
X677727Y40016D01*
X677912Y39486D01*
X678037Y38939D01*
X678100Y38381D01*
X678100Y37819D01*
X678100Y380719D02*
X678037Y380161D01*
X677912Y379614D01*
X677727Y379084D01*
X677483Y378578D01*
X677184Y378102D01*
X676834Y377663D01*
X676437Y377266D01*
X675998Y376916D01*
X675522Y376617D01*
X675016Y376373D01*
X674486Y376188D01*
X673939Y376063D01*
X673381Y376000D01*
X672819Y376000D01*
X672261Y376063D01*
X671714Y376188D01*
X671184Y376373D01*
X670678Y376617D01*
X670202Y376916D01*
X669763Y377266D01*
X669366Y377663D01*
X669016Y378102D01*
X668717Y378578D01*
X668473Y379084D01*
X668288Y379614D01*
X668163Y380161D01*
X668100Y380719D01*
X668100Y381281D01*
X668163Y381839D01*
X668288Y382386D01*
X668473Y382916D01*
X668717Y383422D01*
X669016Y383898D01*
X669366Y384337D01*
X669763Y384734D01*
X670202Y385084D01*
X670678Y385383D01*
X671184Y385627D01*
X671714Y385812D01*
X672261Y385937D01*
X672819Y386000D01*
X673381Y386000D01*
X673939Y385937D01*
X674486Y385812D01*
X675016Y385627D01*
X675522Y385383D01*
X675998Y385084D01*
X676437Y384734D01*
X676834Y384337D01*
X677184Y383898D01*
X677483Y383422D01*
X677727Y382916D01*
X677912Y382386D01*
X678037Y381839D01*
X678100Y381281D01*
X678100Y380719D01*
X539900Y190063D02*
X539824Y189194D01*
X539672Y188334D01*
X539446Y187490D01*
X539148Y186670D01*
X538779Y185878D01*
X538342Y185122D01*
X537841Y184407D01*
X537280Y183738D01*
X536662Y183120D01*
X535993Y182559D01*
X535278Y182058D01*
X534522Y181621D01*
X533730Y181252D01*
X532910Y180954D01*
X532066Y180728D01*
X531207Y180576D01*
X530337Y180500D01*
X529463Y180500D01*
X528594Y180576D01*
X527734Y180728D01*
X526890Y180954D01*
X526070Y181252D01*
X525278Y181621D01*
X524522Y182058D01*
X523807Y182559D01*
X523138Y183120D01*
X522520Y183738D01*
X521959Y184407D01*
X521458Y185122D01*
X521021Y185878D01*
X520652Y186670D01*
X520354Y187490D01*
X520128Y188334D01*
X519976Y189194D01*
X519900Y190063D01*
X519900Y190937D01*
X519976Y191807D01*
X520128Y192666D01*
X520354Y193510D01*
X520652Y194330D01*
X521021Y195122D01*
X521458Y195878D01*
X521959Y196593D01*
X522520Y197262D01*
X523138Y197880D01*
X523807Y198441D01*
X524522Y198942D01*
X525278Y199379D01*
X526070Y199748D01*
X526890Y200046D01*
X527734Y200272D01*
X528594Y200424D01*
X529463Y200500D01*
X530337Y200500D01*
X531207Y200424D01*
X532066Y200272D01*
X532910Y200046D01*
X533730Y199748D01*
X534522Y199379D01*
X535278Y198942D01*
X535993Y198441D01*
X536662Y197880D01*
X537280Y197262D01*
X537841Y196593D01*
X538342Y195878D01*
X538779Y195122D01*
X539148Y194330D01*
X539446Y193510D01*
X539672Y192666D01*
X539824Y191807D01*
X539900Y190937D01*
X539900Y190063D01*
X80100Y190063D02*
X80024Y189194D01*
X79872Y188334D01*
X79646Y187490D01*
X79348Y186670D01*
X78979Y185878D01*
X78542Y185122D01*
X78041Y184407D01*
X77480Y183738D01*
X76862Y183120D01*
X76193Y182559D01*
X75478Y182058D01*
X74722Y181621D01*
X73930Y181252D01*
X73110Y180954D01*
X72266Y180728D01*
X71407Y180576D01*
X70537Y180500D01*
X69663Y180500D01*
X68794Y180576D01*
X67934Y180728D01*
X67090Y180954D01*
X66270Y181252D01*
X65478Y181621D01*
X64722Y182058D01*
X64007Y182559D01*
X63338Y183120D01*
X62720Y183738D01*
X62159Y184407D01*
X61658Y185122D01*
X61221Y185878D01*
X60852Y186670D01*
X60554Y187490D01*
X60328Y188334D01*
X60176Y189194D01*
X60100Y190063D01*
X60100Y190937D01*
X60176Y191807D01*
X60328Y192666D01*
X60554Y193510D01*
X60852Y194330D01*
X61221Y195122D01*
X61658Y195878D01*
X62159Y196593D01*
X62720Y197262D01*
X63338Y197880D01*
X64007Y198441D01*
X64722Y198942D01*
X65478Y199379D01*
X66270Y199748D01*
X67090Y200046D01*
X67934Y200272D01*
X68794Y200424D01*
X69663Y200500D01*
X70537Y200500D01*
X71407Y200424D01*
X72266Y200272D01*
X73110Y200046D01*
X73930Y199748D01*
X74722Y199379D01*
X75478Y198942D01*
X76193Y198441D01*
X76862Y197880D01*
X77480Y197262D01*
X78041Y196593D01*
X78542Y195878D01*
X78979Y195122D01*
X79348Y194330D01*
X79646Y193510D01*
X79872Y192666D01*
X80024Y191807D01*
X80100Y190937D01*
X80100Y190063D01*
M02*
