G04 EAGLE Gerber RS-274X export*
G75*
%MOMM*%
%FSLAX34Y34*%
%LPD*%
%INSilkscreen Top*%
%IPPOS*%
%AMOC8*
5,1,8,0,0,1.08239X$1,22.5*%
G01*
%ADD10C,0.152400*%
%ADD11C,0.101600*%
%ADD12C,0.127000*%
%ADD13C,0.203200*%
%ADD14C,0.076200*%


D10*
X153162Y370332D02*
X158581Y386588D01*
X163999Y370332D01*
X162645Y374396D02*
X154517Y374396D01*
X168793Y386588D02*
X174212Y370332D01*
X179631Y386588D01*
X185940Y386588D02*
X185940Y370332D01*
X185940Y386588D02*
X190456Y386588D01*
X190589Y386586D01*
X190721Y386580D01*
X190853Y386570D01*
X190985Y386557D01*
X191117Y386539D01*
X191247Y386518D01*
X191378Y386493D01*
X191507Y386464D01*
X191635Y386431D01*
X191763Y386395D01*
X191889Y386355D01*
X192014Y386311D01*
X192138Y386263D01*
X192260Y386212D01*
X192381Y386157D01*
X192500Y386099D01*
X192618Y386037D01*
X192733Y385972D01*
X192847Y385903D01*
X192958Y385832D01*
X193067Y385756D01*
X193174Y385678D01*
X193279Y385597D01*
X193381Y385512D01*
X193481Y385425D01*
X193578Y385335D01*
X193673Y385242D01*
X193764Y385146D01*
X193853Y385048D01*
X193939Y384947D01*
X194022Y384843D01*
X194102Y384737D01*
X194178Y384629D01*
X194252Y384519D01*
X194322Y384406D01*
X194389Y384292D01*
X194452Y384175D01*
X194512Y384057D01*
X194569Y383937D01*
X194622Y383815D01*
X194671Y383692D01*
X194717Y383568D01*
X194759Y383442D01*
X194797Y383315D01*
X194832Y383187D01*
X194863Y383058D01*
X194890Y382929D01*
X194913Y382798D01*
X194933Y382667D01*
X194948Y382535D01*
X194960Y382403D01*
X194968Y382271D01*
X194972Y382138D01*
X194972Y382006D01*
X194968Y381873D01*
X194960Y381741D01*
X194948Y381609D01*
X194933Y381477D01*
X194913Y381346D01*
X194890Y381215D01*
X194863Y381086D01*
X194832Y380957D01*
X194797Y380829D01*
X194759Y380702D01*
X194717Y380576D01*
X194671Y380452D01*
X194622Y380329D01*
X194569Y380207D01*
X194512Y380087D01*
X194452Y379969D01*
X194389Y379852D01*
X194322Y379738D01*
X194252Y379625D01*
X194178Y379515D01*
X194102Y379407D01*
X194022Y379301D01*
X193939Y379197D01*
X193853Y379096D01*
X193764Y378998D01*
X193673Y378902D01*
X193578Y378809D01*
X193481Y378719D01*
X193381Y378632D01*
X193279Y378547D01*
X193174Y378466D01*
X193067Y378388D01*
X192958Y378312D01*
X192847Y378241D01*
X192733Y378172D01*
X192618Y378107D01*
X192500Y378045D01*
X192381Y377987D01*
X192260Y377932D01*
X192138Y377881D01*
X192014Y377833D01*
X191889Y377789D01*
X191763Y377749D01*
X191635Y377713D01*
X191507Y377680D01*
X191378Y377651D01*
X191247Y377626D01*
X191117Y377605D01*
X190985Y377587D01*
X190853Y377574D01*
X190721Y377564D01*
X190589Y377558D01*
X190456Y377556D01*
X190456Y377557D02*
X185940Y377557D01*
X191359Y377557D02*
X194971Y370332D01*
X210549Y370332D02*
X210549Y386588D01*
X215064Y386588D01*
X215197Y386586D01*
X215329Y386580D01*
X215461Y386570D01*
X215593Y386557D01*
X215725Y386539D01*
X215855Y386518D01*
X215986Y386493D01*
X216115Y386464D01*
X216243Y386431D01*
X216371Y386395D01*
X216497Y386355D01*
X216622Y386311D01*
X216746Y386263D01*
X216868Y386212D01*
X216989Y386157D01*
X217108Y386099D01*
X217226Y386037D01*
X217341Y385972D01*
X217455Y385903D01*
X217566Y385832D01*
X217675Y385756D01*
X217782Y385678D01*
X217887Y385597D01*
X217989Y385512D01*
X218089Y385425D01*
X218186Y385335D01*
X218281Y385242D01*
X218372Y385146D01*
X218461Y385048D01*
X218547Y384947D01*
X218630Y384843D01*
X218710Y384737D01*
X218786Y384629D01*
X218860Y384519D01*
X218930Y384406D01*
X218997Y384292D01*
X219060Y384175D01*
X219120Y384057D01*
X219177Y383937D01*
X219230Y383815D01*
X219279Y383692D01*
X219325Y383568D01*
X219367Y383442D01*
X219405Y383315D01*
X219440Y383187D01*
X219471Y383058D01*
X219498Y382929D01*
X219521Y382798D01*
X219541Y382667D01*
X219556Y382535D01*
X219568Y382403D01*
X219576Y382271D01*
X219580Y382138D01*
X219580Y382006D01*
X219576Y381873D01*
X219568Y381741D01*
X219556Y381609D01*
X219541Y381477D01*
X219521Y381346D01*
X219498Y381215D01*
X219471Y381086D01*
X219440Y380957D01*
X219405Y380829D01*
X219367Y380702D01*
X219325Y380576D01*
X219279Y380452D01*
X219230Y380329D01*
X219177Y380207D01*
X219120Y380087D01*
X219060Y379969D01*
X218997Y379852D01*
X218930Y379738D01*
X218860Y379625D01*
X218786Y379515D01*
X218710Y379407D01*
X218630Y379301D01*
X218547Y379197D01*
X218461Y379096D01*
X218372Y378998D01*
X218281Y378902D01*
X218186Y378809D01*
X218089Y378719D01*
X217989Y378632D01*
X217887Y378547D01*
X217782Y378466D01*
X217675Y378388D01*
X217566Y378312D01*
X217455Y378241D01*
X217341Y378172D01*
X217226Y378107D01*
X217108Y378045D01*
X216989Y377987D01*
X216868Y377932D01*
X216746Y377881D01*
X216622Y377833D01*
X216497Y377789D01*
X216371Y377749D01*
X216243Y377713D01*
X216115Y377680D01*
X215986Y377651D01*
X215855Y377626D01*
X215725Y377605D01*
X215593Y377587D01*
X215461Y377574D01*
X215329Y377564D01*
X215197Y377558D01*
X215064Y377556D01*
X215064Y377557D02*
X210549Y377557D01*
X225915Y381169D02*
X225915Y370332D01*
X225915Y381169D02*
X231333Y381169D01*
X231333Y379363D01*
X236251Y377557D02*
X236251Y373944D01*
X236251Y377557D02*
X236253Y377676D01*
X236259Y377796D01*
X236269Y377915D01*
X236283Y378033D01*
X236300Y378152D01*
X236322Y378269D01*
X236347Y378386D01*
X236377Y378501D01*
X236410Y378616D01*
X236447Y378730D01*
X236487Y378842D01*
X236532Y378953D01*
X236580Y379062D01*
X236631Y379170D01*
X236686Y379276D01*
X236745Y379380D01*
X236807Y379482D01*
X236872Y379582D01*
X236941Y379680D01*
X237013Y379776D01*
X237088Y379869D01*
X237165Y379959D01*
X237246Y380047D01*
X237330Y380132D01*
X237417Y380214D01*
X237506Y380294D01*
X237598Y380370D01*
X237692Y380444D01*
X237789Y380514D01*
X237887Y380581D01*
X237988Y380645D01*
X238092Y380705D01*
X238197Y380762D01*
X238304Y380815D01*
X238412Y380865D01*
X238522Y380911D01*
X238634Y380953D01*
X238747Y380992D01*
X238861Y381027D01*
X238976Y381058D01*
X239093Y381086D01*
X239210Y381109D01*
X239327Y381129D01*
X239446Y381145D01*
X239565Y381157D01*
X239684Y381165D01*
X239803Y381169D01*
X239923Y381169D01*
X240042Y381165D01*
X240161Y381157D01*
X240280Y381145D01*
X240399Y381129D01*
X240516Y381109D01*
X240633Y381086D01*
X240750Y381058D01*
X240865Y381027D01*
X240979Y380992D01*
X241092Y380953D01*
X241204Y380911D01*
X241314Y380865D01*
X241422Y380815D01*
X241529Y380762D01*
X241634Y380705D01*
X241738Y380645D01*
X241839Y380581D01*
X241937Y380514D01*
X242034Y380444D01*
X242128Y380370D01*
X242220Y380294D01*
X242309Y380214D01*
X242396Y380132D01*
X242480Y380047D01*
X242561Y379959D01*
X242638Y379869D01*
X242713Y379776D01*
X242785Y379680D01*
X242854Y379582D01*
X242919Y379482D01*
X242981Y379380D01*
X243040Y379276D01*
X243095Y379170D01*
X243146Y379062D01*
X243194Y378953D01*
X243239Y378842D01*
X243279Y378730D01*
X243316Y378616D01*
X243349Y378501D01*
X243379Y378386D01*
X243404Y378269D01*
X243426Y378152D01*
X243443Y378033D01*
X243457Y377915D01*
X243467Y377796D01*
X243473Y377676D01*
X243475Y377557D01*
X243476Y377557D02*
X243476Y373944D01*
X243475Y373944D02*
X243473Y373825D01*
X243467Y373705D01*
X243457Y373586D01*
X243443Y373468D01*
X243426Y373349D01*
X243404Y373232D01*
X243379Y373115D01*
X243349Y373000D01*
X243316Y372885D01*
X243279Y372771D01*
X243239Y372659D01*
X243194Y372548D01*
X243146Y372439D01*
X243095Y372331D01*
X243040Y372225D01*
X242981Y372121D01*
X242919Y372019D01*
X242854Y371919D01*
X242785Y371821D01*
X242713Y371725D01*
X242638Y371632D01*
X242561Y371542D01*
X242480Y371454D01*
X242396Y371369D01*
X242309Y371287D01*
X242220Y371207D01*
X242128Y371131D01*
X242034Y371057D01*
X241937Y370987D01*
X241839Y370920D01*
X241738Y370856D01*
X241634Y370796D01*
X241529Y370739D01*
X241422Y370686D01*
X241314Y370636D01*
X241204Y370590D01*
X241092Y370548D01*
X240979Y370509D01*
X240865Y370474D01*
X240750Y370443D01*
X240633Y370415D01*
X240516Y370392D01*
X240399Y370372D01*
X240280Y370356D01*
X240161Y370344D01*
X240042Y370336D01*
X239923Y370332D01*
X239803Y370332D01*
X239684Y370336D01*
X239565Y370344D01*
X239446Y370356D01*
X239327Y370372D01*
X239210Y370392D01*
X239093Y370415D01*
X238976Y370443D01*
X238861Y370474D01*
X238747Y370509D01*
X238634Y370548D01*
X238522Y370590D01*
X238412Y370636D01*
X238304Y370686D01*
X238197Y370739D01*
X238092Y370796D01*
X237988Y370856D01*
X237887Y370920D01*
X237789Y370987D01*
X237692Y371057D01*
X237598Y371131D01*
X237506Y371207D01*
X237417Y371287D01*
X237330Y371369D01*
X237246Y371454D01*
X237165Y371542D01*
X237088Y371632D01*
X237013Y371725D01*
X236941Y371821D01*
X236872Y371919D01*
X236807Y372019D01*
X236745Y372121D01*
X236686Y372225D01*
X236631Y372331D01*
X236580Y372439D01*
X236532Y372548D01*
X236487Y372659D01*
X236447Y372771D01*
X236410Y372885D01*
X236377Y373000D01*
X236347Y373115D01*
X236322Y373232D01*
X236300Y373349D01*
X236283Y373468D01*
X236269Y373586D01*
X236259Y373705D01*
X236253Y373825D01*
X236251Y373944D01*
X252434Y370332D02*
X256949Y370332D01*
X252434Y370332D02*
X252333Y370334D01*
X252232Y370340D01*
X252131Y370349D01*
X252030Y370362D01*
X251930Y370379D01*
X251831Y370400D01*
X251733Y370424D01*
X251636Y370452D01*
X251539Y370484D01*
X251444Y370519D01*
X251351Y370558D01*
X251259Y370600D01*
X251168Y370646D01*
X251080Y370695D01*
X250993Y370747D01*
X250908Y370803D01*
X250825Y370861D01*
X250745Y370923D01*
X250667Y370988D01*
X250591Y371055D01*
X250518Y371125D01*
X250448Y371198D01*
X250381Y371274D01*
X250316Y371352D01*
X250254Y371432D01*
X250196Y371515D01*
X250140Y371600D01*
X250088Y371687D01*
X250039Y371775D01*
X249993Y371866D01*
X249951Y371958D01*
X249912Y372051D01*
X249877Y372146D01*
X249845Y372243D01*
X249817Y372340D01*
X249793Y372438D01*
X249772Y372537D01*
X249755Y372637D01*
X249742Y372738D01*
X249733Y372839D01*
X249727Y372940D01*
X249725Y373041D01*
X249724Y373041D02*
X249724Y378460D01*
X249725Y378460D02*
X249727Y378561D01*
X249733Y378662D01*
X249742Y378763D01*
X249755Y378864D01*
X249772Y378964D01*
X249793Y379063D01*
X249817Y379161D01*
X249845Y379258D01*
X249877Y379355D01*
X249912Y379450D01*
X249951Y379543D01*
X249993Y379635D01*
X250039Y379726D01*
X250088Y379815D01*
X250140Y379901D01*
X250196Y379986D01*
X250254Y380069D01*
X250316Y380149D01*
X250381Y380227D01*
X250448Y380303D01*
X250518Y380376D01*
X250591Y380446D01*
X250667Y380513D01*
X250745Y380578D01*
X250825Y380640D01*
X250908Y380698D01*
X250993Y380754D01*
X251080Y380806D01*
X251168Y380855D01*
X251259Y380901D01*
X251351Y380943D01*
X251444Y380982D01*
X251539Y381017D01*
X251636Y381049D01*
X251733Y381077D01*
X251831Y381101D01*
X251930Y381122D01*
X252030Y381139D01*
X252131Y381152D01*
X252232Y381161D01*
X252333Y381167D01*
X252434Y381169D01*
X256949Y381169D01*
X256949Y367623D01*
X256947Y367519D01*
X256941Y367416D01*
X256931Y367312D01*
X256917Y367209D01*
X256899Y367107D01*
X256878Y367006D01*
X256852Y366905D01*
X256823Y366806D01*
X256790Y366707D01*
X256753Y366610D01*
X256712Y366515D01*
X256668Y366421D01*
X256620Y366329D01*
X256569Y366239D01*
X256514Y366150D01*
X256456Y366064D01*
X256394Y365981D01*
X256330Y365899D01*
X256262Y365821D01*
X256192Y365745D01*
X256119Y365671D01*
X256042Y365601D01*
X255964Y365533D01*
X255882Y365469D01*
X255799Y365407D01*
X255713Y365349D01*
X255624Y365294D01*
X255534Y365243D01*
X255442Y365195D01*
X255348Y365151D01*
X255253Y365110D01*
X255156Y365073D01*
X255057Y365040D01*
X254958Y365011D01*
X254857Y364985D01*
X254756Y364964D01*
X254654Y364946D01*
X254551Y364932D01*
X254447Y364922D01*
X254344Y364916D01*
X254240Y364914D01*
X254240Y364913D02*
X250628Y364913D01*
X264472Y370332D02*
X264472Y381169D01*
X269890Y381169D01*
X269890Y379363D01*
X277895Y376654D02*
X281959Y376654D01*
X277895Y376654D02*
X277783Y376652D01*
X277672Y376646D01*
X277561Y376636D01*
X277450Y376623D01*
X277340Y376605D01*
X277231Y376583D01*
X277122Y376558D01*
X277014Y376529D01*
X276908Y376496D01*
X276802Y376459D01*
X276698Y376419D01*
X276596Y376375D01*
X276495Y376327D01*
X276396Y376276D01*
X276298Y376221D01*
X276203Y376163D01*
X276110Y376102D01*
X276019Y376037D01*
X275930Y375969D01*
X275844Y375898D01*
X275761Y375825D01*
X275680Y375748D01*
X275601Y375668D01*
X275526Y375586D01*
X275454Y375501D01*
X275384Y375414D01*
X275318Y375324D01*
X275255Y375232D01*
X275195Y375137D01*
X275139Y375041D01*
X275086Y374943D01*
X275037Y374843D01*
X274991Y374741D01*
X274949Y374638D01*
X274910Y374533D01*
X274875Y374427D01*
X274844Y374320D01*
X274817Y374212D01*
X274793Y374103D01*
X274774Y373993D01*
X274758Y373883D01*
X274746Y373772D01*
X274738Y373660D01*
X274734Y373549D01*
X274734Y373437D01*
X274738Y373326D01*
X274746Y373214D01*
X274758Y373103D01*
X274774Y372993D01*
X274793Y372883D01*
X274817Y372774D01*
X274844Y372666D01*
X274875Y372559D01*
X274910Y372453D01*
X274949Y372348D01*
X274991Y372245D01*
X275037Y372143D01*
X275086Y372043D01*
X275139Y371945D01*
X275195Y371849D01*
X275255Y371754D01*
X275318Y371662D01*
X275384Y371572D01*
X275454Y371485D01*
X275526Y371400D01*
X275601Y371318D01*
X275680Y371238D01*
X275761Y371161D01*
X275844Y371088D01*
X275930Y371017D01*
X276019Y370949D01*
X276110Y370884D01*
X276203Y370823D01*
X276298Y370765D01*
X276396Y370710D01*
X276495Y370659D01*
X276596Y370611D01*
X276698Y370567D01*
X276802Y370527D01*
X276908Y370490D01*
X277014Y370457D01*
X277122Y370428D01*
X277231Y370403D01*
X277340Y370381D01*
X277450Y370363D01*
X277561Y370350D01*
X277672Y370340D01*
X277783Y370334D01*
X277895Y370332D01*
X281959Y370332D01*
X281959Y378460D01*
X281957Y378561D01*
X281951Y378662D01*
X281942Y378763D01*
X281929Y378864D01*
X281912Y378964D01*
X281891Y379063D01*
X281867Y379161D01*
X281839Y379258D01*
X281807Y379355D01*
X281772Y379450D01*
X281733Y379543D01*
X281691Y379635D01*
X281645Y379726D01*
X281596Y379815D01*
X281544Y379901D01*
X281488Y379986D01*
X281430Y380069D01*
X281368Y380149D01*
X281303Y380227D01*
X281236Y380303D01*
X281166Y380376D01*
X281093Y380446D01*
X281017Y380513D01*
X280939Y380578D01*
X280859Y380640D01*
X280776Y380698D01*
X280691Y380754D01*
X280605Y380806D01*
X280516Y380855D01*
X280425Y380901D01*
X280333Y380943D01*
X280240Y380982D01*
X280145Y381017D01*
X280048Y381049D01*
X279951Y381077D01*
X279853Y381101D01*
X279754Y381122D01*
X279654Y381139D01*
X279553Y381152D01*
X279452Y381161D01*
X279351Y381167D01*
X279250Y381169D01*
X275637Y381169D01*
X289675Y381169D02*
X289675Y370332D01*
X289675Y381169D02*
X297803Y381169D01*
X297904Y381167D01*
X298005Y381161D01*
X298106Y381152D01*
X298207Y381139D01*
X298307Y381122D01*
X298406Y381101D01*
X298504Y381077D01*
X298601Y381049D01*
X298698Y381017D01*
X298793Y380982D01*
X298886Y380943D01*
X298978Y380901D01*
X299069Y380855D01*
X299158Y380806D01*
X299244Y380754D01*
X299329Y380698D01*
X299412Y380640D01*
X299492Y380578D01*
X299570Y380513D01*
X299646Y380446D01*
X299719Y380376D01*
X299789Y380303D01*
X299856Y380227D01*
X299921Y380149D01*
X299983Y380069D01*
X300041Y379986D01*
X300097Y379901D01*
X300149Y379815D01*
X300198Y379726D01*
X300244Y379635D01*
X300286Y379543D01*
X300325Y379450D01*
X300360Y379355D01*
X300392Y379258D01*
X300420Y379161D01*
X300444Y379063D01*
X300465Y378964D01*
X300482Y378864D01*
X300495Y378763D01*
X300504Y378662D01*
X300510Y378561D01*
X300512Y378460D01*
X300512Y370332D01*
X295093Y370332D02*
X295093Y381169D01*
X308432Y381169D02*
X308432Y370332D01*
X308432Y381169D02*
X316560Y381169D01*
X316661Y381167D01*
X316762Y381161D01*
X316863Y381152D01*
X316964Y381139D01*
X317064Y381122D01*
X317163Y381101D01*
X317261Y381077D01*
X317358Y381049D01*
X317455Y381017D01*
X317550Y380982D01*
X317643Y380943D01*
X317735Y380901D01*
X317826Y380855D01*
X317915Y380806D01*
X318001Y380754D01*
X318086Y380698D01*
X318169Y380640D01*
X318249Y380578D01*
X318327Y380513D01*
X318403Y380446D01*
X318476Y380376D01*
X318546Y380303D01*
X318613Y380227D01*
X318678Y380149D01*
X318740Y380069D01*
X318798Y379986D01*
X318854Y379901D01*
X318906Y379815D01*
X318955Y379726D01*
X319001Y379635D01*
X319043Y379543D01*
X319082Y379450D01*
X319117Y379355D01*
X319149Y379258D01*
X319177Y379161D01*
X319201Y379063D01*
X319222Y378964D01*
X319239Y378864D01*
X319252Y378763D01*
X319261Y378662D01*
X319267Y378561D01*
X319269Y378460D01*
X319270Y378460D02*
X319270Y370332D01*
X313851Y370332D02*
X313851Y381169D01*
X329100Y370332D02*
X333616Y370332D01*
X329100Y370332D02*
X328999Y370334D01*
X328898Y370340D01*
X328797Y370349D01*
X328696Y370362D01*
X328596Y370379D01*
X328497Y370400D01*
X328399Y370424D01*
X328302Y370452D01*
X328205Y370484D01*
X328110Y370519D01*
X328017Y370558D01*
X327925Y370600D01*
X327834Y370646D01*
X327746Y370695D01*
X327659Y370747D01*
X327574Y370803D01*
X327491Y370861D01*
X327411Y370923D01*
X327333Y370988D01*
X327257Y371055D01*
X327184Y371125D01*
X327114Y371198D01*
X327047Y371274D01*
X326982Y371352D01*
X326920Y371432D01*
X326862Y371515D01*
X326806Y371600D01*
X326754Y371687D01*
X326705Y371775D01*
X326659Y371866D01*
X326617Y371958D01*
X326578Y372051D01*
X326543Y372146D01*
X326511Y372243D01*
X326483Y372340D01*
X326459Y372438D01*
X326438Y372537D01*
X326421Y372637D01*
X326408Y372738D01*
X326399Y372839D01*
X326393Y372940D01*
X326391Y373041D01*
X326391Y377557D01*
X326393Y377676D01*
X326399Y377796D01*
X326409Y377915D01*
X326423Y378033D01*
X326440Y378152D01*
X326462Y378269D01*
X326487Y378386D01*
X326517Y378501D01*
X326550Y378616D01*
X326587Y378730D01*
X326627Y378842D01*
X326672Y378953D01*
X326720Y379062D01*
X326771Y379170D01*
X326826Y379276D01*
X326885Y379380D01*
X326947Y379482D01*
X327012Y379582D01*
X327081Y379680D01*
X327153Y379776D01*
X327228Y379869D01*
X327305Y379959D01*
X327386Y380047D01*
X327470Y380132D01*
X327557Y380214D01*
X327646Y380294D01*
X327738Y380370D01*
X327832Y380444D01*
X327929Y380514D01*
X328027Y380581D01*
X328128Y380645D01*
X328232Y380705D01*
X328337Y380762D01*
X328444Y380815D01*
X328552Y380865D01*
X328662Y380911D01*
X328774Y380953D01*
X328887Y380992D01*
X329001Y381027D01*
X329116Y381058D01*
X329233Y381086D01*
X329350Y381109D01*
X329467Y381129D01*
X329586Y381145D01*
X329705Y381157D01*
X329824Y381165D01*
X329943Y381169D01*
X330063Y381169D01*
X330182Y381165D01*
X330301Y381157D01*
X330420Y381145D01*
X330539Y381129D01*
X330656Y381109D01*
X330773Y381086D01*
X330890Y381058D01*
X331005Y381027D01*
X331119Y380992D01*
X331232Y380953D01*
X331344Y380911D01*
X331454Y380865D01*
X331562Y380815D01*
X331669Y380762D01*
X331774Y380705D01*
X331878Y380645D01*
X331979Y380581D01*
X332077Y380514D01*
X332174Y380444D01*
X332268Y380370D01*
X332360Y380294D01*
X332449Y380214D01*
X332536Y380132D01*
X332620Y380047D01*
X332701Y379959D01*
X332778Y379869D01*
X332853Y379776D01*
X332925Y379680D01*
X332994Y379582D01*
X333059Y379482D01*
X333121Y379380D01*
X333180Y379276D01*
X333235Y379170D01*
X333286Y379062D01*
X333334Y378953D01*
X333379Y378842D01*
X333419Y378730D01*
X333456Y378616D01*
X333489Y378501D01*
X333519Y378386D01*
X333544Y378269D01*
X333566Y378152D01*
X333583Y378033D01*
X333597Y377915D01*
X333607Y377796D01*
X333613Y377676D01*
X333615Y377557D01*
X333616Y377557D02*
X333616Y375751D01*
X326391Y375751D01*
X340544Y370332D02*
X340544Y381169D01*
X345962Y381169D01*
X345962Y379363D01*
X153162Y359918D02*
X153162Y343662D01*
X153162Y359918D02*
X157678Y359918D01*
X157811Y359916D01*
X157943Y359910D01*
X158075Y359900D01*
X158207Y359887D01*
X158339Y359869D01*
X158469Y359848D01*
X158600Y359823D01*
X158729Y359794D01*
X158857Y359761D01*
X158985Y359725D01*
X159111Y359685D01*
X159236Y359641D01*
X159360Y359593D01*
X159482Y359542D01*
X159603Y359487D01*
X159722Y359429D01*
X159840Y359367D01*
X159955Y359302D01*
X160069Y359233D01*
X160180Y359162D01*
X160289Y359086D01*
X160396Y359008D01*
X160501Y358927D01*
X160603Y358842D01*
X160703Y358755D01*
X160800Y358665D01*
X160895Y358572D01*
X160986Y358476D01*
X161075Y358378D01*
X161161Y358277D01*
X161244Y358173D01*
X161324Y358067D01*
X161400Y357959D01*
X161474Y357849D01*
X161544Y357736D01*
X161611Y357622D01*
X161674Y357505D01*
X161734Y357387D01*
X161791Y357267D01*
X161844Y357145D01*
X161893Y357022D01*
X161939Y356898D01*
X161981Y356772D01*
X162019Y356645D01*
X162054Y356517D01*
X162085Y356388D01*
X162112Y356259D01*
X162135Y356128D01*
X162155Y355997D01*
X162170Y355865D01*
X162182Y355733D01*
X162190Y355601D01*
X162194Y355468D01*
X162194Y355336D01*
X162190Y355203D01*
X162182Y355071D01*
X162170Y354939D01*
X162155Y354807D01*
X162135Y354676D01*
X162112Y354545D01*
X162085Y354416D01*
X162054Y354287D01*
X162019Y354159D01*
X161981Y354032D01*
X161939Y353906D01*
X161893Y353782D01*
X161844Y353659D01*
X161791Y353537D01*
X161734Y353417D01*
X161674Y353299D01*
X161611Y353182D01*
X161544Y353068D01*
X161474Y352955D01*
X161400Y352845D01*
X161324Y352737D01*
X161244Y352631D01*
X161161Y352527D01*
X161075Y352426D01*
X160986Y352328D01*
X160895Y352232D01*
X160800Y352139D01*
X160703Y352049D01*
X160603Y351962D01*
X160501Y351877D01*
X160396Y351796D01*
X160289Y351718D01*
X160180Y351642D01*
X160069Y351571D01*
X159955Y351502D01*
X159840Y351437D01*
X159722Y351375D01*
X159603Y351317D01*
X159482Y351262D01*
X159360Y351211D01*
X159236Y351163D01*
X159111Y351119D01*
X158985Y351079D01*
X158857Y351043D01*
X158729Y351010D01*
X158600Y350981D01*
X158469Y350956D01*
X158339Y350935D01*
X158207Y350917D01*
X158075Y350904D01*
X157943Y350894D01*
X157811Y350888D01*
X157678Y350886D01*
X157678Y350887D02*
X153162Y350887D01*
X158581Y350887D02*
X162193Y343662D01*
X169253Y343662D02*
X176477Y343662D01*
X169253Y343662D02*
X169253Y359918D01*
X176477Y359918D01*
X174671Y352693D02*
X169253Y352693D01*
X181346Y359918D02*
X186764Y343662D01*
X192183Y359918D01*
X210732Y359918D02*
X205314Y343662D01*
X216151Y343662D02*
X210732Y359918D01*
X214796Y347726D02*
X206668Y347726D01*
D11*
X572008Y349758D02*
X572008Y361442D01*
X575254Y361442D01*
X575367Y361440D01*
X575480Y361434D01*
X575593Y361424D01*
X575706Y361410D01*
X575818Y361393D01*
X575929Y361371D01*
X576039Y361346D01*
X576149Y361316D01*
X576257Y361283D01*
X576364Y361246D01*
X576470Y361206D01*
X576574Y361161D01*
X576677Y361113D01*
X576778Y361062D01*
X576877Y361007D01*
X576974Y360949D01*
X577069Y360887D01*
X577162Y360822D01*
X577252Y360754D01*
X577340Y360683D01*
X577426Y360608D01*
X577509Y360531D01*
X577589Y360451D01*
X577666Y360368D01*
X577741Y360282D01*
X577812Y360194D01*
X577880Y360104D01*
X577945Y360011D01*
X578007Y359916D01*
X578065Y359819D01*
X578120Y359720D01*
X578171Y359619D01*
X578219Y359516D01*
X578264Y359412D01*
X578304Y359306D01*
X578341Y359199D01*
X578374Y359091D01*
X578404Y358981D01*
X578429Y358871D01*
X578451Y358760D01*
X578468Y358648D01*
X578482Y358535D01*
X578492Y358422D01*
X578498Y358309D01*
X578500Y358196D01*
X578498Y358083D01*
X578492Y357970D01*
X578482Y357857D01*
X578468Y357744D01*
X578451Y357632D01*
X578429Y357521D01*
X578404Y357411D01*
X578374Y357301D01*
X578341Y357193D01*
X578304Y357086D01*
X578264Y356980D01*
X578219Y356876D01*
X578171Y356773D01*
X578120Y356672D01*
X578065Y356573D01*
X578007Y356476D01*
X577945Y356381D01*
X577880Y356288D01*
X577812Y356198D01*
X577741Y356110D01*
X577666Y356024D01*
X577589Y355941D01*
X577509Y355861D01*
X577426Y355784D01*
X577340Y355709D01*
X577252Y355638D01*
X577162Y355570D01*
X577069Y355505D01*
X576974Y355443D01*
X576877Y355385D01*
X576778Y355330D01*
X576677Y355279D01*
X576574Y355231D01*
X576470Y355186D01*
X576364Y355146D01*
X576257Y355109D01*
X576149Y355076D01*
X576039Y355046D01*
X575929Y355021D01*
X575818Y354999D01*
X575706Y354982D01*
X575593Y354968D01*
X575480Y354958D01*
X575367Y354952D01*
X575254Y354950D01*
X575254Y354951D02*
X572008Y354951D01*
X582464Y361442D02*
X585061Y349758D01*
X587657Y357547D01*
X590254Y349758D01*
X592850Y361442D01*
X597820Y361442D02*
X597820Y349758D01*
X597820Y361442D02*
X601066Y361442D01*
X601179Y361440D01*
X601292Y361434D01*
X601405Y361424D01*
X601518Y361410D01*
X601630Y361393D01*
X601741Y361371D01*
X601851Y361346D01*
X601961Y361316D01*
X602069Y361283D01*
X602176Y361246D01*
X602282Y361206D01*
X602386Y361161D01*
X602489Y361113D01*
X602590Y361062D01*
X602689Y361007D01*
X602786Y360949D01*
X602881Y360887D01*
X602974Y360822D01*
X603064Y360754D01*
X603152Y360683D01*
X603238Y360608D01*
X603321Y360531D01*
X603401Y360451D01*
X603478Y360368D01*
X603553Y360282D01*
X603624Y360194D01*
X603692Y360104D01*
X603757Y360011D01*
X603819Y359916D01*
X603877Y359819D01*
X603932Y359720D01*
X603983Y359619D01*
X604031Y359516D01*
X604076Y359412D01*
X604116Y359306D01*
X604153Y359199D01*
X604186Y359091D01*
X604216Y358981D01*
X604241Y358871D01*
X604263Y358760D01*
X604280Y358648D01*
X604294Y358535D01*
X604304Y358422D01*
X604310Y358309D01*
X604312Y358196D01*
X604310Y358083D01*
X604304Y357970D01*
X604294Y357857D01*
X604280Y357744D01*
X604263Y357632D01*
X604241Y357521D01*
X604216Y357411D01*
X604186Y357301D01*
X604153Y357193D01*
X604116Y357086D01*
X604076Y356980D01*
X604031Y356876D01*
X603983Y356773D01*
X603932Y356672D01*
X603877Y356573D01*
X603819Y356476D01*
X603757Y356381D01*
X603692Y356288D01*
X603624Y356198D01*
X603553Y356110D01*
X603478Y356024D01*
X603401Y355941D01*
X603321Y355861D01*
X603238Y355784D01*
X603152Y355709D01*
X603064Y355638D01*
X602974Y355570D01*
X602881Y355505D01*
X602786Y355443D01*
X602689Y355385D01*
X602590Y355330D01*
X602489Y355279D01*
X602386Y355231D01*
X602282Y355186D01*
X602176Y355146D01*
X602069Y355109D01*
X601961Y355076D01*
X601851Y355046D01*
X601741Y355021D01*
X601630Y354999D01*
X601518Y354982D01*
X601405Y354968D01*
X601292Y354958D01*
X601179Y354952D01*
X601066Y354950D01*
X601066Y354951D02*
X597820Y354951D01*
X601715Y354951D02*
X604311Y349758D01*
D10*
X614680Y266700D02*
X618490Y266700D01*
X618490Y262890D01*
X618490Y266700D02*
X622300Y266700D01*
X618490Y266700D02*
X618490Y270510D01*
X607060Y254000D02*
X607068Y254686D01*
X607094Y255371D01*
X607136Y256055D01*
X607195Y256739D01*
X607270Y257420D01*
X607362Y258100D01*
X607471Y258777D01*
X607597Y259451D01*
X607739Y260122D01*
X607897Y260789D01*
X608072Y261452D01*
X608263Y262111D01*
X608470Y262764D01*
X608693Y263413D01*
X608932Y264055D01*
X609187Y264692D01*
X609457Y265322D01*
X609743Y265946D01*
X610043Y266562D01*
X610359Y267171D01*
X610690Y267772D01*
X611035Y268364D01*
X611395Y268948D01*
X611769Y269523D01*
X612157Y270088D01*
X612558Y270644D01*
X612974Y271190D01*
X613402Y271725D01*
X613844Y272250D01*
X614298Y272763D01*
X614765Y273266D01*
X615243Y273757D01*
X615734Y274235D01*
X616237Y274702D01*
X616750Y275156D01*
X617275Y275598D01*
X617810Y276026D01*
X618356Y276442D01*
X618912Y276843D01*
X619477Y277231D01*
X620052Y277605D01*
X620636Y277965D01*
X621228Y278310D01*
X621829Y278641D01*
X622438Y278957D01*
X623054Y279257D01*
X623678Y279543D01*
X624308Y279813D01*
X624945Y280068D01*
X625587Y280307D01*
X626236Y280530D01*
X626889Y280737D01*
X627548Y280928D01*
X628211Y281103D01*
X628878Y281261D01*
X629549Y281403D01*
X630223Y281529D01*
X630900Y281638D01*
X631580Y281730D01*
X632261Y281805D01*
X632945Y281864D01*
X633629Y281906D01*
X634314Y281932D01*
X635000Y281940D01*
X635686Y281932D01*
X636371Y281906D01*
X637055Y281864D01*
X637739Y281805D01*
X638420Y281730D01*
X639100Y281638D01*
X639777Y281529D01*
X640451Y281403D01*
X641122Y281261D01*
X641789Y281103D01*
X642452Y280928D01*
X643111Y280737D01*
X643764Y280530D01*
X644413Y280307D01*
X645055Y280068D01*
X645692Y279813D01*
X646322Y279543D01*
X646946Y279257D01*
X647562Y278957D01*
X648171Y278641D01*
X648772Y278310D01*
X649364Y277965D01*
X649948Y277605D01*
X650523Y277231D01*
X651088Y276843D01*
X651644Y276442D01*
X652190Y276026D01*
X652725Y275598D01*
X653250Y275156D01*
X653763Y274702D01*
X654266Y274235D01*
X654757Y273757D01*
X655235Y273266D01*
X655702Y272763D01*
X656156Y272250D01*
X656598Y271725D01*
X657026Y271190D01*
X657442Y270644D01*
X657843Y270088D01*
X658231Y269523D01*
X658605Y268948D01*
X658965Y268364D01*
X659310Y267772D01*
X659641Y267171D01*
X659957Y266562D01*
X660257Y265946D01*
X660543Y265322D01*
X660813Y264692D01*
X661068Y264055D01*
X661307Y263413D01*
X661530Y262764D01*
X661737Y262111D01*
X661928Y261452D01*
X662103Y260789D01*
X662261Y260122D01*
X662403Y259451D01*
X662529Y258777D01*
X662638Y258100D01*
X662730Y257420D01*
X662805Y256739D01*
X662864Y256055D01*
X662906Y255371D01*
X662932Y254686D01*
X662940Y254000D01*
X662932Y253314D01*
X662906Y252629D01*
X662864Y251945D01*
X662805Y251261D01*
X662730Y250580D01*
X662638Y249900D01*
X662529Y249223D01*
X662403Y248549D01*
X662261Y247878D01*
X662103Y247211D01*
X661928Y246548D01*
X661737Y245889D01*
X661530Y245236D01*
X661307Y244587D01*
X661068Y243945D01*
X660813Y243308D01*
X660543Y242678D01*
X660257Y242054D01*
X659957Y241438D01*
X659641Y240829D01*
X659310Y240228D01*
X658965Y239636D01*
X658605Y239052D01*
X658231Y238477D01*
X657843Y237912D01*
X657442Y237356D01*
X657026Y236810D01*
X656598Y236275D01*
X656156Y235750D01*
X655702Y235237D01*
X655235Y234734D01*
X654757Y234243D01*
X654266Y233765D01*
X653763Y233298D01*
X653250Y232844D01*
X652725Y232402D01*
X652190Y231974D01*
X651644Y231558D01*
X651088Y231157D01*
X650523Y230769D01*
X649948Y230395D01*
X649364Y230035D01*
X648772Y229690D01*
X648171Y229359D01*
X647562Y229043D01*
X646946Y228743D01*
X646322Y228457D01*
X645692Y228187D01*
X645055Y227932D01*
X644413Y227693D01*
X643764Y227470D01*
X643111Y227263D01*
X642452Y227072D01*
X641789Y226897D01*
X641122Y226739D01*
X640451Y226597D01*
X639777Y226471D01*
X639100Y226362D01*
X638420Y226270D01*
X637739Y226195D01*
X637055Y226136D01*
X636371Y226094D01*
X635686Y226068D01*
X635000Y226060D01*
X634314Y226068D01*
X633629Y226094D01*
X632945Y226136D01*
X632261Y226195D01*
X631580Y226270D01*
X630900Y226362D01*
X630223Y226471D01*
X629549Y226597D01*
X628878Y226739D01*
X628211Y226897D01*
X627548Y227072D01*
X626889Y227263D01*
X626236Y227470D01*
X625587Y227693D01*
X624945Y227932D01*
X624308Y228187D01*
X623678Y228457D01*
X623054Y228743D01*
X622438Y229043D01*
X621829Y229359D01*
X621228Y229690D01*
X620636Y230035D01*
X620052Y230395D01*
X619477Y230769D01*
X618912Y231157D01*
X618356Y231558D01*
X617810Y231974D01*
X617275Y232402D01*
X616750Y232844D01*
X616237Y233298D01*
X615734Y233765D01*
X615243Y234243D01*
X614765Y234734D01*
X614298Y235237D01*
X613844Y235750D01*
X613402Y236275D01*
X612974Y236810D01*
X612558Y237356D01*
X612157Y237912D01*
X611769Y238477D01*
X611395Y239052D01*
X611035Y239636D01*
X610690Y240228D01*
X610359Y240829D01*
X610043Y241438D01*
X609743Y242054D01*
X609457Y242678D01*
X609187Y243308D01*
X608932Y243945D01*
X608693Y244587D01*
X608470Y245236D01*
X608263Y245889D01*
X608072Y246548D01*
X607897Y247211D01*
X607739Y247878D01*
X607597Y248549D01*
X607471Y249223D01*
X607362Y249900D01*
X607270Y250580D01*
X607195Y251261D01*
X607136Y251945D01*
X607094Y252629D01*
X607068Y253314D01*
X607060Y254000D01*
D12*
X664845Y269875D02*
X667385Y269875D01*
X664845Y269875D02*
X664745Y269877D01*
X664646Y269883D01*
X664546Y269893D01*
X664448Y269906D01*
X664349Y269924D01*
X664252Y269945D01*
X664156Y269970D01*
X664060Y269999D01*
X663966Y270032D01*
X663873Y270068D01*
X663782Y270108D01*
X663692Y270152D01*
X663604Y270199D01*
X663518Y270249D01*
X663434Y270303D01*
X663352Y270360D01*
X663273Y270420D01*
X663195Y270484D01*
X663121Y270550D01*
X663049Y270619D01*
X662980Y270691D01*
X662914Y270765D01*
X662850Y270843D01*
X662790Y270922D01*
X662733Y271004D01*
X662679Y271088D01*
X662629Y271174D01*
X662582Y271262D01*
X662538Y271352D01*
X662498Y271443D01*
X662462Y271536D01*
X662429Y271630D01*
X662400Y271726D01*
X662375Y271822D01*
X662354Y271919D01*
X662336Y272018D01*
X662323Y272116D01*
X662313Y272216D01*
X662307Y272315D01*
X662305Y272415D01*
X662305Y278765D01*
X662307Y278865D01*
X662313Y278964D01*
X662323Y279064D01*
X662336Y279162D01*
X662354Y279261D01*
X662375Y279358D01*
X662400Y279454D01*
X662429Y279550D01*
X662462Y279644D01*
X662498Y279737D01*
X662538Y279828D01*
X662582Y279918D01*
X662629Y280006D01*
X662679Y280092D01*
X662733Y280176D01*
X662790Y280258D01*
X662850Y280337D01*
X662914Y280415D01*
X662980Y280489D01*
X663049Y280561D01*
X663121Y280630D01*
X663195Y280696D01*
X663273Y280760D01*
X663352Y280820D01*
X663434Y280877D01*
X663518Y280931D01*
X663604Y280981D01*
X663692Y281028D01*
X663782Y281072D01*
X663873Y281112D01*
X663966Y281148D01*
X664060Y281181D01*
X664156Y281210D01*
X664252Y281235D01*
X664349Y281256D01*
X664448Y281274D01*
X664546Y281287D01*
X664646Y281297D01*
X664745Y281303D01*
X664845Y281305D01*
X667385Y281305D01*
X671867Y278765D02*
X675042Y281305D01*
X675042Y269875D01*
X671867Y269875D02*
X678217Y269875D01*
D13*
X650875Y350838D02*
X650875Y360363D01*
D12*
X630825Y362585D02*
X630825Y367411D01*
X632165Y367411D01*
X632235Y367409D01*
X632305Y367404D01*
X632375Y367394D01*
X632444Y367382D01*
X632512Y367365D01*
X632579Y367345D01*
X632646Y367322D01*
X632710Y367295D01*
X632774Y367265D01*
X632836Y367231D01*
X632895Y367195D01*
X632953Y367155D01*
X633009Y367112D01*
X633062Y367067D01*
X633113Y367018D01*
X633162Y366967D01*
X633207Y366914D01*
X633250Y366858D01*
X633290Y366800D01*
X633326Y366741D01*
X633360Y366679D01*
X633390Y366615D01*
X633417Y366551D01*
X633440Y366484D01*
X633460Y366417D01*
X633477Y366349D01*
X633489Y366280D01*
X633499Y366210D01*
X633504Y366140D01*
X633506Y366070D01*
X633506Y363926D01*
X633504Y363856D01*
X633499Y363786D01*
X633489Y363716D01*
X633477Y363647D01*
X633460Y363579D01*
X633440Y363512D01*
X633417Y363445D01*
X633390Y363381D01*
X633360Y363317D01*
X633326Y363255D01*
X633290Y363196D01*
X633250Y363138D01*
X633207Y363082D01*
X633162Y363029D01*
X633113Y362978D01*
X633062Y362929D01*
X633009Y362884D01*
X632953Y362841D01*
X632895Y362801D01*
X632835Y362765D01*
X632774Y362731D01*
X632710Y362701D01*
X632646Y362674D01*
X632579Y362651D01*
X632512Y362631D01*
X632444Y362614D01*
X632375Y362602D01*
X632305Y362592D01*
X632235Y362587D01*
X632165Y362585D01*
X630825Y362585D01*
X636494Y366339D02*
X637835Y367411D01*
X637835Y362585D01*
X639175Y362585D02*
X636494Y362585D01*
D10*
X660400Y120650D02*
X654050Y114300D01*
X660400Y133350D02*
X654050Y139700D01*
X660400Y146050D01*
X660400Y158750D02*
X654050Y165100D01*
X654050Y114300D02*
X615950Y114300D01*
X609600Y120650D01*
X609600Y133350D01*
X615950Y139700D01*
X609600Y146050D01*
X609600Y158750D01*
X615950Y165100D01*
X615950Y139700D02*
X654050Y139700D01*
X654050Y165100D02*
X615950Y165100D01*
X660400Y158750D02*
X660400Y146050D01*
X660400Y133350D02*
X660400Y120650D01*
X654050Y165100D02*
X660400Y171450D01*
X660400Y184150D02*
X654050Y190500D01*
X615950Y165100D02*
X609600Y171450D01*
X609600Y184150D01*
X615950Y190500D01*
X654050Y190500D01*
X660400Y184150D02*
X660400Y171450D01*
D12*
X600075Y118745D02*
X591185Y118745D01*
X600075Y118745D02*
X600175Y118743D01*
X600274Y118737D01*
X600374Y118727D01*
X600472Y118714D01*
X600571Y118696D01*
X600668Y118675D01*
X600764Y118650D01*
X600860Y118621D01*
X600954Y118588D01*
X601047Y118552D01*
X601138Y118512D01*
X601228Y118468D01*
X601316Y118421D01*
X601402Y118371D01*
X601486Y118317D01*
X601568Y118260D01*
X601647Y118200D01*
X601725Y118136D01*
X601799Y118070D01*
X601871Y118001D01*
X601940Y117929D01*
X602006Y117855D01*
X602070Y117777D01*
X602130Y117698D01*
X602187Y117616D01*
X602241Y117532D01*
X602291Y117446D01*
X602338Y117358D01*
X602382Y117268D01*
X602422Y117177D01*
X602458Y117084D01*
X602491Y116990D01*
X602520Y116894D01*
X602545Y116798D01*
X602566Y116701D01*
X602584Y116602D01*
X602597Y116504D01*
X602607Y116404D01*
X602613Y116305D01*
X602615Y116205D01*
X602615Y114935D01*
X602615Y124725D02*
X591185Y124725D01*
X591185Y127900D01*
X591187Y128011D01*
X591193Y128121D01*
X591202Y128232D01*
X591216Y128342D01*
X591233Y128451D01*
X591254Y128560D01*
X591279Y128668D01*
X591308Y128775D01*
X591340Y128881D01*
X591376Y128986D01*
X591416Y129089D01*
X591459Y129191D01*
X591506Y129292D01*
X591557Y129391D01*
X591610Y129487D01*
X591667Y129582D01*
X591728Y129675D01*
X591791Y129766D01*
X591858Y129855D01*
X591928Y129941D01*
X592001Y130024D01*
X592076Y130106D01*
X592154Y130184D01*
X592236Y130259D01*
X592319Y130332D01*
X592405Y130402D01*
X592494Y130469D01*
X592585Y130532D01*
X592678Y130593D01*
X592773Y130650D01*
X592869Y130703D01*
X592968Y130754D01*
X593069Y130801D01*
X593171Y130844D01*
X593274Y130884D01*
X593379Y130920D01*
X593485Y130952D01*
X593592Y130981D01*
X593700Y131006D01*
X593809Y131027D01*
X593918Y131044D01*
X594028Y131058D01*
X594139Y131067D01*
X594249Y131073D01*
X594360Y131075D01*
X594471Y131073D01*
X594581Y131067D01*
X594692Y131058D01*
X594802Y131044D01*
X594911Y131027D01*
X595020Y131006D01*
X595128Y130981D01*
X595235Y130952D01*
X595341Y130920D01*
X595446Y130884D01*
X595549Y130844D01*
X595651Y130801D01*
X595752Y130754D01*
X595851Y130703D01*
X595948Y130650D01*
X596042Y130593D01*
X596135Y130532D01*
X596226Y130469D01*
X596315Y130402D01*
X596401Y130332D01*
X596484Y130259D01*
X596566Y130184D01*
X596644Y130106D01*
X596719Y130024D01*
X596792Y129941D01*
X596862Y129855D01*
X596929Y129766D01*
X596992Y129675D01*
X597053Y129582D01*
X597110Y129488D01*
X597163Y129391D01*
X597214Y129292D01*
X597261Y129191D01*
X597304Y129089D01*
X597344Y128986D01*
X597380Y128881D01*
X597412Y128775D01*
X597441Y128668D01*
X597466Y128560D01*
X597487Y128451D01*
X597504Y128342D01*
X597518Y128232D01*
X597527Y128121D01*
X597533Y128011D01*
X597535Y127900D01*
X597535Y124725D01*
X593725Y135584D02*
X591185Y138759D01*
X602615Y138759D01*
X602615Y135584D02*
X602615Y141934D01*
X630948Y76581D02*
X630948Y71755D01*
X630948Y76581D02*
X632289Y76581D01*
X632360Y76579D01*
X632432Y76573D01*
X632502Y76564D01*
X632572Y76551D01*
X632642Y76534D01*
X632710Y76513D01*
X632777Y76489D01*
X632843Y76461D01*
X632907Y76430D01*
X632970Y76395D01*
X633030Y76357D01*
X633089Y76316D01*
X633145Y76272D01*
X633199Y76225D01*
X633250Y76176D01*
X633298Y76123D01*
X633344Y76068D01*
X633386Y76011D01*
X633426Y75951D01*
X633462Y75890D01*
X633495Y75826D01*
X633524Y75761D01*
X633550Y75695D01*
X633573Y75627D01*
X633592Y75558D01*
X633607Y75488D01*
X633618Y75418D01*
X633626Y75347D01*
X633630Y75276D01*
X633630Y75204D01*
X633626Y75133D01*
X633618Y75062D01*
X633607Y74992D01*
X633592Y74922D01*
X633573Y74853D01*
X633550Y74785D01*
X633524Y74719D01*
X633495Y74654D01*
X633462Y74590D01*
X633426Y74529D01*
X633386Y74469D01*
X633344Y74412D01*
X633298Y74357D01*
X633250Y74304D01*
X633199Y74255D01*
X633145Y74208D01*
X633089Y74164D01*
X633030Y74123D01*
X632970Y74085D01*
X632907Y74050D01*
X632843Y74019D01*
X632777Y73991D01*
X632710Y73967D01*
X632642Y73946D01*
X632572Y73929D01*
X632502Y73916D01*
X632432Y73907D01*
X632360Y73901D01*
X632289Y73899D01*
X632289Y73900D02*
X630948Y73900D01*
X632557Y73900D02*
X633629Y71755D01*
X636371Y75509D02*
X637711Y76581D01*
X637711Y71755D01*
X636371Y71755D02*
X639052Y71755D01*
X630948Y338455D02*
X630948Y343281D01*
X632289Y343281D01*
X632360Y343279D01*
X632432Y343273D01*
X632502Y343264D01*
X632572Y343251D01*
X632642Y343234D01*
X632710Y343213D01*
X632777Y343189D01*
X632843Y343161D01*
X632907Y343130D01*
X632970Y343095D01*
X633030Y343057D01*
X633089Y343016D01*
X633145Y342972D01*
X633199Y342925D01*
X633250Y342876D01*
X633298Y342823D01*
X633344Y342768D01*
X633386Y342711D01*
X633426Y342651D01*
X633462Y342590D01*
X633495Y342526D01*
X633524Y342461D01*
X633550Y342395D01*
X633573Y342327D01*
X633592Y342258D01*
X633607Y342188D01*
X633618Y342118D01*
X633626Y342047D01*
X633630Y341976D01*
X633630Y341904D01*
X633626Y341833D01*
X633618Y341762D01*
X633607Y341692D01*
X633592Y341622D01*
X633573Y341553D01*
X633550Y341485D01*
X633524Y341419D01*
X633495Y341354D01*
X633462Y341290D01*
X633426Y341229D01*
X633386Y341169D01*
X633344Y341112D01*
X633298Y341057D01*
X633250Y341004D01*
X633199Y340955D01*
X633145Y340908D01*
X633089Y340864D01*
X633030Y340823D01*
X632970Y340785D01*
X632907Y340750D01*
X632843Y340719D01*
X632777Y340691D01*
X632710Y340667D01*
X632642Y340646D01*
X632572Y340629D01*
X632502Y340616D01*
X632432Y340607D01*
X632360Y340601D01*
X632289Y340599D01*
X632289Y340600D02*
X630948Y340600D01*
X632557Y340600D02*
X633629Y338455D01*
X637845Y343281D02*
X637913Y343279D01*
X637980Y343273D01*
X638047Y343264D01*
X638114Y343251D01*
X638179Y343234D01*
X638244Y343213D01*
X638307Y343189D01*
X638369Y343161D01*
X638429Y343130D01*
X638487Y343096D01*
X638543Y343058D01*
X638598Y343018D01*
X638649Y342974D01*
X638698Y342927D01*
X638745Y342878D01*
X638789Y342827D01*
X638829Y342772D01*
X638867Y342716D01*
X638901Y342658D01*
X638932Y342598D01*
X638960Y342536D01*
X638984Y342473D01*
X639005Y342408D01*
X639022Y342343D01*
X639035Y342276D01*
X639044Y342209D01*
X639050Y342142D01*
X639052Y342074D01*
X637845Y343281D02*
X637767Y343279D01*
X637689Y343273D01*
X637612Y343263D01*
X637535Y343250D01*
X637459Y343232D01*
X637384Y343211D01*
X637310Y343186D01*
X637238Y343157D01*
X637167Y343125D01*
X637098Y343089D01*
X637030Y343050D01*
X636965Y343007D01*
X636902Y342961D01*
X636841Y342912D01*
X636783Y342860D01*
X636728Y342805D01*
X636675Y342748D01*
X636626Y342688D01*
X636579Y342625D01*
X636536Y342561D01*
X636496Y342494D01*
X636459Y342425D01*
X636426Y342354D01*
X636396Y342282D01*
X636370Y342209D01*
X638650Y341136D02*
X638699Y341185D01*
X638746Y341237D01*
X638789Y341292D01*
X638830Y341349D01*
X638868Y341408D01*
X638902Y341469D01*
X638933Y341532D01*
X638961Y341596D01*
X638985Y341662D01*
X639005Y341728D01*
X639022Y341796D01*
X639035Y341865D01*
X639044Y341934D01*
X639050Y342004D01*
X639052Y342074D01*
X638650Y341136D02*
X636371Y338455D01*
X639052Y338455D01*
D13*
X58000Y303600D02*
X57758Y303597D01*
X57517Y303588D01*
X57276Y303574D01*
X57035Y303553D01*
X56795Y303527D01*
X56555Y303495D01*
X56316Y303457D01*
X56079Y303414D01*
X55842Y303364D01*
X55607Y303309D01*
X55373Y303249D01*
X55141Y303182D01*
X54910Y303111D01*
X54681Y303033D01*
X54454Y302950D01*
X54229Y302862D01*
X54006Y302768D01*
X53786Y302669D01*
X53568Y302564D01*
X53353Y302455D01*
X53140Y302340D01*
X52930Y302220D01*
X52724Y302095D01*
X52520Y301965D01*
X52319Y301830D01*
X52122Y301690D01*
X51928Y301546D01*
X51738Y301397D01*
X51552Y301243D01*
X51369Y301085D01*
X51190Y300923D01*
X51015Y300756D01*
X50844Y300585D01*
X50677Y300410D01*
X50515Y300231D01*
X50357Y300048D01*
X50203Y299862D01*
X50054Y299672D01*
X49910Y299478D01*
X49770Y299281D01*
X49635Y299080D01*
X49505Y298876D01*
X49380Y298670D01*
X49260Y298460D01*
X49145Y298247D01*
X49036Y298032D01*
X48931Y297814D01*
X48832Y297594D01*
X48738Y297371D01*
X48650Y297146D01*
X48567Y296919D01*
X48489Y296690D01*
X48418Y296459D01*
X48351Y296227D01*
X48291Y295993D01*
X48236Y295758D01*
X48186Y295521D01*
X48143Y295284D01*
X48105Y295045D01*
X48073Y294805D01*
X48047Y294565D01*
X48026Y294324D01*
X48012Y294083D01*
X48003Y293842D01*
X48000Y293600D01*
X58000Y303600D02*
X543800Y303600D01*
X544042Y303597D01*
X544283Y303588D01*
X544524Y303574D01*
X544765Y303553D01*
X545005Y303527D01*
X545245Y303495D01*
X545484Y303457D01*
X545721Y303414D01*
X545958Y303364D01*
X546193Y303309D01*
X546427Y303249D01*
X546659Y303182D01*
X546890Y303111D01*
X547119Y303033D01*
X547346Y302950D01*
X547571Y302862D01*
X547794Y302768D01*
X548014Y302669D01*
X548232Y302564D01*
X548447Y302455D01*
X548660Y302340D01*
X548870Y302220D01*
X549076Y302095D01*
X549280Y301965D01*
X549481Y301830D01*
X549678Y301690D01*
X549872Y301546D01*
X550062Y301397D01*
X550248Y301243D01*
X550431Y301085D01*
X550610Y300923D01*
X550785Y300756D01*
X550956Y300585D01*
X551123Y300410D01*
X551285Y300231D01*
X551443Y300048D01*
X551597Y299862D01*
X551746Y299672D01*
X551890Y299478D01*
X552030Y299281D01*
X552165Y299080D01*
X552295Y298876D01*
X552420Y298670D01*
X552540Y298460D01*
X552655Y298247D01*
X552764Y298032D01*
X552869Y297814D01*
X552968Y297594D01*
X553062Y297371D01*
X553150Y297146D01*
X553233Y296919D01*
X553311Y296690D01*
X553382Y296459D01*
X553449Y296227D01*
X553509Y295993D01*
X553564Y295758D01*
X553614Y295521D01*
X553657Y295284D01*
X553695Y295045D01*
X553727Y294805D01*
X553753Y294565D01*
X553774Y294324D01*
X553788Y294083D01*
X553797Y293842D01*
X553800Y293600D01*
X553800Y87400D01*
X553797Y87158D01*
X553788Y86917D01*
X553774Y86676D01*
X553753Y86435D01*
X553727Y86195D01*
X553695Y85955D01*
X553657Y85716D01*
X553614Y85479D01*
X553564Y85242D01*
X553509Y85007D01*
X553449Y84773D01*
X553382Y84541D01*
X553311Y84310D01*
X553233Y84081D01*
X553150Y83854D01*
X553062Y83629D01*
X552968Y83406D01*
X552869Y83186D01*
X552764Y82968D01*
X552655Y82753D01*
X552540Y82540D01*
X552420Y82330D01*
X552295Y82124D01*
X552165Y81920D01*
X552030Y81719D01*
X551890Y81522D01*
X551746Y81328D01*
X551597Y81138D01*
X551443Y80952D01*
X551285Y80769D01*
X551123Y80590D01*
X550956Y80415D01*
X550785Y80244D01*
X550610Y80077D01*
X550431Y79915D01*
X550248Y79757D01*
X550062Y79603D01*
X549872Y79454D01*
X549678Y79310D01*
X549481Y79170D01*
X549280Y79035D01*
X549076Y78905D01*
X548870Y78780D01*
X548660Y78660D01*
X548447Y78545D01*
X548232Y78436D01*
X548014Y78331D01*
X547794Y78232D01*
X547571Y78138D01*
X547346Y78050D01*
X547119Y77967D01*
X546890Y77889D01*
X546659Y77818D01*
X546427Y77751D01*
X546193Y77691D01*
X545958Y77636D01*
X545721Y77586D01*
X545484Y77543D01*
X545245Y77505D01*
X545005Y77473D01*
X544765Y77447D01*
X544524Y77426D01*
X544283Y77412D01*
X544042Y77403D01*
X543800Y77400D01*
X58000Y77400D01*
X57758Y77403D01*
X57517Y77412D01*
X57276Y77426D01*
X57035Y77447D01*
X56795Y77473D01*
X56555Y77505D01*
X56316Y77543D01*
X56079Y77586D01*
X55842Y77636D01*
X55607Y77691D01*
X55373Y77751D01*
X55141Y77818D01*
X54910Y77889D01*
X54681Y77967D01*
X54454Y78050D01*
X54229Y78138D01*
X54006Y78232D01*
X53786Y78331D01*
X53568Y78436D01*
X53353Y78545D01*
X53140Y78660D01*
X52930Y78780D01*
X52724Y78905D01*
X52520Y79035D01*
X52319Y79170D01*
X52122Y79310D01*
X51928Y79454D01*
X51738Y79603D01*
X51552Y79757D01*
X51369Y79915D01*
X51190Y80077D01*
X51015Y80244D01*
X50844Y80415D01*
X50677Y80590D01*
X50515Y80769D01*
X50357Y80952D01*
X50203Y81138D01*
X50054Y81328D01*
X49910Y81522D01*
X49770Y81719D01*
X49635Y81920D01*
X49505Y82124D01*
X49380Y82330D01*
X49260Y82540D01*
X49145Y82753D01*
X49036Y82968D01*
X48931Y83186D01*
X48832Y83406D01*
X48738Y83629D01*
X48650Y83854D01*
X48567Y84081D01*
X48489Y84310D01*
X48418Y84541D01*
X48351Y84773D01*
X48291Y85007D01*
X48236Y85242D01*
X48186Y85479D01*
X48143Y85716D01*
X48105Y85955D01*
X48073Y86195D01*
X48047Y86435D01*
X48026Y86676D01*
X48012Y86917D01*
X48003Y87158D01*
X48000Y87400D01*
X48000Y293600D01*
D11*
X67700Y199000D02*
X67700Y193600D01*
X67700Y199000D02*
X67702Y199095D01*
X67708Y199190D01*
X67718Y199284D01*
X67731Y199379D01*
X67749Y199472D01*
X67770Y199565D01*
X67796Y199656D01*
X67825Y199747D01*
X67857Y199836D01*
X67894Y199924D01*
X67934Y200010D01*
X67977Y200095D01*
X68024Y200177D01*
X68075Y200258D01*
X68128Y200336D01*
X68185Y200413D01*
X68245Y200486D01*
X68308Y200558D01*
X68374Y200626D01*
X68442Y200692D01*
X68514Y200755D01*
X68587Y200815D01*
X68664Y200872D01*
X68742Y200925D01*
X68823Y200976D01*
X68905Y201023D01*
X68990Y201066D01*
X69076Y201106D01*
X69164Y201143D01*
X69253Y201175D01*
X69344Y201204D01*
X69435Y201230D01*
X69528Y201251D01*
X69621Y201269D01*
X69716Y201282D01*
X69810Y201292D01*
X69905Y201298D01*
X70000Y201300D01*
X70095Y201298D01*
X70190Y201292D01*
X70284Y201282D01*
X70379Y201269D01*
X70472Y201251D01*
X70565Y201230D01*
X70656Y201204D01*
X70747Y201175D01*
X70836Y201143D01*
X70924Y201106D01*
X71010Y201066D01*
X71095Y201023D01*
X71177Y200976D01*
X71258Y200925D01*
X71336Y200872D01*
X71413Y200815D01*
X71486Y200755D01*
X71558Y200692D01*
X71626Y200626D01*
X71692Y200558D01*
X71755Y200486D01*
X71815Y200413D01*
X71872Y200336D01*
X71925Y200258D01*
X71976Y200177D01*
X72023Y200095D01*
X72066Y200010D01*
X72106Y199924D01*
X72143Y199836D01*
X72175Y199747D01*
X72204Y199656D01*
X72230Y199565D01*
X72251Y199472D01*
X72269Y199379D01*
X72282Y199284D01*
X72292Y199190D01*
X72298Y199095D01*
X72300Y199000D01*
X72300Y193500D01*
X112100Y169000D02*
X112100Y161100D01*
X112200Y165100D02*
X122500Y165100D01*
X112100Y171700D02*
X112100Y178700D01*
X112100Y171700D02*
X122500Y171700D01*
X122500Y179000D01*
X117200Y178100D02*
X117200Y172100D01*
X112100Y182100D02*
X122500Y189300D01*
X122500Y182100D02*
X112100Y189300D01*
X112100Y191700D02*
X112100Y199500D01*
X112300Y195700D02*
X122500Y195700D01*
X116700Y201500D02*
X116565Y201502D01*
X116429Y201508D01*
X116294Y201518D01*
X116159Y201531D01*
X116025Y201549D01*
X115891Y201570D01*
X115758Y201595D01*
X115626Y201624D01*
X115494Y201657D01*
X115364Y201694D01*
X115235Y201734D01*
X115107Y201778D01*
X114980Y201826D01*
X114855Y201877D01*
X114731Y201932D01*
X114609Y201991D01*
X114488Y202053D01*
X114370Y202118D01*
X114253Y202187D01*
X114138Y202259D01*
X114026Y202335D01*
X113916Y202414D01*
X113808Y202495D01*
X113702Y202580D01*
X113599Y202668D01*
X113498Y202759D01*
X113401Y202853D01*
X113306Y202949D01*
X113213Y203048D01*
X113124Y203150D01*
X113037Y203254D01*
X112954Y203361D01*
X112874Y203470D01*
X112797Y203582D01*
X112723Y203695D01*
X112652Y203811D01*
X112585Y203929D01*
X112522Y204048D01*
X112461Y204169D01*
X112405Y204292D01*
X112351Y204417D01*
X112302Y204543D01*
X112256Y204671D01*
X112214Y204799D01*
X112175Y204929D01*
X112140Y205060D01*
X112109Y205192D01*
X112082Y205325D01*
X112059Y205458D01*
X112039Y205592D01*
X112024Y205727D01*
X112012Y205862D01*
X112004Y205997D01*
X112000Y206132D01*
X112000Y206268D01*
X112004Y206403D01*
X112012Y206538D01*
X112024Y206673D01*
X112039Y206808D01*
X112059Y206942D01*
X112082Y207075D01*
X112109Y207208D01*
X112140Y207340D01*
X112175Y207471D01*
X112214Y207601D01*
X112256Y207729D01*
X112302Y207857D01*
X112351Y207983D01*
X112405Y208108D01*
X112461Y208231D01*
X112522Y208352D01*
X112585Y208471D01*
X112652Y208589D01*
X112723Y208705D01*
X112797Y208818D01*
X112874Y208930D01*
X112954Y209039D01*
X113037Y209146D01*
X113124Y209250D01*
X113213Y209352D01*
X113306Y209451D01*
X113401Y209547D01*
X113498Y209641D01*
X113599Y209732D01*
X113702Y209820D01*
X113808Y209905D01*
X113916Y209986D01*
X114026Y210065D01*
X114138Y210141D01*
X114253Y210213D01*
X114370Y210282D01*
X114488Y210347D01*
X114609Y210409D01*
X114731Y210468D01*
X114855Y210523D01*
X114980Y210574D01*
X115107Y210622D01*
X115235Y210666D01*
X115364Y210706D01*
X115494Y210743D01*
X115626Y210776D01*
X115758Y210805D01*
X115891Y210830D01*
X116025Y210851D01*
X116159Y210869D01*
X116294Y210882D01*
X116429Y210892D01*
X116565Y210898D01*
X116700Y210900D01*
D13*
X81600Y113400D02*
X49100Y113400D01*
X81600Y113400D02*
X82090Y113394D01*
X82581Y113376D01*
X83071Y113346D01*
X83560Y113304D01*
X84047Y113250D01*
X84534Y113184D01*
X85018Y113106D01*
X85501Y113016D01*
X85981Y112914D01*
X86458Y112801D01*
X86933Y112676D01*
X87404Y112539D01*
X87872Y112391D01*
X88336Y112232D01*
X88796Y112061D01*
X89252Y111879D01*
X89703Y111685D01*
X90150Y111481D01*
X90591Y111266D01*
X91026Y111040D01*
X91456Y110804D01*
X91880Y110557D01*
X92298Y110299D01*
X92710Y110032D01*
X93115Y109754D01*
X93512Y109467D01*
X93903Y109170D01*
X94286Y108863D01*
X94662Y108547D01*
X95030Y108222D01*
X95389Y107889D01*
X95741Y107546D01*
X96084Y107195D01*
X96418Y106835D01*
X96743Y106468D01*
X97059Y106092D01*
X97366Y105709D01*
X97663Y105319D01*
X97951Y104921D01*
X98229Y104517D01*
X98497Y104106D01*
X98754Y103688D01*
X99002Y103264D01*
X99239Y102834D01*
X99465Y102399D01*
X99680Y101958D01*
X99885Y101512D01*
X100079Y101061D01*
X100261Y100605D01*
X100432Y100145D01*
X100592Y99681D01*
X100741Y99213D01*
X100878Y98742D01*
X101003Y98268D01*
X101117Y97790D01*
X101219Y97310D01*
X101309Y96828D01*
X101387Y96343D01*
X101454Y95857D01*
X101508Y95369D01*
X101551Y94880D01*
X101581Y94390D01*
X101600Y93900D01*
X101600Y87400D01*
X101603Y87154D01*
X101612Y86909D01*
X101627Y86664D01*
X101648Y86419D01*
X101675Y86175D01*
X101708Y85931D01*
X101747Y85689D01*
X101792Y85447D01*
X101843Y85207D01*
X101900Y84968D01*
X101963Y84730D01*
X102031Y84494D01*
X102105Y84260D01*
X102185Y84028D01*
X102271Y83797D01*
X102362Y83569D01*
X102459Y83343D01*
X102561Y83120D01*
X102669Y82899D01*
X102782Y82681D01*
X102900Y82466D01*
X103024Y82254D01*
X103153Y82045D01*
X103287Y81839D01*
X103426Y81636D01*
X103570Y81437D01*
X103718Y81241D01*
X103872Y81049D01*
X104030Y80861D01*
X104193Y80677D01*
X104360Y80497D01*
X104531Y80322D01*
X104707Y80150D01*
X104887Y79983D01*
X105071Y79820D01*
X105259Y79662D01*
X105451Y79508D01*
X105646Y79359D01*
X105845Y79215D01*
X106048Y79076D01*
X106254Y78942D01*
X106463Y78813D01*
X106675Y78690D01*
X106891Y78571D01*
X107109Y78458D01*
X107329Y78350D01*
X107553Y78248D01*
X107778Y78151D01*
X108007Y78060D01*
X108237Y77974D01*
X108469Y77894D01*
X108703Y77820D01*
X108939Y77751D01*
X109177Y77689D01*
X109416Y77632D01*
X109656Y77581D01*
X109898Y77536D01*
X110140Y77497D01*
X110384Y77464D01*
X110628Y77436D01*
X110873Y77415D01*
X111118Y77400D01*
X111363Y77391D01*
X111609Y77388D01*
X111855Y77391D01*
X112100Y77400D01*
X65100Y99900D02*
X6000Y99900D01*
X6000Y84400D02*
X65100Y84400D01*
X-65000Y113100D02*
X-65242Y113097D01*
X-65483Y113088D01*
X-65724Y113074D01*
X-65965Y113053D01*
X-66205Y113027D01*
X-66445Y112995D01*
X-66684Y112957D01*
X-66921Y112914D01*
X-67158Y112864D01*
X-67393Y112809D01*
X-67627Y112749D01*
X-67859Y112682D01*
X-68090Y112611D01*
X-68319Y112533D01*
X-68546Y112450D01*
X-68771Y112362D01*
X-68994Y112268D01*
X-69214Y112169D01*
X-69432Y112064D01*
X-69647Y111955D01*
X-69860Y111840D01*
X-70070Y111720D01*
X-70276Y111595D01*
X-70480Y111465D01*
X-70681Y111330D01*
X-70878Y111190D01*
X-71072Y111046D01*
X-71262Y110897D01*
X-71448Y110743D01*
X-71631Y110585D01*
X-71810Y110423D01*
X-71985Y110256D01*
X-72156Y110085D01*
X-72323Y109910D01*
X-72485Y109731D01*
X-72643Y109548D01*
X-72797Y109362D01*
X-72946Y109172D01*
X-73090Y108978D01*
X-73230Y108781D01*
X-73365Y108580D01*
X-73495Y108376D01*
X-73620Y108170D01*
X-73740Y107960D01*
X-73855Y107747D01*
X-73964Y107532D01*
X-74069Y107314D01*
X-74168Y107094D01*
X-74262Y106871D01*
X-74350Y106646D01*
X-74433Y106419D01*
X-74511Y106190D01*
X-74582Y105959D01*
X-74649Y105727D01*
X-74709Y105493D01*
X-74764Y105258D01*
X-74814Y105021D01*
X-74857Y104784D01*
X-74895Y104545D01*
X-74927Y104305D01*
X-74953Y104065D01*
X-74974Y103824D01*
X-74988Y103583D01*
X-74997Y103342D01*
X-75000Y103100D01*
X-75000Y81700D01*
X-74997Y81458D01*
X-74988Y81217D01*
X-74974Y80976D01*
X-74953Y80735D01*
X-74927Y80495D01*
X-74895Y80255D01*
X-74857Y80016D01*
X-74814Y79779D01*
X-74764Y79542D01*
X-74709Y79307D01*
X-74649Y79073D01*
X-74582Y78841D01*
X-74511Y78610D01*
X-74433Y78381D01*
X-74350Y78154D01*
X-74262Y77929D01*
X-74168Y77706D01*
X-74069Y77486D01*
X-73964Y77268D01*
X-73855Y77053D01*
X-73740Y76840D01*
X-73620Y76630D01*
X-73495Y76424D01*
X-73365Y76220D01*
X-73230Y76019D01*
X-73090Y75822D01*
X-72946Y75628D01*
X-72797Y75438D01*
X-72643Y75252D01*
X-72485Y75069D01*
X-72323Y74890D01*
X-72156Y74715D01*
X-71985Y74544D01*
X-71810Y74377D01*
X-71631Y74215D01*
X-71448Y74057D01*
X-71262Y73903D01*
X-71072Y73754D01*
X-70878Y73610D01*
X-70681Y73470D01*
X-70480Y73335D01*
X-70276Y73205D01*
X-70070Y73080D01*
X-69860Y72960D01*
X-69647Y72845D01*
X-69432Y72736D01*
X-69214Y72631D01*
X-68994Y72532D01*
X-68771Y72438D01*
X-68546Y72350D01*
X-68319Y72267D01*
X-68090Y72189D01*
X-67859Y72118D01*
X-67627Y72051D01*
X-67393Y71991D01*
X-67158Y71936D01*
X-66921Y71886D01*
X-66684Y71843D01*
X-66445Y71805D01*
X-66205Y71773D01*
X-65965Y71747D01*
X-65724Y71726D01*
X-65483Y71712D01*
X-65242Y71703D01*
X-65000Y71700D01*
X-65000Y113100D02*
X-4500Y113100D01*
X-4258Y113097D01*
X-4017Y113088D01*
X-3776Y113074D01*
X-3535Y113053D01*
X-3295Y113027D01*
X-3055Y112995D01*
X-2816Y112957D01*
X-2579Y112914D01*
X-2342Y112864D01*
X-2107Y112809D01*
X-1873Y112749D01*
X-1641Y112682D01*
X-1410Y112611D01*
X-1181Y112533D01*
X-954Y112450D01*
X-729Y112362D01*
X-506Y112268D01*
X-286Y112169D01*
X-68Y112064D01*
X147Y111955D01*
X360Y111840D01*
X570Y111720D01*
X776Y111595D01*
X980Y111465D01*
X1181Y111330D01*
X1378Y111190D01*
X1572Y111046D01*
X1762Y110897D01*
X1948Y110743D01*
X2131Y110585D01*
X2310Y110423D01*
X2485Y110256D01*
X2656Y110085D01*
X2823Y109910D01*
X2985Y109731D01*
X3143Y109548D01*
X3297Y109362D01*
X3446Y109172D01*
X3590Y108978D01*
X3730Y108781D01*
X3865Y108580D01*
X3995Y108376D01*
X4120Y108170D01*
X4240Y107960D01*
X4355Y107747D01*
X4464Y107532D01*
X4569Y107314D01*
X4668Y107094D01*
X4762Y106871D01*
X4850Y106646D01*
X4933Y106419D01*
X5011Y106190D01*
X5082Y105959D01*
X5149Y105727D01*
X5209Y105493D01*
X5264Y105258D01*
X5314Y105021D01*
X5357Y104784D01*
X5395Y104545D01*
X5427Y104305D01*
X5453Y104065D01*
X5474Y103824D01*
X5488Y103583D01*
X5497Y103342D01*
X5500Y103100D01*
X5500Y81700D01*
X5497Y81458D01*
X5488Y81217D01*
X5474Y80976D01*
X5453Y80735D01*
X5427Y80495D01*
X5395Y80255D01*
X5357Y80016D01*
X5314Y79779D01*
X5264Y79542D01*
X5209Y79307D01*
X5149Y79073D01*
X5082Y78841D01*
X5011Y78610D01*
X4933Y78381D01*
X4850Y78154D01*
X4762Y77929D01*
X4668Y77706D01*
X4569Y77486D01*
X4464Y77268D01*
X4355Y77053D01*
X4240Y76840D01*
X4120Y76630D01*
X3995Y76424D01*
X3865Y76220D01*
X3730Y76019D01*
X3590Y75822D01*
X3446Y75628D01*
X3297Y75438D01*
X3143Y75252D01*
X2985Y75069D01*
X2823Y74890D01*
X2656Y74715D01*
X2485Y74544D01*
X2310Y74377D01*
X2131Y74215D01*
X1948Y74057D01*
X1762Y73903D01*
X1572Y73754D01*
X1378Y73610D01*
X1181Y73470D01*
X980Y73335D01*
X776Y73205D01*
X570Y73080D01*
X360Y72960D01*
X147Y72845D01*
X-68Y72736D01*
X-286Y72631D01*
X-506Y72532D01*
X-729Y72438D01*
X-954Y72350D01*
X-1181Y72267D01*
X-1410Y72189D01*
X-1641Y72118D01*
X-1873Y72051D01*
X-2107Y71991D01*
X-2342Y71936D01*
X-2579Y71886D01*
X-2816Y71843D01*
X-3055Y71805D01*
X-3295Y71773D01*
X-3535Y71747D01*
X-3776Y71726D01*
X-4017Y71712D01*
X-4258Y71703D01*
X-4500Y71700D01*
X-65000Y71700D01*
D11*
X118000Y201500D02*
X118135Y201502D01*
X118271Y201508D01*
X118406Y201518D01*
X118541Y201531D01*
X118675Y201549D01*
X118809Y201570D01*
X118942Y201595D01*
X119074Y201624D01*
X119206Y201657D01*
X119336Y201694D01*
X119465Y201734D01*
X119593Y201778D01*
X119720Y201826D01*
X119845Y201877D01*
X119969Y201932D01*
X120091Y201991D01*
X120212Y202053D01*
X120330Y202118D01*
X120447Y202187D01*
X120562Y202259D01*
X120674Y202335D01*
X120784Y202414D01*
X120892Y202495D01*
X120998Y202580D01*
X121101Y202668D01*
X121202Y202759D01*
X121299Y202853D01*
X121394Y202949D01*
X121487Y203048D01*
X121576Y203150D01*
X121663Y203254D01*
X121746Y203361D01*
X121826Y203470D01*
X121903Y203582D01*
X121977Y203695D01*
X122048Y203811D01*
X122115Y203929D01*
X122178Y204048D01*
X122239Y204169D01*
X122295Y204292D01*
X122349Y204417D01*
X122398Y204543D01*
X122444Y204671D01*
X122486Y204799D01*
X122525Y204929D01*
X122560Y205060D01*
X122591Y205192D01*
X122618Y205325D01*
X122641Y205458D01*
X122661Y205592D01*
X122676Y205727D01*
X122688Y205862D01*
X122696Y205997D01*
X122700Y206132D01*
X122700Y206268D01*
X122696Y206403D01*
X122688Y206538D01*
X122676Y206673D01*
X122661Y206808D01*
X122641Y206942D01*
X122618Y207075D01*
X122591Y207208D01*
X122560Y207340D01*
X122525Y207471D01*
X122486Y207601D01*
X122444Y207729D01*
X122398Y207857D01*
X122349Y207983D01*
X122295Y208108D01*
X122239Y208231D01*
X122178Y208352D01*
X122115Y208471D01*
X122048Y208589D01*
X121977Y208705D01*
X121903Y208818D01*
X121826Y208930D01*
X121746Y209039D01*
X121663Y209146D01*
X121576Y209250D01*
X121487Y209352D01*
X121394Y209451D01*
X121299Y209547D01*
X121202Y209641D01*
X121101Y209732D01*
X120998Y209820D01*
X120892Y209905D01*
X120784Y209986D01*
X120674Y210065D01*
X120562Y210141D01*
X120447Y210213D01*
X120330Y210282D01*
X120212Y210347D01*
X120091Y210409D01*
X119969Y210468D01*
X119845Y210523D01*
X119720Y210574D01*
X119593Y210622D01*
X119465Y210666D01*
X119336Y210706D01*
X119206Y210743D01*
X119074Y210776D01*
X118942Y210805D01*
X118809Y210830D01*
X118675Y210851D01*
X118541Y210869D01*
X118406Y210882D01*
X118271Y210892D01*
X118135Y210898D01*
X118000Y210900D01*
X118000Y201500D02*
X116700Y201500D01*
X116700Y210900D02*
X118000Y210900D01*
X116700Y213800D02*
X116565Y213802D01*
X116429Y213808D01*
X116294Y213818D01*
X116159Y213831D01*
X116025Y213849D01*
X115891Y213870D01*
X115758Y213895D01*
X115626Y213924D01*
X115494Y213957D01*
X115364Y213994D01*
X115235Y214034D01*
X115107Y214078D01*
X114980Y214126D01*
X114855Y214177D01*
X114731Y214232D01*
X114609Y214291D01*
X114488Y214353D01*
X114370Y214418D01*
X114253Y214487D01*
X114138Y214559D01*
X114026Y214635D01*
X113916Y214714D01*
X113808Y214795D01*
X113702Y214880D01*
X113599Y214968D01*
X113498Y215059D01*
X113401Y215153D01*
X113306Y215249D01*
X113213Y215348D01*
X113124Y215450D01*
X113037Y215554D01*
X112954Y215661D01*
X112874Y215770D01*
X112797Y215882D01*
X112723Y215995D01*
X112652Y216111D01*
X112585Y216229D01*
X112522Y216348D01*
X112461Y216469D01*
X112405Y216592D01*
X112351Y216717D01*
X112302Y216843D01*
X112256Y216971D01*
X112214Y217099D01*
X112175Y217229D01*
X112140Y217360D01*
X112109Y217492D01*
X112082Y217625D01*
X112059Y217758D01*
X112039Y217892D01*
X112024Y218027D01*
X112012Y218162D01*
X112004Y218297D01*
X112000Y218432D01*
X112000Y218568D01*
X112004Y218703D01*
X112012Y218838D01*
X112024Y218973D01*
X112039Y219108D01*
X112059Y219242D01*
X112082Y219375D01*
X112109Y219508D01*
X112140Y219640D01*
X112175Y219771D01*
X112214Y219901D01*
X112256Y220029D01*
X112302Y220157D01*
X112351Y220283D01*
X112405Y220408D01*
X112461Y220531D01*
X112522Y220652D01*
X112585Y220771D01*
X112652Y220889D01*
X112723Y221005D01*
X112797Y221118D01*
X112874Y221230D01*
X112954Y221339D01*
X113037Y221446D01*
X113124Y221550D01*
X113213Y221652D01*
X113306Y221751D01*
X113401Y221847D01*
X113498Y221941D01*
X113599Y222032D01*
X113702Y222120D01*
X113808Y222205D01*
X113916Y222286D01*
X114026Y222365D01*
X114138Y222441D01*
X114253Y222513D01*
X114370Y222582D01*
X114488Y222647D01*
X114609Y222709D01*
X114731Y222768D01*
X114855Y222823D01*
X114980Y222874D01*
X115107Y222922D01*
X115235Y222966D01*
X115364Y223006D01*
X115494Y223043D01*
X115626Y223076D01*
X115758Y223105D01*
X115891Y223130D01*
X116025Y223151D01*
X116159Y223169D01*
X116294Y223182D01*
X116429Y223192D01*
X116565Y223198D01*
X116700Y223200D01*
X118000Y223200D02*
X118135Y223198D01*
X118271Y223192D01*
X118406Y223182D01*
X118541Y223169D01*
X118675Y223151D01*
X118809Y223130D01*
X118942Y223105D01*
X119074Y223076D01*
X119206Y223043D01*
X119336Y223006D01*
X119465Y222966D01*
X119593Y222922D01*
X119720Y222874D01*
X119845Y222823D01*
X119969Y222768D01*
X120091Y222709D01*
X120212Y222647D01*
X120330Y222582D01*
X120447Y222513D01*
X120562Y222441D01*
X120674Y222365D01*
X120784Y222286D01*
X120892Y222205D01*
X120998Y222120D01*
X121101Y222032D01*
X121202Y221941D01*
X121299Y221847D01*
X121394Y221751D01*
X121487Y221652D01*
X121576Y221550D01*
X121663Y221446D01*
X121746Y221339D01*
X121826Y221230D01*
X121903Y221118D01*
X121977Y221005D01*
X122048Y220889D01*
X122115Y220771D01*
X122178Y220652D01*
X122239Y220531D01*
X122295Y220408D01*
X122349Y220283D01*
X122398Y220157D01*
X122444Y220029D01*
X122486Y219901D01*
X122525Y219771D01*
X122560Y219640D01*
X122591Y219508D01*
X122618Y219375D01*
X122641Y219242D01*
X122661Y219108D01*
X122676Y218973D01*
X122688Y218838D01*
X122696Y218703D01*
X122700Y218568D01*
X122700Y218432D01*
X122696Y218297D01*
X122688Y218162D01*
X122676Y218027D01*
X122661Y217892D01*
X122641Y217758D01*
X122618Y217625D01*
X122591Y217492D01*
X122560Y217360D01*
X122525Y217229D01*
X122486Y217099D01*
X122444Y216971D01*
X122398Y216843D01*
X122349Y216717D01*
X122295Y216592D01*
X122239Y216469D01*
X122178Y216348D01*
X122115Y216229D01*
X122048Y216111D01*
X121977Y215995D01*
X121903Y215882D01*
X121826Y215770D01*
X121746Y215661D01*
X121663Y215554D01*
X121576Y215450D01*
X121487Y215348D01*
X121394Y215249D01*
X121299Y215153D01*
X121202Y215059D01*
X121101Y214968D01*
X120998Y214880D01*
X120892Y214795D01*
X120784Y214714D01*
X120674Y214635D01*
X120562Y214559D01*
X120447Y214487D01*
X120330Y214418D01*
X120212Y214353D01*
X120091Y214291D01*
X119969Y214232D01*
X119845Y214177D01*
X119720Y214126D01*
X119593Y214078D01*
X119465Y214034D01*
X119336Y213994D01*
X119206Y213957D01*
X119074Y213924D01*
X118942Y213895D01*
X118809Y213870D01*
X118675Y213849D01*
X118541Y213831D01*
X118406Y213818D01*
X118271Y213808D01*
X118135Y213802D01*
X118000Y213800D01*
X116700Y213800D01*
X116700Y223200D02*
X118000Y223200D01*
X122400Y226600D02*
X111900Y226600D01*
X122400Y226600D02*
X122400Y232300D01*
X117500Y241700D02*
X117502Y241797D01*
X117508Y241894D01*
X117517Y241991D01*
X117531Y242087D01*
X117548Y242183D01*
X117570Y242278D01*
X117595Y242372D01*
X117623Y242465D01*
X117656Y242557D01*
X117692Y242647D01*
X117731Y242736D01*
X117774Y242824D01*
X117821Y242909D01*
X117871Y242993D01*
X117924Y243074D01*
X117981Y243153D01*
X118040Y243230D01*
X118103Y243305D01*
X118169Y243377D01*
X118237Y243446D01*
X118308Y243513D01*
X118382Y243576D01*
X118458Y243637D01*
X118536Y243694D01*
X118617Y243749D01*
X118700Y243800D01*
X118784Y243847D01*
X118870Y243891D01*
X118957Y243932D01*
X119046Y243969D01*
X119136Y244002D01*
X119227Y244033D01*
X119320Y244059D01*
X119414Y244082D01*
X119508Y244101D01*
X119603Y244117D01*
X119698Y244129D01*
X119794Y244137D01*
X119891Y244141D01*
X119987Y244142D01*
X120083Y244139D01*
X120179Y244132D01*
X120275Y244121D01*
X120370Y244107D01*
X120465Y244089D01*
X120558Y244067D01*
X120651Y244042D01*
X120743Y244013D01*
X120834Y243981D01*
X120923Y243945D01*
X121011Y243905D01*
X121097Y243862D01*
X121182Y243816D01*
X121264Y243767D01*
X121345Y243714D01*
X121424Y243659D01*
X121500Y243600D01*
X121582Y243532D01*
X121661Y243461D01*
X121738Y243388D01*
X121813Y243311D01*
X121884Y243232D01*
X121952Y243151D01*
X122018Y243067D01*
X122081Y242981D01*
X122140Y242892D01*
X122196Y242802D01*
X122249Y242710D01*
X122299Y242615D01*
X122345Y242520D01*
X122388Y242422D01*
X122427Y242323D01*
X122463Y242223D01*
X122495Y242121D01*
X122523Y242019D01*
X122548Y241915D01*
X122569Y241811D01*
X122587Y241706D01*
X122600Y241600D01*
X122600Y241599D02*
X122614Y241453D01*
X122624Y241307D01*
X122631Y241160D01*
X122635Y241013D01*
X122634Y240866D01*
X122630Y240719D01*
X122623Y240572D01*
X122611Y240426D01*
X122596Y240279D01*
X122577Y240134D01*
X122555Y239988D01*
X122529Y239844D01*
X122500Y239700D01*
X122478Y239609D01*
X122453Y239520D01*
X122424Y239431D01*
X122391Y239344D01*
X122355Y239258D01*
X122316Y239174D01*
X122273Y239091D01*
X122226Y239010D01*
X122177Y238931D01*
X122124Y238854D01*
X122068Y238780D01*
X122010Y238707D01*
X121948Y238638D01*
X121884Y238570D01*
X121816Y238506D01*
X121747Y238444D01*
X121674Y238385D01*
X121600Y238329D01*
X121523Y238276D01*
X121444Y238227D01*
X121364Y238180D01*
X121281Y238137D01*
X121197Y238097D01*
X121111Y238061D01*
X121024Y238028D01*
X120935Y237999D01*
X120845Y237974D01*
X120755Y237952D01*
X120664Y237934D01*
X120571Y237920D01*
X120479Y237909D01*
X120386Y237902D01*
X120293Y237899D01*
X120200Y237900D01*
X117500Y240800D02*
X117500Y241700D01*
X117498Y241785D01*
X117493Y241870D01*
X117483Y241954D01*
X117470Y242038D01*
X117454Y242121D01*
X117434Y242204D01*
X117410Y242285D01*
X117383Y242366D01*
X117352Y242445D01*
X117318Y242523D01*
X117280Y242599D01*
X117240Y242673D01*
X117196Y242746D01*
X117149Y242817D01*
X117098Y242885D01*
X117045Y242952D01*
X116989Y243016D01*
X116931Y243077D01*
X116870Y243136D01*
X116806Y243192D01*
X116740Y243245D01*
X116671Y243295D01*
X116601Y243343D01*
X116528Y243387D01*
X116454Y243428D01*
X116378Y243466D01*
X116300Y243500D01*
X116200Y243540D01*
X116098Y243576D01*
X115995Y243608D01*
X115890Y243637D01*
X115785Y243662D01*
X115679Y243683D01*
X115573Y243700D01*
X115466Y243713D01*
X115358Y243723D01*
X115250Y243728D01*
X115142Y243730D01*
X115034Y243728D01*
X114926Y243722D01*
X114819Y243712D01*
X114711Y243698D01*
X114605Y243680D01*
X114499Y243659D01*
X114394Y243634D01*
X114290Y243605D01*
X114187Y243572D01*
X114085Y243536D01*
X113985Y243496D01*
X113886Y243452D01*
X113789Y243405D01*
X113693Y243354D01*
X113600Y243300D01*
X113519Y243249D01*
X113441Y243195D01*
X113365Y243138D01*
X113291Y243077D01*
X113220Y243014D01*
X113152Y242947D01*
X113086Y242878D01*
X113023Y242807D01*
X112964Y242732D01*
X112907Y242656D01*
X112854Y242577D01*
X112803Y242496D01*
X112757Y242413D01*
X112714Y242328D01*
X112674Y242241D01*
X112638Y242153D01*
X112605Y242064D01*
X112577Y241973D01*
X112552Y241881D01*
X112530Y241788D01*
X112513Y241694D01*
X112500Y241600D01*
X112489Y241488D01*
X112481Y241376D01*
X112477Y241263D01*
X112478Y241151D01*
X112482Y241039D01*
X112490Y240926D01*
X112502Y240815D01*
X112518Y240703D01*
X112539Y240593D01*
X112562Y240483D01*
X112590Y240374D01*
X112622Y240266D01*
X112657Y240160D01*
X112696Y240054D01*
X112739Y239950D01*
X112786Y239848D01*
X112836Y239747D01*
X112889Y239648D01*
X112946Y239552D01*
X113007Y239457D01*
X113070Y239364D01*
X113137Y239274D01*
X113207Y239186D01*
X113281Y239101D01*
X113357Y239018D01*
X113436Y238938D01*
X113517Y238861D01*
X113602Y238787D01*
X113689Y238715D01*
X113778Y238647D01*
X113870Y238582D01*
X113964Y238521D01*
X114060Y238463D01*
X114158Y238408D01*
X114258Y238356D01*
X114360Y238309D01*
X114463Y238264D01*
X114568Y238224D01*
X114675Y238187D01*
X114782Y238154D01*
X114891Y238125D01*
X115000Y238100D01*
X112200Y247100D02*
X122500Y247100D01*
X122500Y251800D02*
X112200Y247100D01*
X112100Y256600D02*
X122500Y251800D01*
X122500Y256600D02*
X112100Y256600D01*
X66900Y188200D02*
X61500Y188200D01*
X61405Y188202D01*
X61310Y188208D01*
X61216Y188218D01*
X61121Y188231D01*
X61028Y188249D01*
X60935Y188270D01*
X60844Y188296D01*
X60753Y188325D01*
X60664Y188357D01*
X60576Y188394D01*
X60490Y188434D01*
X60405Y188477D01*
X60323Y188524D01*
X60242Y188575D01*
X60164Y188628D01*
X60087Y188685D01*
X60014Y188745D01*
X59942Y188808D01*
X59874Y188874D01*
X59808Y188942D01*
X59745Y189014D01*
X59685Y189087D01*
X59628Y189164D01*
X59575Y189242D01*
X59524Y189323D01*
X59477Y189405D01*
X59434Y189490D01*
X59394Y189576D01*
X59357Y189664D01*
X59325Y189753D01*
X59296Y189844D01*
X59270Y189935D01*
X59249Y190028D01*
X59231Y190121D01*
X59218Y190216D01*
X59208Y190310D01*
X59202Y190405D01*
X59200Y190500D01*
X59202Y190595D01*
X59208Y190690D01*
X59218Y190784D01*
X59231Y190879D01*
X59249Y190972D01*
X59270Y191065D01*
X59296Y191156D01*
X59325Y191247D01*
X59357Y191336D01*
X59394Y191424D01*
X59434Y191510D01*
X59477Y191595D01*
X59524Y191677D01*
X59575Y191758D01*
X59628Y191836D01*
X59685Y191913D01*
X59745Y191986D01*
X59808Y192058D01*
X59874Y192126D01*
X59942Y192192D01*
X60014Y192255D01*
X60087Y192315D01*
X60164Y192372D01*
X60242Y192425D01*
X60323Y192476D01*
X60405Y192523D01*
X60490Y192566D01*
X60576Y192606D01*
X60664Y192643D01*
X60753Y192675D01*
X60844Y192704D01*
X60935Y192730D01*
X61028Y192751D01*
X61121Y192769D01*
X61216Y192782D01*
X61310Y192792D01*
X61405Y192798D01*
X61500Y192800D01*
X67000Y192800D01*
X67050Y192802D01*
X67100Y192807D01*
X67149Y192816D01*
X67197Y192828D01*
X67245Y192844D01*
X67291Y192863D01*
X67335Y192886D01*
X67378Y192911D01*
X67419Y192940D01*
X67458Y192971D01*
X67495Y193005D01*
X67529Y193042D01*
X67560Y193081D01*
X67589Y193122D01*
X67614Y193165D01*
X67637Y193209D01*
X67656Y193255D01*
X67672Y193303D01*
X67684Y193351D01*
X67693Y193400D01*
X67698Y193450D01*
X67700Y193500D01*
X66900Y188200D02*
X66950Y188198D01*
X67000Y188193D01*
X67049Y188184D01*
X67097Y188172D01*
X67145Y188156D01*
X67191Y188137D01*
X67235Y188114D01*
X67278Y188089D01*
X67319Y188060D01*
X67358Y188029D01*
X67395Y187995D01*
X67429Y187958D01*
X67460Y187919D01*
X67489Y187878D01*
X67514Y187835D01*
X67537Y187791D01*
X67556Y187745D01*
X67572Y187697D01*
X67584Y187649D01*
X67593Y187600D01*
X67598Y187550D01*
X67600Y187500D01*
X72300Y187400D02*
X72300Y182000D01*
X72298Y181905D01*
X72292Y181810D01*
X72282Y181716D01*
X72269Y181621D01*
X72251Y181528D01*
X72230Y181435D01*
X72204Y181344D01*
X72175Y181253D01*
X72143Y181164D01*
X72106Y181076D01*
X72066Y180990D01*
X72023Y180905D01*
X71976Y180823D01*
X71925Y180742D01*
X71872Y180664D01*
X71815Y180587D01*
X71755Y180514D01*
X71692Y180442D01*
X71626Y180374D01*
X71558Y180308D01*
X71486Y180245D01*
X71413Y180185D01*
X71336Y180128D01*
X71258Y180075D01*
X71177Y180024D01*
X71095Y179977D01*
X71010Y179934D01*
X70924Y179894D01*
X70836Y179857D01*
X70747Y179825D01*
X70656Y179796D01*
X70565Y179770D01*
X70472Y179749D01*
X70379Y179731D01*
X70284Y179718D01*
X70190Y179708D01*
X70095Y179702D01*
X70000Y179700D01*
X69905Y179702D01*
X69810Y179708D01*
X69716Y179718D01*
X69621Y179731D01*
X69528Y179749D01*
X69435Y179770D01*
X69344Y179796D01*
X69253Y179825D01*
X69164Y179857D01*
X69076Y179894D01*
X68990Y179934D01*
X68905Y179977D01*
X68823Y180024D01*
X68742Y180075D01*
X68664Y180128D01*
X68587Y180185D01*
X68514Y180245D01*
X68442Y180308D01*
X68374Y180374D01*
X68308Y180442D01*
X68245Y180514D01*
X68185Y180587D01*
X68128Y180664D01*
X68075Y180742D01*
X68024Y180823D01*
X67977Y180905D01*
X67934Y180990D01*
X67894Y181076D01*
X67857Y181164D01*
X67825Y181253D01*
X67796Y181344D01*
X67770Y181435D01*
X67749Y181528D01*
X67731Y181621D01*
X67718Y181716D01*
X67708Y181810D01*
X67702Y181905D01*
X67700Y182000D01*
X67700Y187500D01*
X73100Y192800D02*
X78500Y192800D01*
X78595Y192798D01*
X78690Y192792D01*
X78784Y192782D01*
X78879Y192769D01*
X78972Y192751D01*
X79065Y192730D01*
X79156Y192704D01*
X79247Y192675D01*
X79336Y192643D01*
X79424Y192606D01*
X79510Y192566D01*
X79595Y192523D01*
X79677Y192476D01*
X79758Y192425D01*
X79836Y192372D01*
X79913Y192315D01*
X79986Y192255D01*
X80058Y192192D01*
X80126Y192126D01*
X80192Y192058D01*
X80255Y191986D01*
X80315Y191913D01*
X80372Y191836D01*
X80425Y191758D01*
X80476Y191677D01*
X80523Y191595D01*
X80566Y191510D01*
X80606Y191424D01*
X80643Y191336D01*
X80675Y191247D01*
X80704Y191156D01*
X80730Y191065D01*
X80751Y190972D01*
X80769Y190879D01*
X80782Y190784D01*
X80792Y190690D01*
X80798Y190595D01*
X80800Y190500D01*
X80798Y190405D01*
X80792Y190310D01*
X80782Y190216D01*
X80769Y190121D01*
X80751Y190028D01*
X80730Y189935D01*
X80704Y189844D01*
X80675Y189753D01*
X80643Y189664D01*
X80606Y189576D01*
X80566Y189490D01*
X80523Y189405D01*
X80476Y189323D01*
X80425Y189242D01*
X80372Y189164D01*
X80315Y189087D01*
X80255Y189014D01*
X80192Y188942D01*
X80126Y188874D01*
X80058Y188808D01*
X79986Y188745D01*
X79913Y188685D01*
X79836Y188628D01*
X79758Y188575D01*
X79677Y188524D01*
X79595Y188477D01*
X79510Y188434D01*
X79424Y188394D01*
X79336Y188357D01*
X79247Y188325D01*
X79156Y188296D01*
X79065Y188270D01*
X78972Y188249D01*
X78879Y188231D01*
X78784Y188218D01*
X78690Y188208D01*
X78595Y188202D01*
X78500Y188200D01*
X73000Y188200D01*
X72950Y188198D01*
X72900Y188193D01*
X72851Y188184D01*
X72803Y188172D01*
X72755Y188156D01*
X72709Y188137D01*
X72665Y188114D01*
X72622Y188089D01*
X72581Y188060D01*
X72542Y188029D01*
X72505Y187995D01*
X72471Y187958D01*
X72440Y187919D01*
X72411Y187878D01*
X72386Y187835D01*
X72363Y187791D01*
X72344Y187745D01*
X72328Y187697D01*
X72316Y187649D01*
X72307Y187600D01*
X72302Y187550D01*
X72300Y187500D01*
X73000Y192800D02*
X72950Y192802D01*
X72900Y192807D01*
X72851Y192816D01*
X72803Y192828D01*
X72755Y192844D01*
X72709Y192863D01*
X72665Y192886D01*
X72622Y192911D01*
X72581Y192940D01*
X72542Y192971D01*
X72505Y193005D01*
X72471Y193042D01*
X72440Y193081D01*
X72411Y193122D01*
X72386Y193165D01*
X72363Y193209D01*
X72344Y193255D01*
X72328Y193303D01*
X72316Y193351D01*
X72307Y193400D01*
X72302Y193450D01*
X72300Y193500D01*
X527500Y193600D02*
X527500Y199000D01*
X527502Y199095D01*
X527508Y199190D01*
X527518Y199284D01*
X527531Y199379D01*
X527549Y199472D01*
X527570Y199565D01*
X527596Y199656D01*
X527625Y199747D01*
X527657Y199836D01*
X527694Y199924D01*
X527734Y200010D01*
X527777Y200095D01*
X527824Y200177D01*
X527875Y200258D01*
X527928Y200336D01*
X527985Y200413D01*
X528045Y200486D01*
X528108Y200558D01*
X528174Y200626D01*
X528242Y200692D01*
X528314Y200755D01*
X528387Y200815D01*
X528464Y200872D01*
X528542Y200925D01*
X528623Y200976D01*
X528705Y201023D01*
X528790Y201066D01*
X528876Y201106D01*
X528964Y201143D01*
X529053Y201175D01*
X529144Y201204D01*
X529235Y201230D01*
X529328Y201251D01*
X529421Y201269D01*
X529516Y201282D01*
X529610Y201292D01*
X529705Y201298D01*
X529800Y201300D01*
X529895Y201298D01*
X529990Y201292D01*
X530084Y201282D01*
X530179Y201269D01*
X530272Y201251D01*
X530365Y201230D01*
X530456Y201204D01*
X530547Y201175D01*
X530636Y201143D01*
X530724Y201106D01*
X530810Y201066D01*
X530895Y201023D01*
X530977Y200976D01*
X531058Y200925D01*
X531136Y200872D01*
X531213Y200815D01*
X531286Y200755D01*
X531358Y200692D01*
X531426Y200626D01*
X531492Y200558D01*
X531555Y200486D01*
X531615Y200413D01*
X531672Y200336D01*
X531725Y200258D01*
X531776Y200177D01*
X531823Y200095D01*
X531866Y200010D01*
X531906Y199924D01*
X531943Y199836D01*
X531975Y199747D01*
X532004Y199656D01*
X532030Y199565D01*
X532051Y199472D01*
X532069Y199379D01*
X532082Y199284D01*
X532092Y199190D01*
X532098Y199095D01*
X532100Y199000D01*
X532100Y193500D01*
X526700Y188200D02*
X521300Y188200D01*
X521205Y188202D01*
X521110Y188208D01*
X521016Y188218D01*
X520921Y188231D01*
X520828Y188249D01*
X520735Y188270D01*
X520644Y188296D01*
X520553Y188325D01*
X520464Y188357D01*
X520376Y188394D01*
X520290Y188434D01*
X520205Y188477D01*
X520123Y188524D01*
X520042Y188575D01*
X519964Y188628D01*
X519887Y188685D01*
X519814Y188745D01*
X519742Y188808D01*
X519674Y188874D01*
X519608Y188942D01*
X519545Y189014D01*
X519485Y189087D01*
X519428Y189164D01*
X519375Y189242D01*
X519324Y189323D01*
X519277Y189405D01*
X519234Y189490D01*
X519194Y189576D01*
X519157Y189664D01*
X519125Y189753D01*
X519096Y189844D01*
X519070Y189935D01*
X519049Y190028D01*
X519031Y190121D01*
X519018Y190216D01*
X519008Y190310D01*
X519002Y190405D01*
X519000Y190500D01*
X519002Y190595D01*
X519008Y190690D01*
X519018Y190784D01*
X519031Y190879D01*
X519049Y190972D01*
X519070Y191065D01*
X519096Y191156D01*
X519125Y191247D01*
X519157Y191336D01*
X519194Y191424D01*
X519234Y191510D01*
X519277Y191595D01*
X519324Y191677D01*
X519375Y191758D01*
X519428Y191836D01*
X519485Y191913D01*
X519545Y191986D01*
X519608Y192058D01*
X519674Y192126D01*
X519742Y192192D01*
X519814Y192255D01*
X519887Y192315D01*
X519964Y192372D01*
X520042Y192425D01*
X520123Y192476D01*
X520205Y192523D01*
X520290Y192566D01*
X520376Y192606D01*
X520464Y192643D01*
X520553Y192675D01*
X520644Y192704D01*
X520735Y192730D01*
X520828Y192751D01*
X520921Y192769D01*
X521016Y192782D01*
X521110Y192792D01*
X521205Y192798D01*
X521300Y192800D01*
X526800Y192800D01*
X526850Y192802D01*
X526900Y192807D01*
X526949Y192816D01*
X526997Y192828D01*
X527045Y192844D01*
X527091Y192863D01*
X527135Y192886D01*
X527178Y192911D01*
X527219Y192940D01*
X527258Y192971D01*
X527295Y193005D01*
X527329Y193042D01*
X527360Y193081D01*
X527389Y193122D01*
X527414Y193165D01*
X527437Y193209D01*
X527456Y193255D01*
X527472Y193303D01*
X527484Y193351D01*
X527493Y193400D01*
X527498Y193450D01*
X527500Y193500D01*
X526700Y188200D02*
X526750Y188198D01*
X526800Y188193D01*
X526849Y188184D01*
X526897Y188172D01*
X526945Y188156D01*
X526991Y188137D01*
X527035Y188114D01*
X527078Y188089D01*
X527119Y188060D01*
X527158Y188029D01*
X527195Y187995D01*
X527229Y187958D01*
X527260Y187919D01*
X527289Y187878D01*
X527314Y187835D01*
X527337Y187791D01*
X527356Y187745D01*
X527372Y187697D01*
X527384Y187649D01*
X527393Y187600D01*
X527398Y187550D01*
X527400Y187500D01*
X532100Y187400D02*
X532100Y182000D01*
X532098Y181905D01*
X532092Y181810D01*
X532082Y181716D01*
X532069Y181621D01*
X532051Y181528D01*
X532030Y181435D01*
X532004Y181344D01*
X531975Y181253D01*
X531943Y181164D01*
X531906Y181076D01*
X531866Y180990D01*
X531823Y180905D01*
X531776Y180823D01*
X531725Y180742D01*
X531672Y180664D01*
X531615Y180587D01*
X531555Y180514D01*
X531492Y180442D01*
X531426Y180374D01*
X531358Y180308D01*
X531286Y180245D01*
X531213Y180185D01*
X531136Y180128D01*
X531058Y180075D01*
X530977Y180024D01*
X530895Y179977D01*
X530810Y179934D01*
X530724Y179894D01*
X530636Y179857D01*
X530547Y179825D01*
X530456Y179796D01*
X530365Y179770D01*
X530272Y179749D01*
X530179Y179731D01*
X530084Y179718D01*
X529990Y179708D01*
X529895Y179702D01*
X529800Y179700D01*
X529705Y179702D01*
X529610Y179708D01*
X529516Y179718D01*
X529421Y179731D01*
X529328Y179749D01*
X529235Y179770D01*
X529144Y179796D01*
X529053Y179825D01*
X528964Y179857D01*
X528876Y179894D01*
X528790Y179934D01*
X528705Y179977D01*
X528623Y180024D01*
X528542Y180075D01*
X528464Y180128D01*
X528387Y180185D01*
X528314Y180245D01*
X528242Y180308D01*
X528174Y180374D01*
X528108Y180442D01*
X528045Y180514D01*
X527985Y180587D01*
X527928Y180664D01*
X527875Y180742D01*
X527824Y180823D01*
X527777Y180905D01*
X527734Y180990D01*
X527694Y181076D01*
X527657Y181164D01*
X527625Y181253D01*
X527596Y181344D01*
X527570Y181435D01*
X527549Y181528D01*
X527531Y181621D01*
X527518Y181716D01*
X527508Y181810D01*
X527502Y181905D01*
X527500Y182000D01*
X527500Y187500D01*
X532900Y192800D02*
X538300Y192800D01*
X538395Y192798D01*
X538490Y192792D01*
X538584Y192782D01*
X538679Y192769D01*
X538772Y192751D01*
X538865Y192730D01*
X538956Y192704D01*
X539047Y192675D01*
X539136Y192643D01*
X539224Y192606D01*
X539310Y192566D01*
X539395Y192523D01*
X539477Y192476D01*
X539558Y192425D01*
X539636Y192372D01*
X539713Y192315D01*
X539786Y192255D01*
X539858Y192192D01*
X539926Y192126D01*
X539992Y192058D01*
X540055Y191986D01*
X540115Y191913D01*
X540172Y191836D01*
X540225Y191758D01*
X540276Y191677D01*
X540323Y191595D01*
X540366Y191510D01*
X540406Y191424D01*
X540443Y191336D01*
X540475Y191247D01*
X540504Y191156D01*
X540530Y191065D01*
X540551Y190972D01*
X540569Y190879D01*
X540582Y190784D01*
X540592Y190690D01*
X540598Y190595D01*
X540600Y190500D01*
X540598Y190405D01*
X540592Y190310D01*
X540582Y190216D01*
X540569Y190121D01*
X540551Y190028D01*
X540530Y189935D01*
X540504Y189844D01*
X540475Y189753D01*
X540443Y189664D01*
X540406Y189576D01*
X540366Y189490D01*
X540323Y189405D01*
X540276Y189323D01*
X540225Y189242D01*
X540172Y189164D01*
X540115Y189087D01*
X540055Y189014D01*
X539992Y188942D01*
X539926Y188874D01*
X539858Y188808D01*
X539786Y188745D01*
X539713Y188685D01*
X539636Y188628D01*
X539558Y188575D01*
X539477Y188524D01*
X539395Y188477D01*
X539310Y188434D01*
X539224Y188394D01*
X539136Y188357D01*
X539047Y188325D01*
X538956Y188296D01*
X538865Y188270D01*
X538772Y188249D01*
X538679Y188231D01*
X538584Y188218D01*
X538490Y188208D01*
X538395Y188202D01*
X538300Y188200D01*
X532800Y188200D01*
X532750Y188198D01*
X532700Y188193D01*
X532651Y188184D01*
X532603Y188172D01*
X532555Y188156D01*
X532509Y188137D01*
X532465Y188114D01*
X532422Y188089D01*
X532381Y188060D01*
X532342Y188029D01*
X532305Y187995D01*
X532271Y187958D01*
X532240Y187919D01*
X532211Y187878D01*
X532186Y187835D01*
X532163Y187791D01*
X532144Y187745D01*
X532128Y187697D01*
X532116Y187649D01*
X532107Y187600D01*
X532102Y187550D01*
X532100Y187500D01*
X532800Y192800D02*
X532750Y192802D01*
X532700Y192807D01*
X532651Y192816D01*
X532603Y192828D01*
X532555Y192844D01*
X532509Y192863D01*
X532465Y192886D01*
X532422Y192911D01*
X532381Y192940D01*
X532342Y192971D01*
X532305Y193005D01*
X532271Y193042D01*
X532240Y193081D01*
X532211Y193122D01*
X532186Y193165D01*
X532163Y193209D01*
X532144Y193255D01*
X532128Y193303D01*
X532116Y193351D01*
X532107Y193400D01*
X532102Y193450D01*
X532100Y193500D01*
X499110Y170180D02*
X135890Y170180D01*
X499110Y170180D02*
X499110Y88900D01*
X135890Y88900D01*
X135890Y170180D01*
X143510Y99060D02*
X491490Y99060D01*
X143510Y99060D02*
X135890Y88900D01*
X491490Y99060D02*
X499110Y88900D01*
X499110Y210820D02*
X135890Y210820D01*
X135890Y292100D01*
X499110Y292100D01*
X499110Y210820D01*
X491490Y281940D02*
X143510Y281940D01*
X491490Y281940D02*
X499110Y292100D01*
X143510Y281940D02*
X135890Y292100D01*
X233680Y203200D02*
X351790Y203200D01*
X351790Y177800D01*
X233680Y177800D01*
X233680Y203200D01*
X54700Y190500D02*
X54705Y190875D01*
X54718Y191251D01*
X54741Y191626D01*
X54774Y192000D01*
X54815Y192373D01*
X54866Y192745D01*
X54925Y193116D01*
X54994Y193485D01*
X55072Y193852D01*
X55159Y194218D01*
X55254Y194581D01*
X55359Y194941D01*
X55472Y195299D01*
X55594Y195654D01*
X55725Y196006D01*
X55865Y196355D01*
X56013Y196700D01*
X56169Y197042D01*
X56334Y197379D01*
X56507Y197712D01*
X56688Y198041D01*
X56877Y198366D01*
X57074Y198685D01*
X57279Y199000D01*
X57491Y199310D01*
X57711Y199614D01*
X57938Y199913D01*
X58173Y200206D01*
X58415Y200494D01*
X58663Y200775D01*
X58919Y201050D01*
X59181Y201319D01*
X59450Y201581D01*
X59725Y201837D01*
X60006Y202085D01*
X60294Y202327D01*
X60587Y202562D01*
X60886Y202789D01*
X61190Y203009D01*
X61500Y203221D01*
X61815Y203426D01*
X62134Y203623D01*
X62459Y203812D01*
X62788Y203993D01*
X63121Y204166D01*
X63458Y204331D01*
X63800Y204487D01*
X64145Y204635D01*
X64494Y204775D01*
X64846Y204906D01*
X65201Y205028D01*
X65559Y205141D01*
X65919Y205246D01*
X66282Y205341D01*
X66648Y205428D01*
X67015Y205506D01*
X67384Y205575D01*
X67755Y205634D01*
X68127Y205685D01*
X68500Y205726D01*
X68874Y205759D01*
X69249Y205782D01*
X69625Y205795D01*
X70000Y205800D01*
X70375Y205795D01*
X70751Y205782D01*
X71126Y205759D01*
X71500Y205726D01*
X71873Y205685D01*
X72245Y205634D01*
X72616Y205575D01*
X72985Y205506D01*
X73352Y205428D01*
X73718Y205341D01*
X74081Y205246D01*
X74441Y205141D01*
X74799Y205028D01*
X75154Y204906D01*
X75506Y204775D01*
X75855Y204635D01*
X76200Y204487D01*
X76542Y204331D01*
X76879Y204166D01*
X77212Y203993D01*
X77541Y203812D01*
X77866Y203623D01*
X78185Y203426D01*
X78500Y203221D01*
X78810Y203009D01*
X79114Y202789D01*
X79413Y202562D01*
X79706Y202327D01*
X79994Y202085D01*
X80275Y201837D01*
X80550Y201581D01*
X80819Y201319D01*
X81081Y201050D01*
X81337Y200775D01*
X81585Y200494D01*
X81827Y200206D01*
X82062Y199913D01*
X82289Y199614D01*
X82509Y199310D01*
X82721Y199000D01*
X82926Y198685D01*
X83123Y198366D01*
X83312Y198041D01*
X83493Y197712D01*
X83666Y197379D01*
X83831Y197042D01*
X83987Y196700D01*
X84135Y196355D01*
X84275Y196006D01*
X84406Y195654D01*
X84528Y195299D01*
X84641Y194941D01*
X84746Y194581D01*
X84841Y194218D01*
X84928Y193852D01*
X85006Y193485D01*
X85075Y193116D01*
X85134Y192745D01*
X85185Y192373D01*
X85226Y192000D01*
X85259Y191626D01*
X85282Y191251D01*
X85295Y190875D01*
X85300Y190500D01*
X85295Y190125D01*
X85282Y189749D01*
X85259Y189374D01*
X85226Y189000D01*
X85185Y188627D01*
X85134Y188255D01*
X85075Y187884D01*
X85006Y187515D01*
X84928Y187148D01*
X84841Y186782D01*
X84746Y186419D01*
X84641Y186059D01*
X84528Y185701D01*
X84406Y185346D01*
X84275Y184994D01*
X84135Y184645D01*
X83987Y184300D01*
X83831Y183958D01*
X83666Y183621D01*
X83493Y183288D01*
X83312Y182959D01*
X83123Y182634D01*
X82926Y182315D01*
X82721Y182000D01*
X82509Y181690D01*
X82289Y181386D01*
X82062Y181087D01*
X81827Y180794D01*
X81585Y180506D01*
X81337Y180225D01*
X81081Y179950D01*
X80819Y179681D01*
X80550Y179419D01*
X80275Y179163D01*
X79994Y178915D01*
X79706Y178673D01*
X79413Y178438D01*
X79114Y178211D01*
X78810Y177991D01*
X78500Y177779D01*
X78185Y177574D01*
X77866Y177377D01*
X77541Y177188D01*
X77212Y177007D01*
X76879Y176834D01*
X76542Y176669D01*
X76200Y176513D01*
X75855Y176365D01*
X75506Y176225D01*
X75154Y176094D01*
X74799Y175972D01*
X74441Y175859D01*
X74081Y175754D01*
X73718Y175659D01*
X73352Y175572D01*
X72985Y175494D01*
X72616Y175425D01*
X72245Y175366D01*
X71873Y175315D01*
X71500Y175274D01*
X71126Y175241D01*
X70751Y175218D01*
X70375Y175205D01*
X70000Y175200D01*
X69625Y175205D01*
X69249Y175218D01*
X68874Y175241D01*
X68500Y175274D01*
X68127Y175315D01*
X67755Y175366D01*
X67384Y175425D01*
X67015Y175494D01*
X66648Y175572D01*
X66282Y175659D01*
X65919Y175754D01*
X65559Y175859D01*
X65201Y175972D01*
X64846Y176094D01*
X64494Y176225D01*
X64145Y176365D01*
X63800Y176513D01*
X63458Y176669D01*
X63121Y176834D01*
X62788Y177007D01*
X62459Y177188D01*
X62134Y177377D01*
X61815Y177574D01*
X61500Y177779D01*
X61190Y177991D01*
X60886Y178211D01*
X60587Y178438D01*
X60294Y178673D01*
X60006Y178915D01*
X59725Y179163D01*
X59450Y179419D01*
X59181Y179681D01*
X58919Y179950D01*
X58663Y180225D01*
X58415Y180506D01*
X58173Y180794D01*
X57938Y181087D01*
X57711Y181386D01*
X57491Y181690D01*
X57279Y182000D01*
X57074Y182315D01*
X56877Y182634D01*
X56688Y182959D01*
X56507Y183288D01*
X56334Y183621D01*
X56169Y183958D01*
X56013Y184300D01*
X55865Y184645D01*
X55725Y184994D01*
X55594Y185346D01*
X55472Y185701D01*
X55359Y186059D01*
X55254Y186419D01*
X55159Y186782D01*
X55072Y187148D01*
X54994Y187515D01*
X54925Y187884D01*
X54866Y188255D01*
X54815Y188627D01*
X54774Y189000D01*
X54741Y189374D01*
X54718Y189749D01*
X54705Y190125D01*
X54700Y190500D01*
D13*
X44882Y92400D02*
X44888Y92908D01*
X44907Y93417D01*
X44938Y93924D01*
X44982Y94431D01*
X45038Y94936D01*
X45106Y95440D01*
X45187Y95942D01*
X45280Y96442D01*
X45385Y96939D01*
X45503Y97434D01*
X45632Y97926D01*
X45774Y98414D01*
X45928Y98899D01*
X46093Y99380D01*
X46270Y99856D01*
X46459Y100328D01*
X46659Y100796D01*
X46871Y101258D01*
X47094Y101715D01*
X47328Y102166D01*
X47574Y102612D01*
X47830Y103051D01*
X48096Y103484D01*
X48374Y103910D01*
X48661Y104330D01*
X48959Y104742D01*
X49267Y105146D01*
X49585Y105543D01*
X49912Y105932D01*
X50249Y106313D01*
X50595Y106686D01*
X50950Y107050D01*
X51314Y107405D01*
X51687Y107751D01*
X52068Y108088D01*
X52457Y108415D01*
X52854Y108733D01*
X53258Y109041D01*
X53670Y109339D01*
X54090Y109626D01*
X54516Y109904D01*
X54949Y110170D01*
X55388Y110426D01*
X55834Y110672D01*
X56285Y110906D01*
X56742Y111129D01*
X57204Y111341D01*
X57672Y111541D01*
X58144Y111730D01*
X58620Y111907D01*
X59101Y112072D01*
X59586Y112226D01*
X60074Y112368D01*
X60566Y112497D01*
X61061Y112615D01*
X61558Y112720D01*
X62058Y112813D01*
X62560Y112894D01*
X63064Y112962D01*
X63569Y113018D01*
X64076Y113062D01*
X64583Y113093D01*
X65092Y113112D01*
X65600Y113118D01*
X66108Y113112D01*
X66617Y113093D01*
X67124Y113062D01*
X67631Y113018D01*
X68136Y112962D01*
X68640Y112894D01*
X69142Y112813D01*
X69642Y112720D01*
X70139Y112615D01*
X70634Y112497D01*
X71126Y112368D01*
X71614Y112226D01*
X72099Y112072D01*
X72580Y111907D01*
X73056Y111730D01*
X73528Y111541D01*
X73996Y111341D01*
X74458Y111129D01*
X74915Y110906D01*
X75366Y110672D01*
X75812Y110426D01*
X76251Y110170D01*
X76684Y109904D01*
X77110Y109626D01*
X77530Y109339D01*
X77942Y109041D01*
X78346Y108733D01*
X78743Y108415D01*
X79132Y108088D01*
X79513Y107751D01*
X79886Y107405D01*
X80250Y107050D01*
X80605Y106686D01*
X80951Y106313D01*
X81288Y105932D01*
X81615Y105543D01*
X81933Y105146D01*
X82241Y104742D01*
X82539Y104330D01*
X82826Y103910D01*
X83104Y103484D01*
X83370Y103051D01*
X83626Y102612D01*
X83872Y102166D01*
X84106Y101715D01*
X84329Y101258D01*
X84541Y100796D01*
X84741Y100328D01*
X84930Y99856D01*
X85107Y99380D01*
X85272Y98899D01*
X85426Y98414D01*
X85568Y97926D01*
X85697Y97434D01*
X85815Y96939D01*
X85920Y96442D01*
X86013Y95942D01*
X86094Y95440D01*
X86162Y94936D01*
X86218Y94431D01*
X86262Y93924D01*
X86293Y93417D01*
X86312Y92908D01*
X86318Y92400D01*
X86312Y91892D01*
X86293Y91383D01*
X86262Y90876D01*
X86218Y90369D01*
X86162Y89864D01*
X86094Y89360D01*
X86013Y88858D01*
X85920Y88358D01*
X85815Y87861D01*
X85697Y87366D01*
X85568Y86874D01*
X85426Y86386D01*
X85272Y85901D01*
X85107Y85420D01*
X84930Y84944D01*
X84741Y84472D01*
X84541Y84004D01*
X84329Y83542D01*
X84106Y83085D01*
X83872Y82634D01*
X83626Y82188D01*
X83370Y81749D01*
X83104Y81316D01*
X82826Y80890D01*
X82539Y80470D01*
X82241Y80058D01*
X81933Y79654D01*
X81615Y79257D01*
X81288Y78868D01*
X80951Y78487D01*
X80605Y78114D01*
X80250Y77750D01*
X79886Y77395D01*
X79513Y77049D01*
X79132Y76712D01*
X78743Y76385D01*
X78346Y76067D01*
X77942Y75759D01*
X77530Y75461D01*
X77110Y75174D01*
X76684Y74896D01*
X76251Y74630D01*
X75812Y74374D01*
X75366Y74128D01*
X74915Y73894D01*
X74458Y73671D01*
X73996Y73459D01*
X73528Y73259D01*
X73056Y73070D01*
X72580Y72893D01*
X72099Y72728D01*
X71614Y72574D01*
X71126Y72432D01*
X70634Y72303D01*
X70139Y72185D01*
X69642Y72080D01*
X69142Y71987D01*
X68640Y71906D01*
X68136Y71838D01*
X67631Y71782D01*
X67124Y71738D01*
X66617Y71707D01*
X66108Y71688D01*
X65600Y71682D01*
X65092Y71688D01*
X64583Y71707D01*
X64076Y71738D01*
X63569Y71782D01*
X63064Y71838D01*
X62560Y71906D01*
X62058Y71987D01*
X61558Y72080D01*
X61061Y72185D01*
X60566Y72303D01*
X60074Y72432D01*
X59586Y72574D01*
X59101Y72728D01*
X58620Y72893D01*
X58144Y73070D01*
X57672Y73259D01*
X57204Y73459D01*
X56742Y73671D01*
X56285Y73894D01*
X55834Y74128D01*
X55388Y74374D01*
X54949Y74630D01*
X54516Y74896D01*
X54090Y75174D01*
X53670Y75461D01*
X53258Y75759D01*
X52854Y76067D01*
X52457Y76385D01*
X52068Y76712D01*
X51687Y77049D01*
X51314Y77395D01*
X50950Y77750D01*
X50595Y78114D01*
X50249Y78487D01*
X49912Y78868D01*
X49585Y79257D01*
X49267Y79654D01*
X48959Y80058D01*
X48661Y80470D01*
X48374Y80890D01*
X48096Y81316D01*
X47830Y81749D01*
X47574Y82188D01*
X47328Y82634D01*
X47094Y83085D01*
X46871Y83542D01*
X46659Y84004D01*
X46459Y84472D01*
X46270Y84944D01*
X46093Y85420D01*
X45928Y85901D01*
X45774Y86386D01*
X45632Y86874D01*
X45503Y87366D01*
X45385Y87861D01*
X45280Y88358D01*
X45187Y88858D01*
X45106Y89360D01*
X45038Y89864D01*
X44982Y90369D01*
X44938Y90876D01*
X44907Y91383D01*
X44888Y91892D01*
X44882Y92400D01*
D11*
X514500Y190500D02*
X514505Y190875D01*
X514518Y191251D01*
X514541Y191626D01*
X514574Y192000D01*
X514615Y192373D01*
X514666Y192745D01*
X514725Y193116D01*
X514794Y193485D01*
X514872Y193852D01*
X514959Y194218D01*
X515054Y194581D01*
X515159Y194941D01*
X515272Y195299D01*
X515394Y195654D01*
X515525Y196006D01*
X515665Y196355D01*
X515813Y196700D01*
X515969Y197042D01*
X516134Y197379D01*
X516307Y197712D01*
X516488Y198041D01*
X516677Y198366D01*
X516874Y198685D01*
X517079Y199000D01*
X517291Y199310D01*
X517511Y199614D01*
X517738Y199913D01*
X517973Y200206D01*
X518215Y200494D01*
X518463Y200775D01*
X518719Y201050D01*
X518981Y201319D01*
X519250Y201581D01*
X519525Y201837D01*
X519806Y202085D01*
X520094Y202327D01*
X520387Y202562D01*
X520686Y202789D01*
X520990Y203009D01*
X521300Y203221D01*
X521615Y203426D01*
X521934Y203623D01*
X522259Y203812D01*
X522588Y203993D01*
X522921Y204166D01*
X523258Y204331D01*
X523600Y204487D01*
X523945Y204635D01*
X524294Y204775D01*
X524646Y204906D01*
X525001Y205028D01*
X525359Y205141D01*
X525719Y205246D01*
X526082Y205341D01*
X526448Y205428D01*
X526815Y205506D01*
X527184Y205575D01*
X527555Y205634D01*
X527927Y205685D01*
X528300Y205726D01*
X528674Y205759D01*
X529049Y205782D01*
X529425Y205795D01*
X529800Y205800D01*
X530175Y205795D01*
X530551Y205782D01*
X530926Y205759D01*
X531300Y205726D01*
X531673Y205685D01*
X532045Y205634D01*
X532416Y205575D01*
X532785Y205506D01*
X533152Y205428D01*
X533518Y205341D01*
X533881Y205246D01*
X534241Y205141D01*
X534599Y205028D01*
X534954Y204906D01*
X535306Y204775D01*
X535655Y204635D01*
X536000Y204487D01*
X536342Y204331D01*
X536679Y204166D01*
X537012Y203993D01*
X537341Y203812D01*
X537666Y203623D01*
X537985Y203426D01*
X538300Y203221D01*
X538610Y203009D01*
X538914Y202789D01*
X539213Y202562D01*
X539506Y202327D01*
X539794Y202085D01*
X540075Y201837D01*
X540350Y201581D01*
X540619Y201319D01*
X540881Y201050D01*
X541137Y200775D01*
X541385Y200494D01*
X541627Y200206D01*
X541862Y199913D01*
X542089Y199614D01*
X542309Y199310D01*
X542521Y199000D01*
X542726Y198685D01*
X542923Y198366D01*
X543112Y198041D01*
X543293Y197712D01*
X543466Y197379D01*
X543631Y197042D01*
X543787Y196700D01*
X543935Y196355D01*
X544075Y196006D01*
X544206Y195654D01*
X544328Y195299D01*
X544441Y194941D01*
X544546Y194581D01*
X544641Y194218D01*
X544728Y193852D01*
X544806Y193485D01*
X544875Y193116D01*
X544934Y192745D01*
X544985Y192373D01*
X545026Y192000D01*
X545059Y191626D01*
X545082Y191251D01*
X545095Y190875D01*
X545100Y190500D01*
X545095Y190125D01*
X545082Y189749D01*
X545059Y189374D01*
X545026Y189000D01*
X544985Y188627D01*
X544934Y188255D01*
X544875Y187884D01*
X544806Y187515D01*
X544728Y187148D01*
X544641Y186782D01*
X544546Y186419D01*
X544441Y186059D01*
X544328Y185701D01*
X544206Y185346D01*
X544075Y184994D01*
X543935Y184645D01*
X543787Y184300D01*
X543631Y183958D01*
X543466Y183621D01*
X543293Y183288D01*
X543112Y182959D01*
X542923Y182634D01*
X542726Y182315D01*
X542521Y182000D01*
X542309Y181690D01*
X542089Y181386D01*
X541862Y181087D01*
X541627Y180794D01*
X541385Y180506D01*
X541137Y180225D01*
X540881Y179950D01*
X540619Y179681D01*
X540350Y179419D01*
X540075Y179163D01*
X539794Y178915D01*
X539506Y178673D01*
X539213Y178438D01*
X538914Y178211D01*
X538610Y177991D01*
X538300Y177779D01*
X537985Y177574D01*
X537666Y177377D01*
X537341Y177188D01*
X537012Y177007D01*
X536679Y176834D01*
X536342Y176669D01*
X536000Y176513D01*
X535655Y176365D01*
X535306Y176225D01*
X534954Y176094D01*
X534599Y175972D01*
X534241Y175859D01*
X533881Y175754D01*
X533518Y175659D01*
X533152Y175572D01*
X532785Y175494D01*
X532416Y175425D01*
X532045Y175366D01*
X531673Y175315D01*
X531300Y175274D01*
X530926Y175241D01*
X530551Y175218D01*
X530175Y175205D01*
X529800Y175200D01*
X529425Y175205D01*
X529049Y175218D01*
X528674Y175241D01*
X528300Y175274D01*
X527927Y175315D01*
X527555Y175366D01*
X527184Y175425D01*
X526815Y175494D01*
X526448Y175572D01*
X526082Y175659D01*
X525719Y175754D01*
X525359Y175859D01*
X525001Y175972D01*
X524646Y176094D01*
X524294Y176225D01*
X523945Y176365D01*
X523600Y176513D01*
X523258Y176669D01*
X522921Y176834D01*
X522588Y177007D01*
X522259Y177188D01*
X521934Y177377D01*
X521615Y177574D01*
X521300Y177779D01*
X520990Y177991D01*
X520686Y178211D01*
X520387Y178438D01*
X520094Y178673D01*
X519806Y178915D01*
X519525Y179163D01*
X519250Y179419D01*
X518981Y179681D01*
X518719Y179950D01*
X518463Y180225D01*
X518215Y180506D01*
X517973Y180794D01*
X517738Y181087D01*
X517511Y181386D01*
X517291Y181690D01*
X517079Y182000D01*
X516874Y182315D01*
X516677Y182634D01*
X516488Y182959D01*
X516307Y183288D01*
X516134Y183621D01*
X515969Y183958D01*
X515813Y184300D01*
X515665Y184645D01*
X515525Y184994D01*
X515394Y185346D01*
X515272Y185701D01*
X515159Y186059D01*
X515054Y186419D01*
X514959Y186782D01*
X514872Y187148D01*
X514794Y187515D01*
X514725Y187884D01*
X514666Y188255D01*
X514615Y188627D01*
X514574Y189000D01*
X514541Y189374D01*
X514518Y189749D01*
X514505Y190125D01*
X514500Y190500D01*
D14*
X338377Y185801D02*
X338282Y185803D01*
X338188Y185809D01*
X338094Y185818D01*
X338000Y185831D01*
X337907Y185848D01*
X337815Y185869D01*
X337723Y185894D01*
X337633Y185922D01*
X337544Y185954D01*
X337456Y185989D01*
X337370Y186028D01*
X337285Y186070D01*
X337202Y186116D01*
X337121Y186165D01*
X337042Y186217D01*
X336965Y186272D01*
X336891Y186331D01*
X336819Y186392D01*
X336749Y186456D01*
X336682Y186523D01*
X336618Y186593D01*
X336557Y186665D01*
X336498Y186739D01*
X336443Y186816D01*
X336391Y186895D01*
X336342Y186976D01*
X336296Y187059D01*
X336254Y187144D01*
X336215Y187230D01*
X336180Y187318D01*
X336148Y187407D01*
X336120Y187497D01*
X336095Y187589D01*
X336074Y187681D01*
X336057Y187774D01*
X336044Y187868D01*
X336035Y187962D01*
X336029Y188056D01*
X336027Y188151D01*
X338377Y185801D02*
X338485Y185803D01*
X338594Y185809D01*
X338702Y185819D01*
X338809Y185832D01*
X338916Y185850D01*
X339023Y185871D01*
X339128Y185896D01*
X339233Y185925D01*
X339336Y185957D01*
X339438Y185994D01*
X339539Y186034D01*
X339638Y186077D01*
X339736Y186124D01*
X339832Y186175D01*
X339926Y186229D01*
X340018Y186286D01*
X340108Y186347D01*
X340196Y186411D01*
X340281Y186477D01*
X340364Y186547D01*
X340444Y186620D01*
X340522Y186696D01*
X340597Y186774D01*
X340669Y186855D01*
X340738Y186939D01*
X340804Y187025D01*
X340867Y187113D01*
X340926Y187204D01*
X340983Y187297D01*
X341036Y187391D01*
X341085Y187488D01*
X341132Y187586D01*
X341174Y187685D01*
X341213Y187787D01*
X341248Y187889D01*
X336810Y189979D02*
X336741Y189910D01*
X336675Y189839D01*
X336611Y189766D01*
X336550Y189690D01*
X336492Y189611D01*
X336438Y189531D01*
X336386Y189448D01*
X336338Y189364D01*
X336292Y189278D01*
X336251Y189190D01*
X336212Y189100D01*
X336177Y189009D01*
X336146Y188917D01*
X336118Y188824D01*
X336094Y188730D01*
X336074Y188635D01*
X336057Y188539D01*
X336044Y188442D01*
X336035Y188345D01*
X336029Y188248D01*
X336027Y188151D01*
X336811Y189978D02*
X341249Y195199D01*
X336028Y195199D01*
X326883Y188151D02*
X326885Y188056D01*
X326891Y187962D01*
X326900Y187868D01*
X326913Y187774D01*
X326930Y187681D01*
X326951Y187589D01*
X326976Y187497D01*
X327004Y187407D01*
X327036Y187318D01*
X327071Y187230D01*
X327110Y187144D01*
X327152Y187059D01*
X327198Y186976D01*
X327247Y186895D01*
X327299Y186816D01*
X327354Y186739D01*
X327413Y186665D01*
X327474Y186593D01*
X327538Y186523D01*
X327605Y186456D01*
X327675Y186392D01*
X327747Y186331D01*
X327821Y186272D01*
X327898Y186217D01*
X327977Y186165D01*
X328058Y186116D01*
X328141Y186070D01*
X328226Y186028D01*
X328312Y185989D01*
X328400Y185954D01*
X328489Y185922D01*
X328579Y185894D01*
X328671Y185869D01*
X328763Y185848D01*
X328856Y185831D01*
X328950Y185818D01*
X329044Y185809D01*
X329138Y185803D01*
X329233Y185801D01*
X329341Y185803D01*
X329450Y185809D01*
X329558Y185819D01*
X329665Y185832D01*
X329772Y185850D01*
X329879Y185871D01*
X329984Y185896D01*
X330089Y185925D01*
X330192Y185957D01*
X330294Y185994D01*
X330395Y186034D01*
X330494Y186077D01*
X330592Y186124D01*
X330688Y186175D01*
X330782Y186229D01*
X330874Y186286D01*
X330964Y186347D01*
X331052Y186411D01*
X331137Y186477D01*
X331220Y186547D01*
X331300Y186620D01*
X331378Y186696D01*
X331453Y186774D01*
X331525Y186855D01*
X331594Y186939D01*
X331660Y187025D01*
X331723Y187113D01*
X331782Y187204D01*
X331839Y187297D01*
X331892Y187391D01*
X331941Y187488D01*
X331988Y187586D01*
X332030Y187685D01*
X332069Y187787D01*
X332104Y187889D01*
X327667Y189979D02*
X327598Y189910D01*
X327532Y189839D01*
X327468Y189766D01*
X327407Y189690D01*
X327349Y189611D01*
X327295Y189531D01*
X327243Y189448D01*
X327195Y189364D01*
X327149Y189278D01*
X327108Y189190D01*
X327069Y189100D01*
X327034Y189009D01*
X327003Y188917D01*
X326975Y188824D01*
X326951Y188730D01*
X326931Y188635D01*
X326914Y188539D01*
X326901Y188442D01*
X326892Y188345D01*
X326886Y188248D01*
X326884Y188151D01*
X327667Y189978D02*
X332105Y195199D01*
X326884Y195199D01*
X322962Y192588D02*
X322960Y192487D01*
X322954Y192386D01*
X322944Y192285D01*
X322931Y192185D01*
X322913Y192085D01*
X322892Y191986D01*
X322866Y191888D01*
X322837Y191791D01*
X322805Y191695D01*
X322768Y191601D01*
X322728Y191508D01*
X322684Y191416D01*
X322637Y191327D01*
X322586Y191239D01*
X322532Y191153D01*
X322475Y191070D01*
X322415Y190988D01*
X322351Y190910D01*
X322285Y190833D01*
X322215Y190760D01*
X322143Y190689D01*
X322068Y190621D01*
X321990Y190556D01*
X321910Y190494D01*
X321828Y190435D01*
X321743Y190379D01*
X321656Y190327D01*
X321568Y190278D01*
X321477Y190232D01*
X321385Y190191D01*
X321291Y190152D01*
X321196Y190118D01*
X321100Y190087D01*
X321002Y190060D01*
X320904Y190036D01*
X320804Y190017D01*
X320704Y190001D01*
X320604Y189989D01*
X320503Y189981D01*
X320402Y189977D01*
X320300Y189977D01*
X320199Y189981D01*
X320098Y189989D01*
X319998Y190001D01*
X319898Y190017D01*
X319798Y190036D01*
X319700Y190060D01*
X319602Y190087D01*
X319506Y190118D01*
X319411Y190152D01*
X319317Y190191D01*
X319225Y190232D01*
X319134Y190278D01*
X319046Y190327D01*
X318959Y190379D01*
X318874Y190435D01*
X318792Y190494D01*
X318712Y190556D01*
X318634Y190621D01*
X318559Y190689D01*
X318487Y190760D01*
X318417Y190833D01*
X318351Y190910D01*
X318287Y190988D01*
X318227Y191070D01*
X318170Y191153D01*
X318116Y191239D01*
X318065Y191327D01*
X318018Y191416D01*
X317974Y191508D01*
X317934Y191601D01*
X317897Y191695D01*
X317865Y191791D01*
X317836Y191888D01*
X317810Y191986D01*
X317789Y192085D01*
X317771Y192185D01*
X317758Y192285D01*
X317748Y192386D01*
X317742Y192487D01*
X317740Y192588D01*
X317742Y192689D01*
X317748Y192790D01*
X317758Y192891D01*
X317771Y192991D01*
X317789Y193091D01*
X317810Y193190D01*
X317836Y193288D01*
X317865Y193385D01*
X317897Y193481D01*
X317934Y193575D01*
X317974Y193668D01*
X318018Y193760D01*
X318065Y193849D01*
X318116Y193937D01*
X318170Y194023D01*
X318227Y194106D01*
X318287Y194188D01*
X318351Y194266D01*
X318417Y194343D01*
X318487Y194416D01*
X318559Y194487D01*
X318634Y194555D01*
X318712Y194620D01*
X318792Y194682D01*
X318874Y194741D01*
X318959Y194797D01*
X319046Y194849D01*
X319134Y194898D01*
X319225Y194944D01*
X319317Y194985D01*
X319411Y195024D01*
X319506Y195058D01*
X319602Y195089D01*
X319700Y195116D01*
X319798Y195140D01*
X319898Y195159D01*
X319998Y195175D01*
X320098Y195187D01*
X320199Y195195D01*
X320300Y195199D01*
X320402Y195199D01*
X320503Y195195D01*
X320604Y195187D01*
X320704Y195175D01*
X320804Y195159D01*
X320904Y195140D01*
X321002Y195116D01*
X321100Y195089D01*
X321196Y195058D01*
X321291Y195024D01*
X321385Y194985D01*
X321477Y194944D01*
X321568Y194898D01*
X321657Y194849D01*
X321743Y194797D01*
X321828Y194741D01*
X321910Y194682D01*
X321990Y194620D01*
X322068Y194555D01*
X322143Y194487D01*
X322215Y194416D01*
X322285Y194343D01*
X322351Y194266D01*
X322415Y194188D01*
X322475Y194106D01*
X322532Y194023D01*
X322586Y193937D01*
X322637Y193849D01*
X322684Y193760D01*
X322728Y193668D01*
X322768Y193575D01*
X322805Y193481D01*
X322837Y193385D01*
X322866Y193288D01*
X322892Y193190D01*
X322913Y193091D01*
X322931Y192991D01*
X322944Y192891D01*
X322954Y192790D01*
X322960Y192689D01*
X322962Y192588D01*
X322439Y187889D02*
X322437Y187799D01*
X322431Y187710D01*
X322422Y187620D01*
X322408Y187531D01*
X322391Y187443D01*
X322370Y187356D01*
X322345Y187269D01*
X322316Y187184D01*
X322284Y187100D01*
X322249Y187018D01*
X322209Y186937D01*
X322167Y186858D01*
X322121Y186781D01*
X322071Y186706D01*
X322019Y186633D01*
X321963Y186562D01*
X321905Y186494D01*
X321843Y186429D01*
X321779Y186366D01*
X321712Y186306D01*
X321643Y186249D01*
X321571Y186195D01*
X321497Y186144D01*
X321421Y186096D01*
X321343Y186052D01*
X321263Y186011D01*
X321181Y185973D01*
X321098Y185939D01*
X321013Y185909D01*
X320927Y185882D01*
X320841Y185859D01*
X320753Y185840D01*
X320664Y185825D01*
X320575Y185813D01*
X320486Y185805D01*
X320396Y185801D01*
X320306Y185801D01*
X320216Y185805D01*
X320127Y185813D01*
X320038Y185825D01*
X319949Y185840D01*
X319861Y185859D01*
X319775Y185882D01*
X319689Y185909D01*
X319604Y185939D01*
X319521Y185973D01*
X319439Y186011D01*
X319359Y186052D01*
X319281Y186096D01*
X319205Y186144D01*
X319131Y186195D01*
X319059Y186249D01*
X318990Y186306D01*
X318923Y186366D01*
X318859Y186429D01*
X318797Y186494D01*
X318739Y186562D01*
X318683Y186633D01*
X318631Y186706D01*
X318581Y186781D01*
X318535Y186858D01*
X318493Y186937D01*
X318453Y187018D01*
X318418Y187100D01*
X318386Y187184D01*
X318357Y187269D01*
X318332Y187356D01*
X318311Y187443D01*
X318294Y187531D01*
X318280Y187620D01*
X318271Y187710D01*
X318265Y187799D01*
X318263Y187889D01*
X318265Y187979D01*
X318271Y188068D01*
X318280Y188158D01*
X318294Y188247D01*
X318311Y188335D01*
X318332Y188422D01*
X318357Y188509D01*
X318386Y188594D01*
X318418Y188678D01*
X318453Y188760D01*
X318493Y188841D01*
X318535Y188920D01*
X318581Y188997D01*
X318631Y189072D01*
X318683Y189145D01*
X318739Y189216D01*
X318797Y189284D01*
X318859Y189349D01*
X318923Y189412D01*
X318990Y189472D01*
X319059Y189529D01*
X319131Y189583D01*
X319205Y189634D01*
X319281Y189682D01*
X319359Y189726D01*
X319439Y189767D01*
X319521Y189805D01*
X319604Y189839D01*
X319689Y189869D01*
X319775Y189896D01*
X319861Y189919D01*
X319949Y189938D01*
X320038Y189953D01*
X320127Y189965D01*
X320216Y189973D01*
X320306Y189977D01*
X320396Y189977D01*
X320486Y189973D01*
X320575Y189965D01*
X320664Y189953D01*
X320753Y189938D01*
X320841Y189919D01*
X320927Y189896D01*
X321013Y189869D01*
X321098Y189839D01*
X321181Y189805D01*
X321263Y189767D01*
X321343Y189726D01*
X321421Y189682D01*
X321497Y189634D01*
X321571Y189583D01*
X321643Y189529D01*
X321712Y189472D01*
X321779Y189412D01*
X321843Y189349D01*
X321905Y189284D01*
X321963Y189216D01*
X322019Y189145D01*
X322071Y189072D01*
X322121Y188997D01*
X322167Y188920D01*
X322209Y188841D01*
X322249Y188760D01*
X322284Y188678D01*
X322316Y188594D01*
X322345Y188509D01*
X322370Y188422D01*
X322391Y188335D01*
X322408Y188247D01*
X322422Y188158D01*
X322431Y188068D01*
X322437Y187979D01*
X322439Y187889D01*
X313730Y191544D02*
X307464Y191544D01*
X303454Y187889D02*
X300843Y185801D01*
X300843Y195199D01*
X298233Y195199D02*
X303454Y195199D01*
X291438Y185801D02*
X291343Y185803D01*
X291249Y185809D01*
X291155Y185818D01*
X291061Y185831D01*
X290968Y185848D01*
X290876Y185869D01*
X290784Y185894D01*
X290694Y185922D01*
X290605Y185954D01*
X290517Y185989D01*
X290431Y186028D01*
X290346Y186070D01*
X290263Y186116D01*
X290182Y186165D01*
X290103Y186217D01*
X290026Y186272D01*
X289952Y186331D01*
X289880Y186392D01*
X289810Y186456D01*
X289743Y186523D01*
X289679Y186593D01*
X289618Y186665D01*
X289559Y186739D01*
X289504Y186816D01*
X289452Y186895D01*
X289403Y186976D01*
X289357Y187059D01*
X289315Y187144D01*
X289276Y187230D01*
X289241Y187318D01*
X289209Y187407D01*
X289181Y187497D01*
X289156Y187589D01*
X289135Y187681D01*
X289118Y187774D01*
X289105Y187868D01*
X289096Y187962D01*
X289090Y188056D01*
X289088Y188151D01*
X291438Y185801D02*
X291546Y185803D01*
X291655Y185809D01*
X291763Y185819D01*
X291870Y185832D01*
X291977Y185850D01*
X292084Y185871D01*
X292189Y185896D01*
X292294Y185925D01*
X292397Y185957D01*
X292499Y185994D01*
X292600Y186034D01*
X292699Y186077D01*
X292797Y186124D01*
X292893Y186175D01*
X292987Y186229D01*
X293079Y186286D01*
X293169Y186347D01*
X293257Y186411D01*
X293342Y186477D01*
X293425Y186547D01*
X293505Y186620D01*
X293583Y186696D01*
X293658Y186774D01*
X293730Y186855D01*
X293799Y186939D01*
X293865Y187025D01*
X293928Y187113D01*
X293987Y187204D01*
X294044Y187297D01*
X294097Y187391D01*
X294146Y187488D01*
X294193Y187586D01*
X294235Y187685D01*
X294274Y187787D01*
X294309Y187889D01*
X289871Y189979D02*
X289802Y189910D01*
X289736Y189839D01*
X289672Y189766D01*
X289611Y189690D01*
X289553Y189611D01*
X289499Y189531D01*
X289447Y189448D01*
X289399Y189364D01*
X289353Y189278D01*
X289312Y189190D01*
X289273Y189100D01*
X289238Y189009D01*
X289207Y188917D01*
X289179Y188824D01*
X289155Y188730D01*
X289135Y188635D01*
X289118Y188539D01*
X289105Y188442D01*
X289096Y188345D01*
X289090Y188248D01*
X289088Y188151D01*
X289872Y189978D02*
X294310Y195199D01*
X289089Y195199D01*
X285166Y186845D02*
X285166Y185801D01*
X279945Y185801D01*
X282555Y195199D01*
X276022Y186845D02*
X276022Y185801D01*
X270801Y185801D01*
X273411Y195199D01*
X266791Y191544D02*
X260525Y191544D01*
X256515Y190500D02*
X256513Y190315D01*
X256506Y190130D01*
X256495Y189946D01*
X256480Y189762D01*
X256460Y189578D01*
X256436Y189394D01*
X256407Y189212D01*
X256374Y189030D01*
X256337Y188849D01*
X256295Y188669D01*
X256249Y188489D01*
X256199Y188311D01*
X256145Y188135D01*
X256086Y187959D01*
X256024Y187785D01*
X255957Y187613D01*
X255886Y187442D01*
X255811Y187273D01*
X255732Y187106D01*
X255702Y187026D01*
X255669Y186947D01*
X255632Y186870D01*
X255592Y186794D01*
X255549Y186720D01*
X255503Y186648D01*
X255453Y186579D01*
X255401Y186511D01*
X255345Y186446D01*
X255287Y186383D01*
X255225Y186324D01*
X255162Y186266D01*
X255095Y186212D01*
X255027Y186161D01*
X254956Y186113D01*
X254883Y186068D01*
X254809Y186026D01*
X254732Y185988D01*
X254654Y185953D01*
X254575Y185921D01*
X254494Y185893D01*
X254412Y185869D01*
X254328Y185848D01*
X254245Y185831D01*
X254160Y185818D01*
X254075Y185809D01*
X253990Y185803D01*
X253904Y185801D01*
X253818Y185803D01*
X253733Y185809D01*
X253648Y185818D01*
X253563Y185831D01*
X253480Y185848D01*
X253396Y185869D01*
X253314Y185893D01*
X253233Y185921D01*
X253154Y185953D01*
X253076Y185988D01*
X252999Y186026D01*
X252925Y186068D01*
X252852Y186113D01*
X252781Y186161D01*
X252713Y186212D01*
X252646Y186266D01*
X252583Y186324D01*
X252521Y186383D01*
X252463Y186446D01*
X252407Y186511D01*
X252355Y186579D01*
X252305Y186648D01*
X252259Y186720D01*
X252216Y186794D01*
X252176Y186870D01*
X252139Y186947D01*
X252106Y187026D01*
X252076Y187106D01*
X252077Y187106D02*
X251998Y187273D01*
X251923Y187442D01*
X251852Y187613D01*
X251785Y187785D01*
X251723Y187959D01*
X251664Y188135D01*
X251610Y188311D01*
X251560Y188489D01*
X251514Y188669D01*
X251472Y188849D01*
X251435Y189030D01*
X251402Y189212D01*
X251373Y189394D01*
X251349Y189578D01*
X251329Y189762D01*
X251314Y189946D01*
X251303Y190130D01*
X251296Y190315D01*
X251294Y190500D01*
X256515Y190500D02*
X256513Y190685D01*
X256506Y190870D01*
X256495Y191054D01*
X256480Y191238D01*
X256460Y191422D01*
X256436Y191606D01*
X256407Y191788D01*
X256374Y191970D01*
X256337Y192151D01*
X256295Y192331D01*
X256249Y192511D01*
X256199Y192689D01*
X256145Y192865D01*
X256086Y193041D01*
X256024Y193215D01*
X255957Y193387D01*
X255886Y193558D01*
X255811Y193727D01*
X255732Y193894D01*
X255702Y193974D01*
X255669Y194053D01*
X255632Y194130D01*
X255592Y194206D01*
X255549Y194280D01*
X255503Y194352D01*
X255453Y194421D01*
X255400Y194489D01*
X255345Y194554D01*
X255286Y194617D01*
X255225Y194676D01*
X255162Y194734D01*
X255095Y194788D01*
X255027Y194839D01*
X254956Y194887D01*
X254883Y194932D01*
X254809Y194974D01*
X254732Y195012D01*
X254654Y195047D01*
X254575Y195079D01*
X254494Y195107D01*
X254412Y195131D01*
X254328Y195152D01*
X254245Y195169D01*
X254160Y195182D01*
X254075Y195191D01*
X253990Y195197D01*
X253904Y195199D01*
X252077Y193894D02*
X251998Y193727D01*
X251923Y193558D01*
X251852Y193387D01*
X251785Y193215D01*
X251723Y193041D01*
X251664Y192865D01*
X251610Y192689D01*
X251560Y192511D01*
X251514Y192331D01*
X251472Y192151D01*
X251435Y191970D01*
X251402Y191788D01*
X251373Y191606D01*
X251349Y191422D01*
X251329Y191238D01*
X251314Y191054D01*
X251303Y190870D01*
X251296Y190685D01*
X251294Y190500D01*
X252076Y193894D02*
X252106Y193974D01*
X252139Y194053D01*
X252176Y194130D01*
X252216Y194206D01*
X252259Y194280D01*
X252305Y194352D01*
X252355Y194421D01*
X252408Y194489D01*
X252463Y194554D01*
X252522Y194617D01*
X252583Y194676D01*
X252646Y194734D01*
X252713Y194788D01*
X252781Y194839D01*
X252852Y194887D01*
X252925Y194932D01*
X252999Y194974D01*
X253076Y195012D01*
X253154Y195047D01*
X253234Y195079D01*
X253314Y195107D01*
X253396Y195131D01*
X253480Y195152D01*
X253563Y195169D01*
X253648Y195182D01*
X253733Y195191D01*
X253818Y195197D01*
X253904Y195199D01*
X255993Y193111D02*
X251816Y187889D01*
X247371Y190500D02*
X247369Y190315D01*
X247362Y190130D01*
X247351Y189946D01*
X247336Y189762D01*
X247316Y189578D01*
X247292Y189394D01*
X247263Y189212D01*
X247230Y189030D01*
X247193Y188849D01*
X247151Y188669D01*
X247105Y188489D01*
X247055Y188311D01*
X247001Y188135D01*
X246942Y187959D01*
X246880Y187785D01*
X246813Y187613D01*
X246742Y187442D01*
X246667Y187273D01*
X246588Y187106D01*
X246558Y187026D01*
X246525Y186947D01*
X246488Y186870D01*
X246448Y186794D01*
X246405Y186720D01*
X246359Y186648D01*
X246309Y186579D01*
X246257Y186511D01*
X246201Y186446D01*
X246143Y186383D01*
X246081Y186324D01*
X246018Y186266D01*
X245951Y186212D01*
X245883Y186161D01*
X245812Y186113D01*
X245739Y186068D01*
X245665Y186026D01*
X245588Y185988D01*
X245510Y185953D01*
X245431Y185921D01*
X245350Y185893D01*
X245268Y185869D01*
X245184Y185848D01*
X245101Y185831D01*
X245016Y185818D01*
X244931Y185809D01*
X244846Y185803D01*
X244760Y185801D01*
X244674Y185803D01*
X244589Y185809D01*
X244504Y185818D01*
X244419Y185831D01*
X244336Y185848D01*
X244252Y185869D01*
X244170Y185893D01*
X244089Y185921D01*
X244010Y185953D01*
X243932Y185988D01*
X243855Y186026D01*
X243781Y186068D01*
X243708Y186113D01*
X243637Y186161D01*
X243569Y186212D01*
X243502Y186266D01*
X243439Y186324D01*
X243377Y186383D01*
X243319Y186446D01*
X243263Y186511D01*
X243211Y186579D01*
X243161Y186648D01*
X243115Y186720D01*
X243072Y186794D01*
X243032Y186870D01*
X242995Y186947D01*
X242962Y187026D01*
X242932Y187106D01*
X242933Y187106D02*
X242854Y187273D01*
X242779Y187442D01*
X242708Y187613D01*
X242641Y187785D01*
X242579Y187959D01*
X242520Y188135D01*
X242466Y188311D01*
X242416Y188489D01*
X242370Y188669D01*
X242328Y188849D01*
X242291Y189030D01*
X242258Y189212D01*
X242229Y189394D01*
X242205Y189578D01*
X242185Y189762D01*
X242170Y189946D01*
X242159Y190130D01*
X242152Y190315D01*
X242150Y190500D01*
X247371Y190500D02*
X247369Y190685D01*
X247362Y190870D01*
X247351Y191054D01*
X247336Y191238D01*
X247316Y191422D01*
X247292Y191606D01*
X247263Y191788D01*
X247230Y191970D01*
X247193Y192151D01*
X247151Y192331D01*
X247105Y192511D01*
X247055Y192689D01*
X247001Y192865D01*
X246942Y193041D01*
X246880Y193215D01*
X246813Y193387D01*
X246742Y193558D01*
X246667Y193727D01*
X246588Y193894D01*
X246558Y193974D01*
X246525Y194053D01*
X246488Y194130D01*
X246448Y194206D01*
X246405Y194280D01*
X246359Y194352D01*
X246309Y194421D01*
X246256Y194489D01*
X246201Y194554D01*
X246142Y194617D01*
X246081Y194676D01*
X246018Y194734D01*
X245951Y194788D01*
X245883Y194839D01*
X245812Y194887D01*
X245739Y194932D01*
X245665Y194974D01*
X245588Y195012D01*
X245510Y195047D01*
X245431Y195079D01*
X245350Y195107D01*
X245268Y195131D01*
X245184Y195152D01*
X245101Y195169D01*
X245016Y195182D01*
X244931Y195191D01*
X244846Y195197D01*
X244760Y195199D01*
X242933Y193894D02*
X242854Y193727D01*
X242779Y193558D01*
X242708Y193387D01*
X242641Y193215D01*
X242579Y193041D01*
X242520Y192865D01*
X242466Y192689D01*
X242416Y192511D01*
X242370Y192331D01*
X242328Y192151D01*
X242291Y191970D01*
X242258Y191788D01*
X242229Y191606D01*
X242205Y191422D01*
X242185Y191238D01*
X242170Y191054D01*
X242159Y190870D01*
X242152Y190685D01*
X242150Y190500D01*
X242932Y193894D02*
X242962Y193974D01*
X242995Y194053D01*
X243032Y194130D01*
X243072Y194206D01*
X243115Y194280D01*
X243161Y194352D01*
X243211Y194421D01*
X243264Y194489D01*
X243319Y194554D01*
X243378Y194617D01*
X243439Y194676D01*
X243502Y194734D01*
X243569Y194788D01*
X243637Y194839D01*
X243708Y194887D01*
X243781Y194932D01*
X243855Y194974D01*
X243932Y195012D01*
X244010Y195047D01*
X244090Y195079D01*
X244170Y195107D01*
X244252Y195131D01*
X244336Y195152D01*
X244419Y195169D01*
X244504Y195182D01*
X244589Y195191D01*
X244674Y195197D01*
X244760Y195199D01*
X246849Y193111D02*
X242672Y187889D01*
D11*
X70499Y62992D02*
X64008Y62992D01*
X70499Y62992D02*
X64008Y51308D01*
X70499Y51308D01*
X74408Y51308D02*
X82197Y62992D01*
X74408Y62992D02*
X82197Y51308D01*
X86487Y60396D02*
X89733Y62992D01*
X89733Y51308D01*
X92978Y51308D02*
X86487Y51308D01*
M02*
