M48
;GenerationSoftware,Autodesk,EAGLE,9.5.2*%
;CreationDate,2020-06-10T00:57:40Z*%
FMAT,2
ICI,OFF
METRIC,TZ,000.000
T6C0.508
T5C0.813
T4C0.900
T3C1.000
T2C1.016
T1C2.000
%
G90
M71
T1
X52990Y19050
X7010Y19050
T2
X64770Y17780
X62230Y17780
X64770Y12700
X62230Y12700
X64770Y15240
X62230Y15240
T3
X5080Y38100
X12700Y3810
X67310Y3810
X67310Y38100
T4
X33020Y26670
X27940Y26670
X25400Y26670
X22860Y26670
X20320Y26670
X25400Y11430
X17780Y26670
X15240Y26670
X15240Y11430
X17780Y11430
X20320Y11430
X22860Y11430
X30480Y26670
X27940Y11430
X30480Y11430
X33020Y11430
X35560Y11430
X38100Y11430
X40640Y11430
X43180Y11430
X45720Y11430
X48260Y11430
X48260Y26670
X45720Y26670
X43180Y26670
X40640Y26670
X38100Y26670
X35560Y26670
T5
X62230Y25400
X64770Y25400
T6
X40640Y30480
X68580Y12700
X41910Y29210
X58420Y19050
X45720Y31750
X68580Y15240
M30